<svg width="22" height="22" viewBox="0 0 22 22" fill="none" xmlns="http://www.w3.org/2000/svg">
<path d="M17.4167 20.1668H4.58333C3.57081 20.1668 2.75 19.346 2.75 18.3335V5.50016C2.75 4.48764 3.57081 3.66683 4.58333 3.66683H6.41667V1.8335H8.25V3.66683H13.75V1.8335H15.5833V3.66683H17.4167C18.4292 3.66683 19.25 4.48764 19.25 5.50016V18.3335C19.25 19.346 18.4292 20.1668 17.4167 20.1668ZM4.58333 9.16683V18.3335H17.4167V9.16683H4.58333ZM4.58333 5.50016V7.3335H17.4167V5.50016H4.58333ZM15.5833 16.5002H13.75V14.6668H15.5833V16.5002ZM11.9167 16.5002H10.0833V14.6668H11.9167V16.5002ZM8.25 16.5002H6.41667V14.6668H8.25V16.5002ZM15.5833 12.8335H13.75V11.0002H15.5833V12.8335ZM11.9167 12.8335H10.0833V11.0002H11.9167V12.8335ZM8.25 12.8335H6.41667V11.0002H8.25V12.8335Z" fill="black"/>
</svg>
