<svg width="21" height="21" viewBox="0 0 21 21" fill="none" xmlns="http://www.w3.org/2000/svg">
<path d="M10.4997 2.1665C10.9599 2.1665 11.333 2.5396 11.333 2.99984V11.8213L13.2438 9.91058C13.5692 9.58514 14.0968 9.58514 14.4223 9.91058C14.7477 10.236 14.7477 10.7637 14.4223 11.0891L11.0889 14.4224C10.7635 14.7479 10.2359 14.7479 9.91042 14.4224L6.57709 11.0891C6.25165 10.7637 6.25165 10.236 6.57709 9.91058C6.90252 9.58514 7.43016 9.58514 7.7556 9.91058L9.66634 11.8213V2.99984C9.66634 2.5396 10.0394 2.1665 10.4997 2.1665ZM4.66634 14.6665C5.12658 14.6665 5.49967 15.0396 5.49967 15.4998V17.1665H15.4997V15.4998C15.4997 15.0396 15.8728 14.6665 16.333 14.6665C16.7932 14.6665 17.1663 15.0396 17.1663 15.4998V17.1665C17.1663 18.087 16.4201 18.8332 15.4997 18.8332H5.49967C4.5792 18.8332 3.83301 18.087 3.83301 17.1665V15.4998C3.83301 15.0396 4.2061 14.6665 4.66634 14.6665Z" fill="#EBE6E1"/>
</svg>
