<svg width="21" height="21" viewBox="0 0 21 21" fill="none" xmlns="http://www.w3.org/2000/svg">
<g clip-path="url(#clip0_2534_134816)">
<path d="M10.5002 0C6.12008 0 2.55664 3.5635 2.55664 7.94356C2.55664 9.75024 3.80198 12.3922 6.25798 15.7961C8.03358 18.2569 9.78054 20.2013 9.85401 20.2829L10.5003 21.0001L11.1465 20.2829C11.22 20.2014 12.9669 18.2569 14.7425 15.7961C17.1985 12.3922 18.4439 9.7503 18.4439 7.94356C18.4438 3.5635 14.8803 0 10.5002 0ZM10.5002 18.3805C8.31205 15.8224 4.29635 10.5824 4.29635 7.94356C4.29635 4.52277 7.07936 1.73971 10.5002 1.73971C13.921 1.73971 16.704 4.52277 16.704 7.94356C16.7041 10.5824 12.6883 15.8224 10.5002 18.3805Z" fill="#0A0A0A"/>
<path d="M10.5 10.8263C12.0917 10.8263 13.3819 9.536 13.3819 7.94438C13.3819 6.35276 12.0917 5.0625 10.5 5.0625C8.90843 5.0625 7.61816 6.35276 7.61816 7.94438C7.61816 9.536 8.90843 10.8263 10.5 10.8263Z" fill="#0A0A0A"/>
</g>
<defs>
<clipPath id="clip0_2534_134816">
<rect width="21" height="21" fill="white"/>
</clipPath>
</defs>
</svg>
