<svg width="18" height="18" viewBox="0 0 18 18" fill="none" xmlns="http://www.w3.org/2000/svg">
<path d="M10.3646 16.5H7.63457C7.28216 16.5 6.97724 16.2548 6.90182 15.9105L6.59657 14.4975C6.18936 14.3191 5.80324 14.096 5.44532 13.8323L4.06757 14.271C3.73157 14.3781 3.36631 14.2367 3.19007 13.9313L1.82207 11.568C1.64776 11.2624 1.70782 10.8769 1.96682 10.6388L3.03557 9.66375C2.98697 9.22208 2.98697 8.77642 3.03557 8.33475L1.96682 7.362C1.70744 7.12378 1.64736 6.73779 1.82207 6.432L3.18707 4.06725C3.36331 3.76177 3.72857 3.62035 4.06457 3.7275L5.44232 4.16625C5.62537 4.03062 5.81592 3.90542 6.01307 3.79125C6.20233 3.68452 6.3971 3.58789 6.59657 3.50175L6.90257 2.09025C6.97763 1.74598 7.28221 1.50037 7.63457 1.5H10.3646C10.7169 1.50037 11.0215 1.74598 11.0966 2.09025L11.4056 3.5025C11.6162 3.59514 11.8213 3.69981 12.0198 3.816C12.205 3.92311 12.3841 4.04054 12.5561 4.16775L13.9346 3.729C14.2703 3.62225 14.6352 3.76362 14.8113 4.06875L16.1763 6.4335C16.3506 6.73911 16.2906 7.12463 16.0316 7.36275L14.9628 8.33775C15.0114 8.77942 15.0114 9.22508 14.9628 9.66675L16.0316 10.6418C16.2906 10.8799 16.3506 11.2654 16.1763 11.571L14.8113 13.9357C14.6352 14.2409 14.2703 14.3822 13.9346 14.2755L12.5561 13.8368C12.3816 13.9652 12.2004 14.0841 12.0131 14.193C11.8164 14.3069 11.6136 14.4098 11.4056 14.5013L11.0966 15.9105C11.0212 16.2545 10.7167 16.4997 10.3646 16.5ZM5.71457 12.1718L6.32957 12.6217C6.46821 12.7239 6.61271 12.8178 6.76232 12.903C6.9031 12.9845 7.04805 13.0586 7.19657 13.125L7.89632 13.4318L8.23907 15H9.76157L10.1043 13.431L10.8041 13.1243C11.1096 12.9895 11.3995 12.8221 11.6688 12.6248L12.2846 12.1747L13.8153 12.6623L14.5766 11.3438L13.3893 10.2615L13.4733 9.5025C13.5102 9.17052 13.5102 8.83548 13.4733 8.5035L13.3893 7.7445L14.5773 6.66L13.8153 5.34075L12.2846 5.82825L11.6688 5.37825C11.3994 5.18003 11.1095 5.01132 10.8041 4.875L10.1043 4.56825L9.76157 3H8.23907L7.89482 4.569L7.19657 4.875C7.04793 4.94028 6.90296 5.01364 6.76232 5.09475C6.61363 5.17975 6.46989 5.27315 6.33182 5.3745L5.71607 5.8245L4.18607 5.337L3.42332 6.66L4.61057 7.74075L4.52657 8.5005C4.48967 8.83248 4.48967 9.16752 4.52657 9.4995L4.61057 10.2585L3.42332 11.3407L4.18457 12.6593L5.71457 12.1718ZM8.99657 12C7.33972 12 5.99657 10.6569 5.99657 9C5.99657 7.34315 7.33972 6 8.99657 6C10.6534 6 11.9966 7.34315 11.9966 9C11.9945 10.656 10.6526 11.9979 8.99657 12ZM8.99657 7.5C8.17712 7.50083 7.50999 8.15914 7.49825 8.97851C7.4865 9.79787 8.1345 10.475 8.95359 10.4993C9.77268 10.5237 10.4597 9.88612 10.4966 9.0675V9.3675V9C10.4966 8.17157 9.825 7.5 8.99657 7.5Z" fill="#EBE6E1"/>
</svg>
