<svg width="27" height="27" viewBox="0 0 27 27" fill="none" xmlns="http://www.w3.org/2000/svg">
<g clip-path="url(#clip0_2534_134911)">
<path d="M7.86523 17.668L9.06057 17.9883L9.41644 16.6601L8.22111 16.3398L7.86523 17.668ZM10.3564 8.37093L11.5517 8.69122L11.9076 7.36307L10.7122 7.04278L10.3564 8.37093ZM10.2559 18.3085L11.4512 18.6288L11.8071 17.3007L10.6118 16.9804L10.2559 18.3085ZM12.747 9.01151L13.9424 9.3318L14.2982 8.00365L13.1029 7.68336L12.747 9.01151ZM12.6466 18.9491L13.8419 19.2694L14.1978 17.9413L13.0024 17.621L12.6466 18.9491ZM15.1377 9.65209L16.333 9.97238L16.6889 8.64423L15.4936 8.32394L15.1377 9.65209ZM15.0372 19.5897L16.2326 19.91L16.5884 18.5818L15.3931 18.2616L15.0372 19.5897ZM17.5284 10.2927L18.7237 10.613L19.0796 9.2848L17.8842 8.96452L17.5284 10.2927Z" fill="#EBE6E1"/>
<path d="M4.51819 20.3281C4.37661 20.8565 4.45073 21.4194 4.72423 21.8932C4.99774 22.3669 5.44823 22.7126 5.9766 22.8541L7.96882 23.3879C8.14494 23.4351 8.3326 23.4104 8.49051 23.3193C8.64841 23.2281 8.76364 23.0779 8.81083 22.9018C8.95241 22.3734 9.29808 21.9229 9.7718 21.6494C10.2455 21.3759 10.8085 21.3018 11.3369 21.4434C11.8652 21.585 12.3157 21.9306 12.5892 22.4044C12.8627 22.8781 12.9369 23.4411 12.7953 23.9694C12.7481 24.1456 12.7728 24.3332 12.864 24.4911C12.9551 24.649 13.1053 24.7643 13.2814 24.8114L15.2736 25.3453C15.802 25.4868 16.365 25.4127 16.8387 25.1392C17.3124 24.8657 17.6581 24.4152 17.7997 23.8869L22.4261 6.62093C22.5676 6.09256 22.4935 5.52959 22.22 5.05586C21.9465 4.58214 21.496 4.23647 20.9677 4.09489L18.9754 3.56108C18.7993 3.51389 18.6116 3.53859 18.4537 3.62976C18.2958 3.72093 18.1806 3.87109 18.1334 4.04721C17.9918 4.57558 17.6462 5.02607 17.1724 5.29958C16.6987 5.57308 16.1358 5.6472 15.6074 5.50562C15.079 5.36405 14.6285 5.01837 14.355 4.54465C14.0815 4.07093 14.0074 3.50796 14.149 2.97959C14.1962 2.80346 14.1715 2.61581 14.0803 2.4579C13.9891 2.29999 13.839 2.18477 13.6628 2.13757L11.6706 1.60376C11.1422 1.46218 10.5793 1.5363 10.1056 1.8098C9.63183 2.08331 9.28616 2.5338 9.14458 3.06217L4.51819 20.3281ZM6.33247 21.526C6.15635 21.4788 6.00619 21.3636 5.91502 21.2057C5.82385 21.0477 5.79915 20.8601 5.84634 20.684L10.4727 3.41804C10.5199 3.24192 10.6351 3.09176 10.7931 3.00059C10.951 2.90942 11.1386 2.88471 11.3147 2.93191L12.7093 3.30558C12.6606 4.09701 12.887 4.88095 13.3501 5.52456C13.8133 6.16817 14.4847 6.63187 15.2506 6.8371C16.0165 7.04232 16.8298 6.97645 17.5527 6.65064C18.2756 6.32483 18.8637 5.75913 19.2172 5.04937L20.6118 5.42304C20.7879 5.47023 20.9381 5.58546 21.0292 5.74336C21.1204 5.90127 21.1451 6.08893 21.0979 6.26505L16.4715 23.531C16.4243 23.7071 16.3091 23.8573 16.1512 23.9484C15.9933 24.0396 15.8056 24.0643 15.6295 24.0171L14.235 23.6434C14.2837 22.852 14.0573 22.0681 13.5941 21.4245C13.131 20.7808 12.4595 20.3171 11.6936 20.1119C10.9277 19.9067 10.1144 19.9726 9.39151 20.2984C8.6686 20.6242 8.08057 21.1899 7.72703 21.8996L6.33247 21.526Z" fill="#EBE6E1"/>
</g>
<defs>
<clipPath id="clip0_2534_134911">
<rect width="22" height="22" fill="white" transform="translate(0 21.25) rotate(-75)"/>
</clipPath>
</defs>
</svg>
