<svg width="97" height="50" viewBox="0 0 97 50" fill="none" xmlns="http://www.w3.org/2000/svg">
<path fill-rule="evenodd" clip-rule="evenodd" d="M0 9C4.97056 9 9 4.97056 9 0H79V50H9C9 45.0294 4.97056 41 0 41V39C1.10457 39 2 38.1046 2 37C2 35.8954 1.10457 35 0 35V33C1.10457 33 2 32.1046 2 31C2 29.8954 1.10457 29 0 29V27C1.10457 27 2 26.1046 2 25C2 23.8954 1.10457 23 0 23V21C1.10457 21 2 20.1046 2 19C2 17.8954 1.10457 17 0 17V15C1.10457 15 2 14.1046 2 13C2 11.8954 1.10457 11 0 11V9Z" fill="#0A0A0A"/>
<mask id="path-3-inside-1_2250_87008" fill="white">
<path fill-rule="evenodd" clip-rule="evenodd" d="M5 13.0807V36.9193C8.70994 38.3382 11.6618 41.2901 13.0807 45H79V5H13.0807C11.6618 8.70994 8.70994 11.6618 5 13.0807Z"/>
</mask>
<path d="M5 13.0807L4.64277 12.1467L4 12.3926V13.0807H5ZM5 36.9193H4V37.6074L4.64277 37.8533L5 36.9193ZM13.0807 45L12.1467 45.3572L12.3926 46H13.0807V45ZM79 45V46H80V45H79ZM79 5H80V4H79V5ZM13.0807 5V4H12.3926L12.1467 4.64277L13.0807 5ZM4 13.0807V36.9193H6V13.0807H4ZM4.64277 37.8533C8.08721 39.1707 10.8293 41.9128 12.1467 45.3572L14.0148 44.6428C12.4943 40.6673 9.33267 37.5057 5.35723 35.9852L4.64277 37.8533ZM13.0807 46H79V44H13.0807V46ZM80 45V5H78V45H80ZM79 4H13.0807V6H79V4ZM12.1467 4.64277C10.8293 8.08721 8.08721 10.8293 4.64277 12.1467L5.35723 14.0148C9.33267 12.4943 12.4943 9.33267 14.0148 5.35723L12.1467 4.64277Z" fill="#EBE6E1" mask="url(#path-3-inside-1_2250_87008)"/>
<g clip-path="url(#clip0_2250_87008)">
<path fill-rule="evenodd" clip-rule="evenodd" d="M88 0H77V50H88C88 45.0294 92.0294 41 97 41V39C95.8954 39 95 38.1046 95 37C95 35.8954 95.8954 35 97 35V33C95.8954 33 95 32.1046 95 31C95 29.8954 95.8954 29 97 29V27C95.8954 27 95 26.1046 95 25C95 23.8954 95.8954 23 97 23V21C95.8954 21 95 20.1046 95 19C95 17.8954 95.8954 17 97 17V15C95.8954 15 95 14.1046 95 13C95 11.8954 95.8954 11 97 11V9C92.0294 9 88 4.97056 88 0Z" fill="#0A0A0A"/>
<mask id="path-6-inside-2_2250_87008" fill="white">
<path fill-rule="evenodd" clip-rule="evenodd" d="M83.9193 5H72V45H83.9193C85.3382 41.2901 88.2901 38.3382 92 36.9193V13.0807C88.2901 11.6618 85.3382 8.70994 83.9193 5Z"/>
</mask>
<path d="M83.9193 5L84.8533 4.64277L84.6074 4H83.9193V5ZM72 5V4H71V5H72ZM72 45H71V46H72V45ZM83.9193 45V46H84.6074L84.8533 45.3572L83.9193 45ZM92 36.9193L92.3572 37.8533L93 37.6074V36.9193H92ZM92 13.0807H93V12.3926L92.3572 12.1467L92 13.0807ZM83.9193 4H72V6H83.9193V4ZM71 5V45H73V5H71ZM72 46H83.9193V44H72V46ZM84.8533 45.3572C86.1707 41.9128 88.9128 39.1707 92.3572 37.8533L91.6428 35.9852C87.6673 37.5057 84.5057 40.6673 82.9852 44.6428L84.8533 45.3572ZM93 36.9193V13.0807H91V36.9193H93ZM92.3572 12.1467C88.9128 10.8293 86.1707 8.08721 84.8533 4.64277L82.9852 5.35723C84.5057 9.33267 87.6673 12.4943 91.6428 14.0148L92.3572 12.1467Z" fill="#EBE6E1" mask="url(#path-6-inside-2_2250_87008)"/>
</g>
<defs>
<clipPath id="clip0_2250_87008">
<rect width="20" height="50" fill="white" transform="translate(77)"/>
</clipPath>
</defs>
</svg>
