<svg width="37" height="37" viewBox="0 0 37 37" fill="none" xmlns="http://www.w3.org/2000/svg">
<path d="M28.7935 30.2275L19.9828 21.4153C16.0634 24.2018 10.6626 23.5202 7.55836 19.8473C4.45412 16.1744 4.68205 10.7355 8.08272 7.33525C11.4825 3.93347 16.9219 3.70455 20.5955 6.80863C24.2691 9.91272 24.951 15.3141 22.1643 19.2338L30.9749 28.046L28.795 30.2259L28.7935 30.2275ZM14.6225 7.70831C11.699 7.70765 9.17683 9.75979 8.58296 12.6223C7.98908 15.4848 9.48674 18.3709 12.1692 19.5333C14.8516 20.6956 17.9816 19.8148 19.6641 17.424C21.3466 15.0332 21.1192 11.7896 19.1195 9.657L20.0522 10.582L19.0008 9.53366L18.9823 9.51516C17.8288 8.35456 16.2588 7.7039 14.6225 7.70831Z" fill="#EBE6E1"/>
</svg>
