<svg width="343" height="349" viewBox="0 0 343 349" fill="none" xmlns="http://www.w3.org/2000/svg">
<path fill-rule="evenodd" clip-rule="evenodd" d="M320.016 0H310.984C310.726 3.90902 307.474 7 303.5 7C299.526 7 296.274 3.90902 296.016 0H286.984C286.726 3.90902 283.474 7 279.5 7C275.526 7 272.274 3.90902 272.016 0H262.984C262.726 3.90902 259.474 7 255.5 7C251.526 7 248.274 3.90902 248.016 0H238.984C238.726 3.90902 235.474 7 231.5 7C227.526 7 224.274 3.90902 224.016 0H214.984C214.726 3.90902 211.474 7 207.5 7C203.526 7 200.274 3.90902 200.016 0H190.984C190.726 3.90902 187.474 7 183.5 7C179.526 7 176.274 3.90902 176.016 0H166.984C166.726 3.90902 163.474 7 159.5 7C155.526 7 152.274 3.90902 152.016 0H142.984C142.726 3.90902 139.474 7 135.5 7C131.526 7 128.274 3.90902 128.016 0H118.984C118.726 3.90902 115.474 7 111.5 7C107.526 7 104.274 3.90902 104.016 0H94.9836C94.7263 3.90902 91.4741 7 87.5 7C83.5259 7 80.2737 3.90902 80.0164 0H70.9836C70.7263 3.90902 67.4741 7 63.5 7C59.5259 7 56.2737 3.90902 56.0164 0H46.9836C46.7263 3.90902 43.4741 7 39.5 7C35.5259 7 32.2737 3.90902 32.0164 0H22.9836C22.7263 3.90902 19.4741 7 15.5 7C11.5259 7 8.27369 3.90902 8.0164 0H0V7.36406C3.90902 7.62135 7 10.8735 7 14.8477C7 18.8218 3.90902 22.074 0 22.3313V31.8641C3.90902 32.1214 7 35.3735 7 39.3477C7 43.3218 3.90902 46.574 0 46.8313V56.3641C3.90902 56.6214 7 59.8735 7 63.8477C7 67.8218 3.90902 71.074 0 71.3313V80.8641C3.90902 81.1214 7 84.3735 7 88.3477C7 92.3218 3.90902 95.574 0 95.8313V105.364C3.90902 105.621 7 108.874 7 112.848C7 116.822 3.90902 120.074 0 120.331V129.864C3.90902 130.121 7 133.374 7 137.348C7 141.322 3.90902 144.574 0 144.831V154.364C3.90902 154.621 7 157.874 7 161.848C7 165.822 3.90902 169.074 0 169.331V178.864C3.90902 179.121 7 182.374 7 186.348C7 190.322 3.90902 193.574 0 193.831V203.364C3.90902 203.621 7 206.874 7 210.848C7 214.822 3.90902 218.074 0 218.331V227.864C3.90902 228.121 7 231.374 7 235.348C7 239.322 3.90902 242.574 0 242.831V252.364C3.90902 252.621 7 255.874 7 259.848C7 263.822 3.90902 267.074 0 267.331V276.864C3.90902 277.121 7 280.374 7 284.348C7 288.322 3.90902 291.574 0 291.831V301.364C3.90902 301.621 7 304.874 7 308.848C7 312.822 3.90902 316.074 0 316.331V325.864C3.90902 326.121 7 329.374 7 333.348C7 337.322 3.90902 340.574 0 340.831V349H8.6729C8.24077 348.053 8 347 8 345.891C8 341.748 11.3579 338.391 15.5 338.391C19.6421 338.391 23 341.748 23 345.891C23 347 22.7592 348.053 22.3271 349H32.6729C32.2408 348.053 32 347 32 345.891C32 341.748 35.3579 338.391 39.5 338.391C43.6421 338.391 47 341.748 47 345.891C47 347 46.7592 348.053 46.3271 349H56.6729C56.2408 348.053 56 347 56 345.891C56 341.748 59.3579 338.391 63.5 338.391C67.6421 338.391 71 341.748 71 345.891C71 347 70.7592 348.053 70.3271 349H80.6729C80.2408 348.053 80 347 80 345.891C80 341.748 83.3579 338.391 87.5 338.391C91.6421 338.391 95 341.748 95 345.891C95 347 94.7592 348.053 94.3271 349H104.673C104.241 348.053 104 347 104 345.891C104 341.748 107.358 338.391 111.5 338.391C115.642 338.391 119 341.748 119 345.891C119 347 118.759 348.053 118.327 349H128.673C128.241 348.053 128 347 128 345.891C128 341.748 131.358 338.391 135.5 338.391C139.642 338.391 143 341.748 143 345.891C143 347 142.759 348.053 142.327 349H152.673C152.241 348.053 152 347 152 345.891C152 341.748 155.358 338.391 159.5 338.391C163.642 338.391 167 341.748 167 345.891C167 347 166.759 348.053 166.327 349H176.673C176.241 348.053 176 347 176 345.891C176 341.748 179.358 338.391 183.5 338.391C187.642 338.391 191 341.748 191 345.891C191 347 190.759 348.053 190.327 349H200.673C200.241 348.053 200 347 200 345.891C200 341.748 203.358 338.391 207.5 338.391C211.642 338.391 215 341.748 215 345.891C215 347 214.759 348.053 214.327 349H224.673C224.241 348.053 224 347 224 345.891C224 341.748 227.358 338.391 231.5 338.391C235.642 338.391 239 341.748 239 345.891C239 347 238.759 348.053 238.327 349H248.673C248.241 348.053 248 347 248 345.891C248 341.748 251.358 338.391 255.5 338.391C259.642 338.391 263 341.748 263 345.891C263 347 262.759 348.053 262.327 349H272.673C272.241 348.053 272 347 272 345.891C272 341.748 275.358 338.391 279.5 338.391C283.642 338.391 287 341.748 287 345.891C287 347 286.759 348.053 286.327 349H296.673C296.241 348.053 296 347 296 345.891C296 341.748 299.358 338.391 303.5 338.391C307.642 338.391 311 341.748 311 345.891C311 347 310.759 348.053 310.327 349H320.673C320.241 348.053 320 347 320 345.891C320 341.748 323.358 338.391 327.5 338.391C331.642 338.391 335 341.748 335 345.891C335 347 334.759 348.053 334.327 349H343V340.984C339.091 340.726 336 337.474 336 333.5C336 329.526 339.091 326.274 343 326.016V316.484C339.091 316.226 336 312.974 336 309C336 305.026 339.091 301.774 343 301.516V291.984C339.091 291.726 336 288.474 336 284.5C336 280.526 339.091 277.274 343 277.016V267.484C339.091 267.226 336 263.974 336 260C336 256.026 339.091 252.774 343 252.516V242.984C339.091 242.726 336 239.474 336 235.5C336 231.526 339.091 228.274 343 228.016V218.484C339.091 218.226 336 214.974 336 211C336 207.026 339.091 203.774 343 203.516V193.984C339.091 193.726 336 190.474 336 186.5C336 182.526 339.091 179.274 343 179.016V169.484C339.091 169.226 336 165.974 336 162C336 158.026 339.091 154.774 343 154.516V144.984C339.091 144.726 336 141.474 336 137.5C336 133.526 339.091 130.274 343 130.016V120.484C339.091 120.226 336 116.974 336 113C336 109.026 339.091 105.774 343 105.516V95.9836C339.091 95.7263 336 92.4741 336 88.5C336 84.5259 339.091 81.2737 343 81.0164V71.4836C339.091 71.2263 336 67.9741 336 64C336 60.0259 339.091 56.7737 343 56.5164V46.9836C339.091 46.7263 336 43.4741 336 39.5C336 35.5259 339.091 32.2737 343 32.0164V22.4836C339.091 22.2263 336 18.9741 336 15C336 11.0259 339.091 7.77369 343 7.5164V0H334.984C334.726 3.90902 331.474 7 327.5 7C323.526 7 320.274 3.90902 320.016 0Z" fill="#EBE6E1"/>
</svg>
