<svg width="80" height="80" viewBox="0 0 80 80" fill="none" xmlns="http://www.w3.org/2000/svg">
<path fill-rule="evenodd" clip-rule="evenodd" d="M23.8166 37.3178C25.8586 38.8023 27.5711 40.0474 30.4054 39.6411C36.1165 38.8225 39.3493 30.1373 29.9467 24.7087C20.5442 19.2801 8.52115 22.5017 3.09258 31.9042C-0.0189648 37.2936 2.27968 36.5623 6.30784 35.2808C9.30745 34.3265 13.2661 33.0672 16.664 33.8028C19.9645 34.5174 22.0183 36.0105 23.8166 37.3178ZM25.7323 35.6565C29.3113 38.9934 32.8209 36.502 33.1808 34.0038C33.6847 30.5064 30.8878 26.7269 24.6738 25.304C17.3498 23.6269 9.66804 26.923 6.51281 30.5133C3.35759 34.1036 3.85716 33.9084 8.94818 31.9194C14.5388 29.7352 21.1587 31.3924 25.7323 35.6565Z" fill="#EC6C0C"/>
<path fill-rule="evenodd" clip-rule="evenodd" d="M23.8166 37.3178C25.8586 38.8023 27.5711 40.0474 30.4054 39.6411C36.1165 38.8225 39.3493 30.1373 29.9467 24.7087C20.5442 19.2801 8.52115 22.5017 3.09258 31.9042C-0.0189648 37.2936 2.27968 36.5623 6.30784 35.2808C9.30745 34.3265 13.2661 33.0672 16.664 33.8028C19.9645 34.5174 22.0183 36.0105 23.8166 37.3178ZM25.7323 35.6565C29.3113 38.9934 32.8209 36.502 33.1808 34.0038C33.6847 30.5064 30.8878 26.7269 24.6738 25.304C17.3498 23.6269 9.66804 26.923 6.51281 30.5133C3.35759 34.1036 3.85716 33.9084 8.94818 31.9194C14.5388 29.7352 21.1587 31.3924 25.7323 35.6565Z" style="mix-blend-mode:color-dodge"/>
<path fill-rule="evenodd" clip-rule="evenodd" d="M23.8166 37.3178C25.8586 38.8023 27.5711 40.0474 30.4054 39.6411C36.1165 38.8225 39.3493 30.1373 29.9467 24.7087C20.5442 19.2801 8.52115 22.5017 3.09258 31.9042C-0.0189648 37.2936 2.27968 36.5623 6.30784 35.2808C9.30745 34.3265 13.2661 33.0672 16.664 33.8028C19.9645 34.5174 22.0183 36.0105 23.8166 37.3178ZM25.7323 35.6565C29.3113 38.9934 32.8209 36.502 33.1808 34.0038C33.6847 30.5064 30.8878 26.7269 24.6738 25.304C17.3498 23.6269 9.66804 26.923 6.51281 30.5133C3.35759 34.1036 3.85716 33.9084 8.94818 31.9194C14.5388 29.7352 21.1587 31.3924 25.7323 35.6565Z" style="mix-blend-mode:overlay"/>
<path fill-rule="evenodd" clip-rule="evenodd" d="M52.2141 26.4073C49.9075 27.4334 47.973 28.2941 46.9077 30.9518C44.7611 36.307 50.6663 43.4493 60.0689 38.0207C69.4715 32.5921 72.693 20.5691 67.2645 11.1666C64.1529 5.77721 63.6369 8.13353 62.7326 12.2628C62.0592 15.3376 61.1706 19.3956 58.8345 21.9704C56.5654 24.4715 54.2455 25.5036 52.2141 26.4073ZM52.695 28.897C48.0157 30.3281 48.4185 34.6131 50.4021 36.1739C53.179 38.359 57.8506 37.8267 62.1898 33.1566C67.3042 27.6523 68.2906 19.3517 66.7589 14.824C65.2273 10.2964 65.1465 10.8266 64.3236 16.2301C63.4198 22.1638 58.6747 27.0682 52.695 28.897Z" fill="#EC6C0C"/>
<path fill-rule="evenodd" clip-rule="evenodd" d="M52.2141 26.4073C49.9075 27.4334 47.973 28.2941 46.9077 30.9518C44.7611 36.307 50.6663 43.4493 60.0689 38.0207C69.4715 32.5921 72.693 20.5691 67.2645 11.1666C64.1529 5.77721 63.6369 8.13353 62.7326 12.2628C62.0592 15.3376 61.1706 19.3956 58.8345 21.9704C56.5654 24.4715 54.2455 25.5036 52.2141 26.4073ZM52.695 28.897C48.0157 30.3281 48.4185 34.6131 50.4021 36.1739C53.179 38.359 57.8506 37.8267 62.1898 33.1566C67.3042 27.6523 68.2906 19.3517 66.7589 14.824C65.2273 10.2964 65.1465 10.8266 64.3236 16.2301C63.4198 22.1638 58.6747 27.0682 52.695 28.897Z" style="mix-blend-mode:color-dodge"/>
<path fill-rule="evenodd" clip-rule="evenodd" d="M52.2141 26.4073C49.9075 27.4334 47.973 28.2941 46.9077 30.9518C44.7611 36.307 50.6663 43.4493 60.0689 38.0207C69.4715 32.5921 72.693 20.5691 67.2645 11.1666C64.1529 5.77721 63.6369 8.13353 62.7326 12.2628C62.0592 15.3376 61.1706 19.3956 58.8345 21.9704C56.5654 24.4715 54.2455 25.5036 52.2141 26.4073ZM52.695 28.897C48.0157 30.3281 48.4185 34.6131 50.4021 36.1739C53.179 38.359 57.8506 37.8267 62.1898 33.1566C67.3042 27.6523 68.2906 19.3517 66.7589 14.824C65.2273 10.2964 65.1465 10.8266 64.3236 16.2301C63.4198 22.1638 58.6747 27.0682 52.695 28.897Z" style="mix-blend-mode:overlay"/>
<path fill-rule="evenodd" clip-rule="evenodd" d="M46.2505 57.0322C46.5152 54.5215 46.7371 52.4159 44.9681 50.1645C41.4036 45.6279 32.2656 47.1708 32.2656 58.0279C32.2656 68.8851 41.0671 77.6865 51.9242 77.6865C58.1473 77.6865 56.3647 76.0615 53.2408 73.2137C50.9146 71.0931 47.8446 68.2945 46.7827 64.984C45.7514 61.7685 46.0175 59.2433 46.2505 57.0322ZM43.854 56.2038C44.9542 51.4359 41.0418 49.6422 38.6984 50.5796C35.4176 51.8919 33.5428 56.2038 35.4176 62.2967C37.6272 69.4781 44.3226 74.4826 49.0095 75.42C53.6964 76.3574 53.2776 76.0223 49.0095 72.6079C44.3226 68.8584 42.4479 62.2967 43.854 56.2038Z" fill="#EC6C0C"/>
<path fill-rule="evenodd" clip-rule="evenodd" d="M46.2505 57.0322C46.5152 54.5215 46.7371 52.4159 44.9681 50.1645C41.4036 45.6279 32.2656 47.1708 32.2656 58.0279C32.2656 68.8851 41.0671 77.6865 51.9242 77.6865C58.1473 77.6865 56.3647 76.0615 53.2408 73.2137C50.9146 71.0931 47.8446 68.2945 46.7827 64.984C45.7514 61.7685 46.0175 59.2433 46.2505 57.0322ZM43.854 56.2038C44.9542 51.4359 41.0418 49.6422 38.6984 50.5796C35.4176 51.8919 33.5428 56.2038 35.4176 62.2967C37.6272 69.4781 44.3226 74.4826 49.0095 75.42C53.6964 76.3574 53.2776 76.0223 49.0095 72.6079C44.3226 68.8584 42.4479 62.2967 43.854 56.2038Z" style="mix-blend-mode:color-dodge"/>
<path fill-rule="evenodd" clip-rule="evenodd" d="M46.2505 57.0322C46.5152 54.5215 46.7371 52.4159 44.9681 50.1645C41.4036 45.6279 32.2656 47.1708 32.2656 58.0279C32.2656 68.8851 41.0671 77.6865 51.9242 77.6865C58.1473 77.6865 56.3647 76.0615 53.2408 73.2137C50.9146 71.0931 47.8446 68.2945 46.7827 64.984C45.7514 61.7685 46.0175 59.2433 46.2505 57.0322ZM43.854 56.2038C44.9542 51.4359 41.0418 49.6422 38.6984 50.5796C35.4176 51.8919 33.5428 56.2038 35.4176 62.2967C37.6272 69.4781 44.3226 74.4826 49.0095 75.42C53.6964 76.3574 53.2776 76.0223 49.0095 72.6079C44.3226 68.8584 42.4479 62.2967 43.854 56.2038Z" style="mix-blend-mode:overlay"/>
<path fill-rule="evenodd" clip-rule="evenodd" d="M34.267 25.5701C34.6612 28.0637 34.9919 30.155 37.2833 31.8719C41.9004 35.3314 50.3277 31.4759 47.5177 20.9887C44.7077 10.5016 33.9281 4.27798 23.4409 7.08802C17.4299 8.69867 19.5724 9.80697 23.3269 11.7492C26.1227 13.1954 29.8124 15.1041 31.6949 18.027C33.5234 20.866 33.9199 23.3741 34.267 25.5701ZM36.7964 25.75C36.9676 30.6402 41.2109 31.3602 43.2319 29.8482C46.0613 27.7315 46.7561 23.0813 43.3683 17.6812C39.3753 11.3164 31.6127 8.21533 26.843 8.52295C22.0732 8.83056 22.5644 9.0458 27.5708 11.2392C33.0684 13.6479 36.5775 19.5007 36.7964 25.75Z" fill="#6A4B97"/>
<path fill-rule="evenodd" clip-rule="evenodd" d="M34.267 25.5701C34.6612 28.0637 34.9919 30.155 37.2833 31.8719C41.9004 35.3314 50.3277 31.4759 47.5177 20.9887C44.7077 10.5016 33.9281 4.27798 23.4409 7.08802C17.4299 8.69867 19.5724 9.80697 23.3269 11.7492C26.1227 13.1954 29.8124 15.1041 31.6949 18.027C33.5234 20.866 33.9199 23.3741 34.267 25.5701ZM36.7964 25.75C36.9676 30.6402 41.2109 31.3602 43.2319 29.8482C46.0613 27.7315 46.7561 23.0813 43.3683 17.6812C39.3753 11.3164 31.6127 8.21533 26.843 8.52295C22.0732 8.83056 22.5644 9.0458 27.5708 11.2392C33.0684 13.6479 36.5775 19.5007 36.7964 25.75Z" style="mix-blend-mode:color-dodge"/>
<path fill-rule="evenodd" clip-rule="evenodd" d="M34.267 25.5701C34.6612 28.0637 34.9919 30.155 37.2833 31.8719C41.9004 35.3314 50.3277 31.4759 47.5177 20.9887C44.7077 10.5016 33.9281 4.27798 23.4409 7.08802C17.4299 8.69867 19.5724 9.80697 23.3269 11.7492C26.1227 13.1954 29.8124 15.1041 31.6949 18.027C33.5234 20.866 33.9199 23.3741 34.267 25.5701ZM36.7964 25.75C36.9676 30.6402 41.2109 31.3602 43.2319 29.8482C46.0613 27.7315 46.7561 23.0813 43.3683 17.6812C39.3753 11.3164 31.6127 8.21533 26.843 8.52295C22.0732 8.83056 22.5644 9.0458 27.5708 11.2392C33.0684 13.6479 36.5775 19.5007 36.7964 25.75Z" style="mix-blend-mode:overlay"/>
<path fill-rule="evenodd" clip-rule="evenodd" d="M56.9412 42.3052C54.8992 40.8207 53.1867 39.5757 50.3524 39.982C44.6413 40.8006 41.4085 49.4858 50.8111 54.9144C60.2137 60.3429 72.2367 57.1214 77.6652 47.7188C80.7768 42.3295 78.4781 43.0607 74.45 44.3422C71.4504 45.2965 67.4917 46.5559 64.0938 45.8202C60.7934 45.1056 58.7395 43.6125 56.9412 42.3052ZM55.0255 43.9665C51.4465 40.6297 47.9369 43.1211 47.577 45.6192C47.0731 49.1167 49.87 52.8962 56.084 54.3191C63.4081 55.9962 71.0898 52.7 74.245 49.1098C77.4002 45.5195 76.9007 45.7147 71.8096 47.7037C66.219 49.8879 59.5991 48.2307 55.0255 43.9665Z" fill="#6A4B97"/>
<path fill-rule="evenodd" clip-rule="evenodd" d="M56.9412 42.3052C54.8992 40.8207 53.1867 39.5757 50.3524 39.982C44.6413 40.8006 41.4085 49.4858 50.8111 54.9144C60.2137 60.3429 72.2367 57.1214 77.6652 47.7188C80.7768 42.3295 78.4781 43.0607 74.45 44.3422C71.4504 45.2965 67.4917 46.5559 64.0938 45.8202C60.7934 45.1056 58.7395 43.6125 56.9412 42.3052ZM55.0255 43.9665C51.4465 40.6297 47.9369 43.1211 47.577 45.6192C47.0731 49.1167 49.87 52.8962 56.084 54.3191C63.4081 55.9962 71.0898 52.7 74.245 49.1098C77.4002 45.5195 76.9007 45.7147 71.8096 47.7037C66.219 49.8879 59.5991 48.2307 55.0255 43.9665Z" style="mix-blend-mode:color-dodge"/>
<path fill-rule="evenodd" clip-rule="evenodd" d="M56.9412 42.3052C54.8992 40.8207 53.1867 39.5757 50.3524 39.982C44.6413 40.8006 41.4085 49.4858 50.8111 54.9144C60.2137 60.3429 72.2367 57.1214 77.6652 47.7188C80.7768 42.3295 78.4781 43.0607 74.45 44.3422C71.4504 45.2965 67.4917 46.5559 64.0938 45.8202C60.7934 45.1056 58.7395 43.6125 56.9412 42.3052ZM55.0255 43.9665C51.4465 40.6297 47.9369 43.1211 47.577 45.6192C47.0731 49.1167 49.87 52.8962 56.084 54.3191C63.4081 55.9962 71.0898 52.7 74.245 49.1098C77.4002 45.5195 76.9007 45.7147 71.8096 47.7037C66.219 49.8879 59.5991 48.2307 55.0255 43.9665Z" style="mix-blend-mode:overlay"/>
<path fill-rule="evenodd" clip-rule="evenodd" d="M30.0749 53.3315C32.3816 52.3053 34.316 51.4447 35.3813 48.787C37.5279 43.4318 31.6227 36.2895 22.2202 41.7181C12.8176 47.1466 9.59604 59.1696 15.0246 68.5722C18.1362 73.9616 18.6522 71.6052 19.5564 67.476C20.2298 64.4011 21.1185 60.3431 23.4545 57.7683C25.7236 55.2673 28.0436 54.2352 30.0749 53.3315ZM29.594 50.8418C34.2733 49.4107 33.8705 45.1256 31.887 43.5648C29.1101 41.3797 24.4385 41.9121 20.0992 46.5822C14.9848 52.0865 13.9985 60.3871 15.5301 64.9147C17.0618 69.4424 17.1425 68.9121 17.9655 63.5087C18.8692 57.575 23.6144 52.6706 29.594 50.8418Z" fill="#6A4B97"/>
<path fill-rule="evenodd" clip-rule="evenodd" d="M30.0749 53.3315C32.3816 52.3053 34.316 51.4447 35.3813 48.787C37.5279 43.4318 31.6227 36.2895 22.2202 41.7181C12.8176 47.1466 9.59604 59.1696 15.0246 68.5722C18.1362 73.9616 18.6522 71.6052 19.5564 67.476C20.2298 64.4011 21.1185 60.3431 23.4545 57.7683C25.7236 55.2673 28.0436 54.2352 30.0749 53.3315ZM29.594 50.8418C34.2733 49.4107 33.8705 45.1256 31.887 43.5648C29.1101 41.3797 24.4385 41.9121 20.0992 46.5822C14.9848 52.0865 13.9985 60.3871 15.5301 64.9147C17.0618 69.4424 17.1425 68.9121 17.9655 63.5087C18.8692 57.575 23.6144 52.6706 29.594 50.8418Z" style="mix-blend-mode:color-dodge"/>
<path fill-rule="evenodd" clip-rule="evenodd" d="M30.0749 53.3315C32.3816 52.3053 34.316 51.4447 35.3813 48.787C37.5279 43.4318 31.6227 36.2895 22.2202 41.7181C12.8176 47.1466 9.59604 59.1696 15.0246 68.5722C18.1362 73.9616 18.6522 71.6052 19.5564 67.476C20.2298 64.4011 21.1185 60.3431 23.4545 57.7683C25.7236 55.2673 28.0436 54.2352 30.0749 53.3315ZM29.594 50.8418C34.2733 49.4107 33.8705 45.1256 31.887 43.5648C29.1101 41.3797 24.4385 41.9121 20.0992 46.5822C14.9848 52.0865 13.9985 60.3871 15.5301 64.9147C17.0618 69.4424 17.1425 68.9121 17.9655 63.5087C18.8692 57.575 23.6144 52.6706 29.594 50.8418Z" style="mix-blend-mode:overlay"/>
</svg>
