<svg width="80" height="80" viewBox="0 0 80 80" fill="none" xmlns="http://www.w3.org/2000/svg">
<path fill-rule="evenodd" clip-rule="evenodd" d="M64.6494 10.3965C60.2821 7.13415 47.855 4.5 51.9971 4.5C56.8593 4.5 61.8471 6.84002 63.4971 7.5C65.9971 8.5 67.87 9.98655 69.9971 12C72.0744 13.9664 72.918 15.4999 74.2217 17.5971C77.2133 22.4097 79.4974 29.351 79.4974 40C79.4974 62.661 62.6236 79 39.9974 79C28.7651 79 20.5712 75.8397 15.2094 69.6916C9.87326 63.5727 7.49923 54.6706 7.49738 43.5131C7.24371 33.748 10.7223 26.1959 16.1576 20.9962C21.5781 15.8107 28.8926 13.0123 36.2575 12.6264C43.6214 12.2405 51.1039 14.2631 56.8593 18.809C62.636 23.3717 66.6101 30.4291 66.9966 39.9595C67.421 50.4272 59.6556 64 41.9974 64C34.8923 64 29.7382 61.6749 26.3563 58.0945C22.9888 54.5292 21.4676 49.8136 21.4349 45.1778C21.4022 40.5483 22.8522 35.9206 25.5287 32.4839C28.2199 29.0285 32.1717 26.7634 37.0461 27.0012C41.3502 27.2112 44.5565 28.5651 46.7145 30.5762C48.8723 32.587 49.9156 35.1951 49.9868 37.7738C50.1286 42.9095 47.384 49.4999 40.9971 49.4999C34.6101 49.4999 34.384 45.1778 39.4971 45.1778C44.6101 45.1778 48.1025 41.9923 47.9876 37.829C47.9304 35.7581 47.097 33.6664 45.351 32.0394C43.6054 30.4126 40.8809 29.1907 36.9487 28.9988C32.823 28.7976 29.4624 30.688 27.1066 33.7128C24.7363 36.7563 23.405 40.9335 23.4348 45.1637C23.4646 49.3877 24.8497 53.5867 27.8103 56.7211C30.7566 59.8405 35.3524 62 41.9974 62C58.3392 62 65.3842 49.5612 64.9982 40.0405C64.6345 31.071 60.9212 24.5659 55.6197 20.3785C50.297 16.1744 43.3107 14.2595 36.3622 14.6237C29.4145 14.9877 22.5728 17.6269 17.5402 22.4414C12.5249 27.2393 9.25417 34.2452 9.49703 43.4737L9.49738 43.4869V43.5C9.49738 54.4278 11.8279 62.7711 16.7168 68.377C21.5822 73.9561 29.1383 77 39.9974 77C61.5539 77 77.4974 61.5219 77.4974 40C77.4974 29.6491 75.2815 23.0904 72.5231 18.653C70.0302 14.6427 68.2189 13.063 64.6494 10.3965Z" fill="#EC6C0C"/>
<path fill-rule="evenodd" clip-rule="evenodd" d="M64.6494 10.3965C60.2821 7.13415 47.855 4.5 51.9971 4.5C56.8593 4.5 61.8471 6.84002 63.4971 7.5C65.9971 8.5 67.87 9.98655 69.9971 12C72.0744 13.9664 72.918 15.4999 74.2217 17.5971C77.2133 22.4097 79.4974 29.351 79.4974 40C79.4974 62.661 62.6236 79 39.9974 79C28.7651 79 20.5712 75.8397 15.2094 69.6916C9.87326 63.5727 7.49923 54.6706 7.49738 43.5131C7.24371 33.748 10.7223 26.1959 16.1576 20.9962C21.5781 15.8107 28.8926 13.0123 36.2575 12.6264C43.6214 12.2405 51.1039 14.2631 56.8593 18.809C62.636 23.3717 66.6101 30.4291 66.9966 39.9595C67.421 50.4272 59.6556 64 41.9974 64C34.8923 64 29.7382 61.6749 26.3563 58.0945C22.9888 54.5292 21.4676 49.8136 21.4349 45.1778C21.4022 40.5483 22.8522 35.9206 25.5287 32.4839C28.2199 29.0285 32.1717 26.7634 37.0461 27.0012C41.3502 27.2112 44.5565 28.5651 46.7145 30.5762C48.8723 32.587 49.9156 35.1951 49.9868 37.7738C50.1286 42.9095 47.384 49.4999 40.9971 49.4999C34.6101 49.4999 34.384 45.1778 39.4971 45.1778C44.6101 45.1778 48.1025 41.9923 47.9876 37.829C47.9304 35.7581 47.097 33.6664 45.351 32.0394C43.6054 30.4126 40.8809 29.1907 36.9487 28.9988C32.823 28.7976 29.4624 30.688 27.1066 33.7128C24.7363 36.7563 23.405 40.9335 23.4348 45.1637C23.4646 49.3877 24.8497 53.5867 27.8103 56.7211C30.7566 59.8405 35.3524 62 41.9974 62C58.3392 62 65.3842 49.5612 64.9982 40.0405C64.6345 31.071 60.9212 24.5659 55.6197 20.3785C50.297 16.1744 43.3107 14.2595 36.3622 14.6237C29.4145 14.9877 22.5728 17.6269 17.5402 22.4414C12.5249 27.2393 9.25417 34.2452 9.49703 43.4737L9.49738 43.4869V43.5C9.49738 54.4278 11.8279 62.7711 16.7168 68.377C21.5822 73.9561 29.1383 77 39.9974 77C61.5539 77 77.4974 61.5219 77.4974 40C77.4974 29.6491 75.2815 23.0904 72.5231 18.653C70.0302 14.6427 68.2189 13.063 64.6494 10.3965Z" style="mix-blend-mode:color-dodge"/>
<path fill-rule="evenodd" clip-rule="evenodd" d="M64.6494 10.3965C60.2821 7.13415 47.855 4.5 51.9971 4.5C56.8593 4.5 61.8471 6.84002 63.4971 7.5C65.9971 8.5 67.87 9.98655 69.9971 12C72.0744 13.9664 72.918 15.4999 74.2217 17.5971C77.2133 22.4097 79.4974 29.351 79.4974 40C79.4974 62.661 62.6236 79 39.9974 79C28.7651 79 20.5712 75.8397 15.2094 69.6916C9.87326 63.5727 7.49923 54.6706 7.49738 43.5131C7.24371 33.748 10.7223 26.1959 16.1576 20.9962C21.5781 15.8107 28.8926 13.0123 36.2575 12.6264C43.6214 12.2405 51.1039 14.2631 56.8593 18.809C62.636 23.3717 66.6101 30.4291 66.9966 39.9595C67.421 50.4272 59.6556 64 41.9974 64C34.8923 64 29.7382 61.6749 26.3563 58.0945C22.9888 54.5292 21.4676 49.8136 21.4349 45.1778C21.4022 40.5483 22.8522 35.9206 25.5287 32.4839C28.2199 29.0285 32.1717 26.7634 37.0461 27.0012C41.3502 27.2112 44.5565 28.5651 46.7145 30.5762C48.8723 32.587 49.9156 35.1951 49.9868 37.7738C50.1286 42.9095 47.384 49.4999 40.9971 49.4999C34.6101 49.4999 34.384 45.1778 39.4971 45.1778C44.6101 45.1778 48.1025 41.9923 47.9876 37.829C47.9304 35.7581 47.097 33.6664 45.351 32.0394C43.6054 30.4126 40.8809 29.1907 36.9487 28.9988C32.823 28.7976 29.4624 30.688 27.1066 33.7128C24.7363 36.7563 23.405 40.9335 23.4348 45.1637C23.4646 49.3877 24.8497 53.5867 27.8103 56.7211C30.7566 59.8405 35.3524 62 41.9974 62C58.3392 62 65.3842 49.5612 64.9982 40.0405C64.6345 31.071 60.9212 24.5659 55.6197 20.3785C50.297 16.1744 43.3107 14.2595 36.3622 14.6237C29.4145 14.9877 22.5728 17.6269 17.5402 22.4414C12.5249 27.2393 9.25417 34.2452 9.49703 43.4737L9.49738 43.4869V43.5C9.49738 54.4278 11.8279 62.7711 16.7168 68.377C21.5822 73.9561 29.1383 77 39.9974 77C61.5539 77 77.4974 61.5219 77.4974 40C77.4974 29.6491 75.2815 23.0904 72.5231 18.653C70.0302 14.6427 68.2189 13.063 64.6494 10.3965Z" style="mix-blend-mode:overlay"/>
<path fill-rule="evenodd" clip-rule="evenodd" d="M72 40.4794C71.2644 58.1248 57.376 68.6669 43.5954 69.9417C36.7134 70.5784 29.9456 68.8897 24.914 64.693C19.9027 60.5132 16.5 53.7512 16.5 44C16.5 39.1775 17.9502 33.6633 21.4037 29.3765C24.8292 25.1245 30.2867 22 38.5 22C44.6211 22 48.9325 24.1476 51.7233 27.269C54.5318 30.4105 55.875 34.6234 55.875 38.8567C55.875 43.0939 54.5286 47.2676 52.0671 50.3027C49.6246 53.3143 46.0778 55.2221 41.5487 55.0012C37.6357 54.8103 35.0279 53.508 33.4278 51.8045C31.8221 50.095 31.1481 47.8948 31.2589 45.7502C31.3701 43.5964 32.521 42.3846 34 41C36.5722 39.3773 37.5482 39.0783 40.5 39.5C44 40 43.5954 35 39.5 35C36.2268 35 34.4133 36.2088 32.5 38C30.6082 39.7711 29.3969 43.0263 29.2615 45.6471C29.1257 48.2771 29.9533 51.0267 31.9701 53.1738C33.9924 55.3268 37.1279 56.7879 41.4513 56.9988C46.6722 57.2535 50.8129 55.0242 53.6204 51.5625C56.4089 48.1242 57.875 43.4884 57.875 38.8567C57.875 34.2211 56.4057 29.5057 53.2143 25.936C50.005 22.3464 45.1289 20 38.5 20C29.7133 20 23.6708 23.3744 19.8463 28.1218C16.0498 32.8343 14.5 38.8202 14.5 44C14.5 54.2487 18.0973 61.6118 23.6329 66.2289C29.1481 70.829 36.4741 72.6091 43.7796 71.9332C58.3686 70.5836 73.2248 59.3834 73.9992 40.5411L74 40.5206L74 40.5C74 29.2365 70.4468 20.5655 63.9532 14.7224C57.4759 8.89412 48.207 6.00011 37 6.00011C25.7188 6.00011 16.6864 9.81391 10.4809 16.5376C4.28482 23.2509 2 31.1218 1.5 41C1.29758 44.9992 3.5 62.5 3 49C2.5 35.5 6.16949 24.1578 11.9506 17.894C17.7222 11.6406 26.1898 8.00011 37 8.00011C47.8844 8.00011 56.6155 10.8104 62.6154 16.2092C68.5951 21.5898 71.9957 29.6619 72 40.4794Z" fill="#714595"/>
<path fill-rule="evenodd" clip-rule="evenodd" d="M72 40.4794C71.2644 58.1248 57.376 68.6669 43.5954 69.9417C36.7134 70.5784 29.9456 68.8897 24.914 64.693C19.9027 60.5132 16.5 53.7512 16.5 44C16.5 39.1775 17.9502 33.6633 21.4037 29.3765C24.8292 25.1245 30.2867 22 38.5 22C44.6211 22 48.9325 24.1476 51.7233 27.269C54.5318 30.4105 55.875 34.6234 55.875 38.8567C55.875 43.0939 54.5286 47.2676 52.0671 50.3027C49.6246 53.3143 46.0778 55.2221 41.5487 55.0012C37.6357 54.8103 35.0279 53.508 33.4278 51.8045C31.8221 50.095 31.1481 47.8948 31.2589 45.7502C31.3701 43.5964 32.521 42.3846 34 41C36.5722 39.3773 37.5482 39.0783 40.5 39.5C44 40 43.5954 35 39.5 35C36.2268 35 34.4133 36.2088 32.5 38C30.6082 39.7711 29.3969 43.0263 29.2615 45.6471C29.1257 48.2771 29.9533 51.0267 31.9701 53.1738C33.9924 55.3268 37.1279 56.7879 41.4513 56.9988C46.6722 57.2535 50.8129 55.0242 53.6204 51.5625C56.4089 48.1242 57.875 43.4884 57.875 38.8567C57.875 34.2211 56.4057 29.5057 53.2143 25.936C50.005 22.3464 45.1289 20 38.5 20C29.7133 20 23.6708 23.3744 19.8463 28.1218C16.0498 32.8343 14.5 38.8202 14.5 44C14.5 54.2487 18.0973 61.6118 23.6329 66.2289C29.1481 70.829 36.4741 72.6091 43.7796 71.9332C58.3686 70.5836 73.2248 59.3834 73.9992 40.5411L74 40.5206L74 40.5C74 29.2365 70.4468 20.5655 63.9532 14.7224C57.4759 8.89412 48.207 6.00011 37 6.00011C25.7188 6.00011 16.6864 9.81391 10.4809 16.5376C4.28482 23.2509 2 31.1218 1.5 41C1.29758 44.9992 3.5 62.5 3 49C2.5 35.5 6.16949 24.1578 11.9506 17.894C17.7222 11.6406 26.1898 8.00011 37 8.00011C47.8844 8.00011 56.6155 10.8104 62.6154 16.2092C68.5951 21.5898 71.9957 29.6619 72 40.4794Z" style="mix-blend-mode:color-dodge"/>
<path fill-rule="evenodd" clip-rule="evenodd" d="M72 40.4794C71.2644 58.1248 57.376 68.6669 43.5954 69.9417C36.7134 70.5784 29.9456 68.8897 24.914 64.693C19.9027 60.5132 16.5 53.7512 16.5 44C16.5 39.1775 17.9502 33.6633 21.4037 29.3765C24.8292 25.1245 30.2867 22 38.5 22C44.6211 22 48.9325 24.1476 51.7233 27.269C54.5318 30.4105 55.875 34.6234 55.875 38.8567C55.875 43.0939 54.5286 47.2676 52.0671 50.3027C49.6246 53.3143 46.0778 55.2221 41.5487 55.0012C37.6357 54.8103 35.0279 53.508 33.4278 51.8045C31.8221 50.095 31.1481 47.8948 31.2589 45.7502C31.3701 43.5964 32.521 42.3846 34 41C36.5722 39.3773 37.5482 39.0783 40.5 39.5C44 40 43.5954 35 39.5 35C36.2268 35 34.4133 36.2088 32.5 38C30.6082 39.7711 29.3969 43.0263 29.2615 45.6471C29.1257 48.2771 29.9533 51.0267 31.9701 53.1738C33.9924 55.3268 37.1279 56.7879 41.4513 56.9988C46.6722 57.2535 50.8129 55.0242 53.6204 51.5625C56.4089 48.1242 57.875 43.4884 57.875 38.8567C57.875 34.2211 56.4057 29.5057 53.2143 25.936C50.005 22.3464 45.1289 20 38.5 20C29.7133 20 23.6708 23.3744 19.8463 28.1218C16.0498 32.8343 14.5 38.8202 14.5 44C14.5 54.2487 18.0973 61.6118 23.6329 66.2289C29.1481 70.829 36.4741 72.6091 43.7796 71.9332C58.3686 70.5836 73.2248 59.3834 73.9992 40.5411L74 40.5206L74 40.5C74 29.2365 70.4468 20.5655 63.9532 14.7224C57.4759 8.89412 48.207 6.00011 37 6.00011C25.7188 6.00011 16.6864 9.81391 10.4809 16.5376C4.28482 23.2509 2 31.1218 1.5 41C1.29758 44.9992 3.5 62.5 3 49C2.5 35.5 6.16949 24.1578 11.9506 17.894C17.7222 11.6406 26.1898 8.00011 37 8.00011C47.8844 8.00011 56.6155 10.8104 62.6154 16.2092C68.5951 21.5898 71.9957 29.6619 72 40.4794Z" style="mix-blend-mode:overlay"/>
</svg>
