<svg width="80" height="80" viewBox="0 0 80 80" fill="none" xmlns="http://www.w3.org/2000/svg">
<g clip-path="url(#clip0_2441_91481)">
<path d="M56.3736 52.9277L51.8536 48.4077C49.5085 46.0626 48.1985 42.8746 48.2117 39.545C48.2249 36.2154 49.5603 33.017 51.924 30.6533L69.0151 13.5622C69.1235 13.4606 69.2072 13.3356 69.2596 13.1968C69.3119 13.0579 69.3315 12.9092 69.3168 12.762C69.3107 12.4858 69.2244 12.218 69.0684 11.991C68.9125 11.7641 68.6937 11.5879 68.4385 11.4838C68.1834 11.3797 67.9029 11.3521 67.6312 11.4045C67.3594 11.4569 67.1081 11.587 66.9078 11.779L50.4973 28.1895C49.249 29.4315 47.7697 30.4166 46.1442 31.0883C44.5188 31.7601 42.7792 32.1052 41.0254 32.1039C39.2715 32.1026 37.5379 31.7549 35.9242 31.0808C34.3104 30.4066 32.8481 29.4193 31.6214 28.1755L27.5757 24.1298C27.4665 24.0268 27.3346 23.9509 27.1905 23.908C27.0464 23.8652 26.894 23.8566 26.7454 23.8829C26.4691 23.8913 26.2006 23.9797 25.9724 24.1374C25.7443 24.2951 25.5663 24.5154 25.4602 24.7713C25.354 25.0273 25.3243 25.308 25.3745 25.5794C25.4248 25.8507 25.5529 26.101 25.7432 26.2998L29.6202 30.1768C32.1025 32.6591 33.4919 36.0319 33.484 39.5564C33.4761 43.0809 32.0715 46.4696 29.578 48.9802L12.0655 66.4926C11.9585 66.5946 11.8769 66.7202 11.8273 66.8592C11.7776 66.9982 11.7614 67.1468 11.7799 67.2927C11.784 67.5689 11.869 67.8373 12.0242 68.0647C12.1795 68.292 12.3983 68.4684 12.6536 68.5721C12.9089 68.6758 13.1896 68.7022 13.461 68.6481C13.7324 68.594 13.9827 68.4618 14.1809 68.2677L32.0417 50.4069C34.4055 48.0432 37.6039 46.7078 40.9335 46.6946C44.2631 46.6815 47.4511 47.9915 49.7961 50.3365L54.2117 54.752C54.4103 54.9394 54.6592 55.0652 54.9285 55.1143C55.1978 55.1634 55.4762 55.1337 55.7303 55.0288C55.9845 54.924 56.2036 54.7483 56.3614 54.5229C56.5193 54.2975 56.6092 54.032 56.6205 53.7579C56.6468 53.6094 56.6382 53.457 56.5953 53.3129C56.5525 53.1688 56.4766 53.0369 56.3736 52.9277Z" fill="#714595"/>
<path d="M56.3736 52.9277L51.8536 48.4077C49.5085 46.0626 48.1985 42.8746 48.2117 39.545C48.2249 36.2154 49.5603 33.017 51.924 30.6533L69.0151 13.5622C69.1235 13.4606 69.2072 13.3356 69.2596 13.1968C69.3119 13.0579 69.3315 12.9092 69.3168 12.762C69.3107 12.4858 69.2244 12.218 69.0684 11.991C68.9125 11.7641 68.6937 11.5879 68.4385 11.4838C68.1834 11.3797 67.9029 11.3521 67.6312 11.4045C67.3594 11.4569 67.1081 11.587 66.9078 11.779L50.4973 28.1895C49.249 29.4315 47.7697 30.4166 46.1442 31.0883C44.5188 31.7601 42.7792 32.1052 41.0254 32.1039C39.2715 32.1026 37.5379 31.7549 35.9242 31.0808C34.3104 30.4066 32.8481 29.4193 31.6214 28.1755L27.5757 24.1298C27.4665 24.0268 27.3346 23.9509 27.1905 23.908C27.0464 23.8652 26.894 23.8566 26.7454 23.8829C26.4691 23.8913 26.2006 23.9797 25.9724 24.1374C25.7443 24.2951 25.5663 24.5154 25.4602 24.7713C25.354 25.0273 25.3243 25.308 25.3745 25.5794C25.4248 25.8507 25.5529 26.101 25.7432 26.2998L29.6202 30.1768C32.1025 32.6591 33.4919 36.0319 33.484 39.5564C33.4761 43.0809 32.0715 46.4696 29.578 48.9802L12.0655 66.4926C11.9585 66.5946 11.8769 66.7202 11.8273 66.8592C11.7776 66.9982 11.7614 67.1468 11.7799 67.2927C11.784 67.5689 11.869 67.8373 12.0242 68.0647C12.1795 68.292 12.3983 68.4684 12.6536 68.5721C12.9089 68.6758 13.1896 68.7022 13.461 68.6481C13.7324 68.594 13.9827 68.4618 14.1809 68.2677L32.0417 50.4069C34.4055 48.0432 37.6039 46.7078 40.9335 46.6946C44.2631 46.6815 47.4511 47.9915 49.7961 50.3365L54.2117 54.752C54.4103 54.9394 54.6592 55.0652 54.9285 55.1143C55.1978 55.1634 55.4762 55.1337 55.7303 55.0288C55.9845 54.924 56.2036 54.7483 56.3614 54.5229C56.5193 54.2975 56.6092 54.032 56.6205 53.7579C56.6468 53.6094 56.6382 53.457 56.5953 53.3129C56.5525 53.1688 56.4766 53.0369 56.3736 52.9277Z" style="mix-blend-mode:color-dodge"/>
<path d="M56.3736 52.9277L51.8536 48.4077C49.5085 46.0626 48.1985 42.8746 48.2117 39.545C48.2249 36.2154 49.5603 33.017 51.924 30.6533L69.0151 13.5622C69.1235 13.4606 69.2072 13.3356 69.2596 13.1968C69.3119 13.0579 69.3315 12.9092 69.3168 12.762C69.3107 12.4858 69.2244 12.218 69.0684 11.991C68.9125 11.7641 68.6937 11.5879 68.4385 11.4838C68.1834 11.3797 67.9029 11.3521 67.6312 11.4045C67.3594 11.4569 67.1081 11.587 66.9078 11.779L50.4973 28.1895C49.249 29.4315 47.7697 30.4166 46.1442 31.0883C44.5188 31.7601 42.7792 32.1052 41.0254 32.1039C39.2715 32.1026 37.5379 31.7549 35.9242 31.0808C34.3104 30.4066 32.8481 29.4193 31.6214 28.1755L27.5757 24.1298C27.4665 24.0268 27.3346 23.9509 27.1905 23.908C27.0464 23.8652 26.894 23.8566 26.7454 23.8829C26.4691 23.8913 26.2006 23.9797 25.9724 24.1374C25.7443 24.2951 25.5663 24.5154 25.4602 24.7713C25.354 25.0273 25.3243 25.308 25.3745 25.5794C25.4248 25.8507 25.5529 26.101 25.7432 26.2998L29.6202 30.1768C32.1025 32.6591 33.4919 36.0319 33.484 39.5564C33.4761 43.0809 32.0715 46.4696 29.578 48.9802L12.0655 66.4926C11.9585 66.5946 11.8769 66.7202 11.8273 66.8592C11.7776 66.9982 11.7614 67.1468 11.7799 67.2927C11.784 67.5689 11.869 67.8373 12.0242 68.0647C12.1795 68.292 12.3983 68.4684 12.6536 68.5721C12.9089 68.6758 13.1896 68.7022 13.461 68.6481C13.7324 68.594 13.9827 68.4618 14.1809 68.2677L32.0417 50.4069C34.4055 48.0432 37.6039 46.7078 40.9335 46.6946C44.2631 46.6815 47.4511 47.9915 49.7961 50.3365L54.2117 54.752C54.4103 54.9394 54.6592 55.0652 54.9285 55.1143C55.1978 55.1634 55.4762 55.1337 55.7303 55.0288C55.9845 54.924 56.2036 54.7483 56.3614 54.5229C56.5193 54.2975 56.6092 54.032 56.6205 53.7579C56.6468 53.6094 56.6382 53.457 56.5953 53.3129C56.5525 53.1688 56.4766 53.0369 56.3736 52.9277Z" style="mix-blend-mode:overlay"/>
<path d="M51.5016 20.1051C46.501 26.5 40.001 26.9998 33.5014 20.1051C39.5019 31.105 49.0015 26.4998 51.5016 20.1051Z" fill="#EC6C0C"/>
<path d="M51.5016 20.1051C46.501 26.5 40.001 26.9998 33.5014 20.1051C39.5019 31.105 49.0015 26.4998 51.5016 20.1051Z" style="mix-blend-mode:color-dodge"/>
<path d="M51.5016 20.1051C46.501 26.5 40.001 26.9998 33.5014 20.1051C39.5019 31.105 49.0015 26.4998 51.5016 20.1051Z" style="mix-blend-mode:overlay"/>
<path d="M18.4992 30.4997C24.2401 36.9997 24.499 43.4998 14.9989 50.9998C26.4998 44.4998 26.9986 34.9998 18.4992 30.4997Z" fill="#EC6C0C"/>
<path d="M18.4992 30.4997C24.2401 36.9997 24.499 43.4998 14.9989 50.9998C26.4998 44.4998 26.9986 34.9998 18.4992 30.4997Z" style="mix-blend-mode:color-dodge"/>
<path d="M18.4992 30.4997C24.2401 36.9997 24.499 43.4998 14.9989 50.9998C26.4998 44.4998 26.9986 34.9998 18.4992 30.4997Z" style="mix-blend-mode:overlay"/>
<path d="M30.5028 63.4999C37.5029 55.9484 43.5029 54 50.0032 63.0001C43.5029 49.5 34.0025 56 30.5028 63.4999Z" fill="#EC6C0C"/>
<path d="M30.5028 63.4999C37.5029 55.9484 43.5029 54 50.0032 63.0001C43.5029 49.5 34.0025 56 30.5028 63.4999Z" style="mix-blend-mode:color-dodge"/>
<path d="M30.5028 63.4999C37.5029 55.9484 43.5029 54 50.0032 63.0001C43.5029 49.5 34.0025 56 30.5028 63.4999Z" style="mix-blend-mode:overlay"/>
<path d="M25.5019 76.0002C35.502 66.223 43.5016 62.5002 58.5018 74.0004C43.5013 56.4933 29.001 68.0003 25.5019 76.0002Z" fill="#EC6C0C"/>
<path d="M25.5019 76.0002C35.502 66.223 43.5016 62.5002 58.5018 74.0004C43.5013 56.4933 29.001 68.0003 25.5019 76.0002Z" style="mix-blend-mode:color-dodge"/>
<path d="M25.5019 76.0002C35.502 66.223 43.5016 62.5002 58.5018 74.0004C43.5013 56.4933 29.001 68.0003 25.5019 76.0002Z" style="mix-blend-mode:overlay"/>
<path d="M73.9713 52.1683C70.9779 49.2756 57.4971 37.5 74.696 23.1158C56.013 36.6236 66.2867 48.0222 73.9713 52.1683Z" fill="#EC6C0C"/>
<path d="M73.9713 52.1683C70.9779 49.2756 57.4971 37.5 74.696 23.1158C56.013 36.6236 66.2867 48.0222 73.9713 52.1683Z" style="mix-blend-mode:color-dodge"/>
<path d="M73.9713 52.1683C70.9779 49.2756 57.4971 37.5 74.696 23.1158C56.013 36.6236 66.2867 48.0222 73.9713 52.1683Z" style="mix-blend-mode:overlay"/>
<path d="M7.93916 26.7482C13.9971 37.0002 17.9971 43.0002 1.74273 55.1414C22.6399 45.4037 14.7029 32.2705 7.93916 26.7482Z" fill="#EC6C0C"/>
<path d="M7.93916 26.7482C13.9971 37.0002 17.9971 43.0002 1.74273 55.1414C22.6399 45.4037 14.7029 32.2705 7.93916 26.7482Z" style="mix-blend-mode:color-dodge"/>
<path d="M7.93916 26.7482C13.9971 37.0002 17.9971 43.0002 1.74273 55.1414C22.6399 45.4037 14.7029 32.2705 7.93916 26.7482Z" style="mix-blend-mode:overlay"/>
<path d="M55.4746 7.99156C47.5039 17.4141 41.5356 21.2385 27.1299 10.4099C41.415 27.107 51.8992 15.902 55.4746 7.99156Z" fill="#EC6C0C"/>
<path d="M55.4746 7.99156C47.5039 17.4141 41.5356 21.2385 27.1299 10.4099C41.415 27.107 51.8992 15.902 55.4746 7.99156Z" style="mix-blend-mode:color-dodge"/>
<path d="M55.4746 7.99156C47.5039 17.4141 41.5356 21.2385 27.1299 10.4099C41.415 27.107 51.8992 15.902 55.4746 7.99156Z" style="mix-blend-mode:overlay"/>
<path d="M61.4018 46.4213C58.4672 43.469 51.999 37.0002 62.9987 29.5001C49.3864 36.11 55.6594 44.2388 61.4018 46.4213Z" fill="#EC6C0C"/>
<path d="M61.4018 46.4213C58.4672 43.469 51.999 37.0002 62.9987 29.5001C49.3864 36.11 55.6594 44.2388 61.4018 46.4213Z" style="mix-blend-mode:color-dodge"/>
<path d="M61.4018 46.4213C58.4672 43.469 51.999 37.0002 62.9987 29.5001C49.3864 36.11 55.6594 44.2388 61.4018 46.4213Z" style="mix-blend-mode:overlay"/>
</g>
<defs>
<clipPath id="clip0_2441_91481">
<rect width="80" height="80" fill="white"/>
</clipPath>
</defs>
</svg>
