<svg width="334" height="80" viewBox="0 0 334 80" fill="none" xmlns="http://www.w3.org/2000/svg">
<mask id="path-2-inside-1_2596_108323" fill="white">
<path fill-rule="evenodd" clip-rule="evenodd" d="M0 14.3996L0 65.5996H0.00156212C7.95446 65.5996 14.4016 72.0467 14.4016 79.9996V80H314V0H14.4016C14.4014 7.95272 7.95433 14.3996 0.00156212 14.3996C0.00104141 14.3996 0.0005207 14.3996 0 14.3996Z"/>
</mask>
<path fill-rule="evenodd" clip-rule="evenodd" d="M0 14.3996L0 65.5996H0.00156212C7.95446 65.5996 14.4016 72.0467 14.4016 79.9996V80H314V0H14.4016C14.4014 7.95272 7.95433 14.3996 0.00156212 14.3996C0.00104141 14.3996 0.0005207 14.3996 0 14.3996Z" fill="#EBE6E1"/>
<path d="M0 14.3996V12.7996H-1.6V14.3996H0ZM0 65.5996H-1.6V67.1996H0V65.5996ZM14.4016 80H12.8016V81.6H14.4016V80ZM314 80V81.6H315.6V80H314ZM314 0H315.6V-1.6H314V0ZM14.4016 0V-1.6H12.8016L12.8016 -4.25949e-05L14.4016 0ZM-1.6 14.3996V65.5996H1.6V14.3996H-1.6ZM0 67.1996H0.00156212V63.9996H0V67.1996ZM0.00156212 67.1996C7.07081 67.1996 12.8016 72.9304 12.8016 79.9996H16.0016C16.0016 71.163 8.83812 63.9996 0.00156212 63.9996V67.1996ZM12.8016 79.9996V80H16.0016V79.9996H12.8016ZM14.4016 81.6H314V78.4H14.4016V81.6ZM315.6 80V0H312.4V80H315.6ZM314 -1.6H14.4016V1.6H314V-1.6ZM12.8016 -4.25949e-05C12.8014 7.06904 7.07069 12.7996 0.00156212 12.7996V15.9996C8.83797 15.9996 16.0013 8.8364 16.0016 4.25949e-05L12.8016 -4.25949e-05ZM0.00156212 12.7996C0.0015611 12.7996 0.00156008 12.7996 0.00155907 12.7996C0.00155805 12.7996 0.00155703 12.7996 0.00155602 12.7996C0.001555 12.7996 0.00155398 12.7996 0.00155297 12.7996C0.00155195 12.7996 0.00155093 12.7996 0.00154991 12.7996C0.0015489 12.7996 0.00154788 12.7996 0.00154686 12.7996C0.00154585 12.7996 0.00154483 12.7996 0.00154381 12.7996C0.0015428 12.7996 0.00154178 12.7996 0.00154076 12.7996C0.00153974 12.7996 0.00153873 12.7996 0.00153771 12.7996C0.00153669 12.7996 0.00153568 12.7996 0.00153466 12.7996C0.00153364 12.7996 0.00153263 12.7996 0.00153161 12.7996C0.00153059 12.7996 0.00152957 12.7996 0.00152856 12.7996C0.00152754 12.7996 0.00152652 12.7996 0.00152551 12.7996C0.00152449 12.7996 0.00152347 12.7996 0.00152245 12.7996C0.00152144 12.7996 0.00152042 12.7996 0.0015194 12.7996C0.00151839 12.7996 0.00151737 12.7996 0.00151635 12.7996C0.00151534 12.7996 0.00151432 12.7996 0.0015133 12.7996C0.00151228 12.7996 0.00151127 12.7996 0.00151025 12.7996C0.00150923 12.7996 0.00150822 12.7996 0.0015072 12.7996C0.00150618 12.7996 0.00150517 12.7996 0.00150415 12.7996C0.00150313 12.7996 0.00150211 12.7996 0.0015011 12.7996C0.00150008 12.7996 0.00149906 12.7996 0.00149805 12.7996C0.00149703 12.7996 0.00149601 12.7996 0.001495 12.7996C0.00149398 12.7996 0.00149296 12.7996 0.00149194 12.7996C0.00149093 12.7996 0.00148991 12.7996 0.00148889 12.7996C0.00148788 12.7996 0.00148686 12.7996 0.00148584 12.7996C0.00148483 12.7996 0.00148381 12.7996 0.00148279 12.7996C0.00148177 12.7996 0.00148076 12.7996 0.00147974 12.7996C0.00147872 12.7996 0.00147771 12.7996 0.00147669 12.7996C0.00147567 12.7996 0.00147466 12.7996 0.00147364 12.7996C0.00147262 12.7996 0.0014716 12.7996 0.00147059 12.7996C0.00146957 12.7996 0.00146855 12.7996 0.00146754 12.7996C0.00146652 12.7996 0.0014655 12.7996 0.00146448 12.7996C0.00146347 12.7996 0.00146245 12.7996 0.00146143 12.7996C0.00146042 12.7996 0.0014594 12.7996 0.00145838 12.7996C0.00145737 12.7996 0.00145635 12.7996 0.00145533 12.7996C0.00145431 12.7996 0.0014533 12.7996 0.00145228 12.7996C0.00145126 12.7996 0.00145025 12.7996 0.00144923 12.7996C0.00144821 12.7996 0.0014472 12.7996 0.00144618 12.7996C0.00144516 12.7996 0.00144414 12.7996 0.00144313 12.7996C0.00144211 12.7996 0.00144109 12.7996 0.00144008 12.7996C0.00143906 12.7996 0.00143804 12.7996 0.00143703 12.7996C0.00143601 12.7996 0.00143499 12.7996 0.00143397 12.7996C0.00143296 12.7996 0.00143194 12.7996 0.00143092 12.7996C0.00142991 12.7996 0.00142889 12.7996 0.00142787 12.7996C0.00142686 12.7996 0.00142584 12.7996 0.00142482 12.7996C0.0014238 12.7996 0.00142279 12.7996 0.00142177 12.7996C0.00142075 12.7996 0.00141974 12.7996 0.00141872 12.7996C0.0014177 12.7996 0.00141669 12.7996 0.00141567 12.7996C0.00141465 12.7996 0.00141363 12.7996 0.00141262 12.7996C0.0014116 12.7996 0.00141058 12.7996 0.00140957 12.7996C0.00140855 12.7996 0.00140753 12.7996 0.00140652 12.7996C0.0014055 12.7996 0.00140448 12.7996 0.00140346 12.7996C0.00140245 12.7996 0.00140143 12.7996 0.00140041 12.7996C0.0013994 12.7996 0.00139838 12.7996 0.00139736 12.7996C0.00139634 12.7996 0.00139533 12.7996 0.00139431 12.7996C0.00139329 12.7996 0.00139228 12.7996 0.00139126 12.7996C0.00139024 12.7996 0.00138923 12.7996 0.00138821 12.7996C0.00138719 12.7996 0.00138617 12.7996 0.00138516 12.7996C0.00138414 12.7996 0.00138312 12.7996 0.00138211 12.7996C0.00138109 12.7996 0.00138007 12.7996 0.00137906 12.7996C0.00137804 12.7996 0.00137702 12.7996 0.001376 12.7996C0.00137499 12.7996 0.00137397 12.7996 0.00137295 12.7996C0.00137194 12.7996 0.00137092 12.7996 0.0013699 12.7996C0.00136889 12.7996 0.00136787 12.7996 0.00136685 12.7996C0.00136583 12.7996 0.00136482 12.7996 0.0013638 12.7996C0.00136278 12.7996 0.00136177 12.7996 0.00136075 12.7996C0.00135973 12.7996 0.00135872 12.7996 0.0013577 12.7996C0.00135668 12.7996 0.00135566 12.7996 0.00135465 12.7996C0.00135363 12.7996 0.00135261 12.7996 0.0013516 12.7996C0.00135058 12.7996 0.00134956 12.7996 0.00134855 12.7996C0.00134753 12.7996 0.00134651 12.7996 0.00134549 12.7996C0.00134448 12.7996 0.00134346 12.7996 0.00134244 12.7996C0.00134143 12.7996 0.00134041 12.7996 0.00133939 12.7996C0.00133838 12.7996 0.00133736 12.7996 0.00133634 12.7996C0.00133532 12.7996 0.00133431 12.7996 0.00133329 12.7996C0.00133227 12.7996 0.00133126 12.7996 0.00133024 12.7996C0.00132922 12.7996 0.00132821 12.7996 0.00132719 12.7996C0.00132617 12.7996 0.00132515 12.7996 0.00132414 12.7996C0.00132312 12.7996 0.0013221 12.7996 0.00132109 12.7996C0.00132007 12.7996 0.00131905 12.7996 0.00131803 12.7996C0.00131702 12.7996 0.001316 12.7996 0.00131498 12.7996C0.00131397 12.7996 0.00131295 12.7996 0.00131193 12.7996C0.00131092 12.7996 0.0013099 12.7996 0.00130888 12.7996C0.00130786 12.7996 0.00130685 12.7996 0.00130583 12.7996C0.00130481 12.7996 0.0013038 12.7996 0.00130278 12.7996C0.00130176 12.7996 0.00130075 12.7996 0.00129973 12.7996C0.00129871 12.7996 0.00129769 12.7996 0.00129668 12.7996C0.00129566 12.7996 0.00129464 12.7996 0.00129363 12.7996C0.00129261 12.7996 0.00129159 12.7996 0.00129058 12.7996C0.00128956 12.7996 0.00128854 12.7996 0.00128752 12.7996C0.00128651 12.7996 0.00128549 12.7996 0.00128447 12.7996C0.00128346 12.7996 0.00128244 12.7996 0.00128142 12.7996C0.00128041 12.7996 0.00127939 12.7996 0.00127837 12.7996C0.00127735 12.7996 0.00127634 12.7996 0.00127532 12.7996C0.0012743 12.7996 0.00127329 12.7996 0.00127227 12.7996C0.00127125 12.7996 0.00127024 12.7996 0.00126922 12.7996C0.0012682 12.7996 0.00126718 12.7996 0.00126617 12.7996C0.00126515 12.7996 0.00126413 12.7996 0.00126312 12.7996C0.0012621 12.7996 0.00126108 12.7996 0.00126007 12.7996C0.00125905 12.7996 0.00125803 12.7996 0.00125701 12.7996C0.001256 12.7996 0.00125498 12.7996 0.00125396 12.7996C0.00125295 12.7996 0.00125193 12.7996 0.00125091 12.7996C0.0012499 12.7996 0.00124888 12.7996 0.00124786 12.7996C0.00124684 12.7996 0.00124583 12.7996 0.00124481 12.7996C0.00124379 12.7996 0.00124278 12.7996 0.00124176 12.7996C0.00124074 12.7996 0.00123973 12.7996 0.00123871 12.7996C0.00123769 12.7996 0.00123667 12.7996 0.00123566 12.7996C0.00123464 12.7996 0.00123362 12.7996 0.00123261 12.7996C0.00123159 12.7996 0.00123057 12.7996 0.00122955 12.7996C0.00122854 12.7996 0.00122752 12.7996 0.0012265 12.7996C0.00122549 12.7996 0.00122447 12.7996 0.00122345 12.7996C0.00122244 12.7996 0.00122142 12.7996 0.0012204 12.7996C0.00121938 12.7996 0.00121837 12.7996 0.00121735 12.7996C0.00121633 12.7996 0.00121532 12.7996 0.0012143 12.7996C0.00121328 12.7996 0.00121227 12.7996 0.00121125 12.7996C0.00121023 12.7996 0.00120921 12.7996 0.0012082 12.7996C0.00120718 12.7996 0.00120616 12.7996 0.00120515 12.7996C0.00120413 12.7996 0.00120311 12.7996 0.0012021 12.7996C0.00120108 12.7996 0.00120006 12.7996 0.00119904 12.7996C0.00119803 12.7996 0.00119701 12.7996 0.00119599 12.7996C0.00119498 12.7996 0.00119396 12.7996 0.00119294 12.7996C0.00119193 12.7996 0.00119091 12.7996 0.00118989 12.7996C0.00118887 12.7996 0.00118786 12.7996 0.00118684 12.7996C0.00118582 12.7996 0.00118481 12.7996 0.00118379 12.7996C0.00118277 12.7996 0.00118176 12.7996 0.00118074 12.7996C0.00117972 12.7996 0.0011787 12.7996 0.00117769 12.7996C0.00117667 12.7996 0.00117565 12.7996 0.00117464 12.7996C0.00117362 12.7996 0.0011726 12.7996 0.00117159 12.7996C0.00117057 12.7996 0.00116955 12.7996 0.00116853 12.7996C0.00116752 12.7996 0.0011665 12.7996 0.00116548 12.7996C0.00116447 12.7996 0.00116345 12.7996 0.00116243 12.7996C0.00116142 12.7996 0.0011604 12.7996 0.00115938 12.7996C0.00115836 12.7996 0.00115735 12.7996 0.00115633 12.7996C0.00115531 12.7996 0.0011543 12.7996 0.00115328 12.7996C0.00115226 12.7996 0.00115125 12.7996 0.00115023 12.7996C0.00114921 12.7996 0.00114819 12.7996 0.00114718 12.7996C0.00114616 12.7996 0.00114514 12.7996 0.00114413 12.7996C0.00114311 12.7996 0.00114209 12.7996 0.00114107 12.7996C0.00114006 12.7996 0.00113904 12.7996 0.00113802 12.7996C0.00113701 12.7996 0.00113599 12.7996 0.00113497 12.7996C0.00113396 12.7996 0.00113294 12.7996 0.00113192 12.7996C0.0011309 12.7996 0.00112989 12.7996 0.00112887 12.7996C0.00112785 12.7996 0.00112684 12.7996 0.00112582 12.7996C0.0011248 12.7996 0.00112379 12.7996 0.00112277 12.7996C0.00112175 12.7996 0.00112073 12.7996 0.00111972 12.7996C0.0011187 12.7996 0.00111768 12.7996 0.00111667 12.7996C0.00111565 12.7996 0.00111463 12.7996 0.00111362 12.7996C0.0011126 12.7996 0.00111158 12.7996 0.00111056 12.7996C0.00110955 12.7996 0.00110853 12.7996 0.00110751 12.7996C0.0011065 12.7996 0.00110548 12.7996 0.00110446 12.7996C0.00110345 12.7996 0.00110243 12.7996 0.00110141 12.7996C0.00110039 12.7996 0.00109938 12.7996 0.00109836 12.7996C0.00109734 12.7996 0.00109633 12.7996 0.00109531 12.7996C0.00109429 12.7996 0.00109328 12.7996 0.00109226 12.7996C0.00109124 12.7996 0.00109022 12.7996 0.00108921 12.7996C0.00108819 12.7996 0.00108717 12.7996 0.00108616 12.7996C0.00108514 12.7996 0.00108412 12.7996 0.00108311 12.7996C0.00108209 12.7996 0.00108107 12.7996 0.00108005 12.7996C0.00107904 12.7996 0.00107802 12.7996 0.001077 12.7996C0.00107599 12.7996 0.00107497 12.7996 0.00107395 12.7996C0.00107294 12.7996 0.00107192 12.7996 0.0010709 12.7996C0.00106988 12.7996 0.00106887 12.7996 0.00106785 12.7996C0.00106683 12.7996 0.00106582 12.7996 0.0010648 12.7996C0.00106378 12.7996 0.00106277 12.7996 0.00106175 12.7996C0.00106073 12.7996 0.00105971 12.7996 0.0010587 12.7996C0.00105768 12.7996 0.00105666 12.7996 0.00105565 12.7996C0.00105463 12.7996 0.00105361 12.7996 0.0010526 12.7996C0.00105158 12.7996 0.00105056 12.7996 0.00104954 12.7996C0.00104853 12.7996 0.00104751 12.7996 0.00104649 12.7996C0.00104548 12.7996 0.00104446 12.7996 0.00104344 12.7996C0.00104243 12.7996 0.00104141 12.7996 0.00104039 12.7996C0.00103937 12.7996 0.00103836 12.7996 0.00103734 12.7996C0.00103632 12.7996 0.00103531 12.7996 0.00103429 12.7996C0.00103327 12.7996 0.00103226 12.7996 0.00103124 12.7996C0.00103022 12.7996 0.0010292 12.7996 0.00102819 12.7996C0.00102717 12.7996 0.00102615 12.7996 0.00102514 12.7996C0.00102412 12.7996 0.0010231 12.7996 0.00102208 12.7996C0.00102107 12.7996 0.00102005 12.7996 0.00101903 12.7996C0.00101802 12.7996 0.001017 12.7996 0.00101598 12.7996C0.00101497 12.7996 0.00101395 12.7996 0.00101293 12.7996C0.00101191 12.7996 0.0010109 12.7996 0.00100988 12.7996C0.00100886 12.7996 0.00100785 12.7996 0.00100683 12.7996C0.00100581 12.7996 0.0010048 12.7996 0.00100378 12.7996C0.00100276 12.7996 0.00100174 12.7996 0.00100073 12.7996C0.000999711 12.7996 0.000998694 12.7996 0.000997677 12.7996C0.00099666 12.7996 0.000995643 12.7996 0.000994626 12.7996C0.000993609 12.7996 0.000992592 12.7996 0.000991575 12.7996C0.000990558 12.7996 0.000989541 12.7996 0.000988524 12.7996C0.000987507 12.7996 0.00098649 12.7996 0.000985473 12.7996C0.000984456 12.7996 0.000983439 12.7996 0.000982422 12.7996C0.000981405 12.7996 0.000980388 12.7996 0.000979371 12.7996C0.000978354 12.7996 0.000977337 12.7996 0.00097632 12.7996C0.000975303 12.7996 0.000974286 12.7996 0.000973269 12.7996C0.000972252 12.7996 0.000971235 12.7996 0.000970218 12.7996C0.000969201 12.7996 0.000968184 12.7996 0.000967167 12.7996C0.000966149 12.7996 0.000965132 12.7996 0.000964115 12.7996C0.000963098 12.7996 0.000962081 12.7996 0.000961064 12.7996C0.000960047 12.7996 0.00095903 12.7996 0.000958013 12.7996C0.000956996 12.7996 0.000955979 12.7996 0.000954962 12.7996C0.000953945 12.7996 0.000952928 12.7996 0.000951911 12.7996C0.000950894 12.7996 0.000949877 12.7996 0.00094886 12.7996C0.000947843 12.7996 0.000946826 12.7996 0.000945809 12.7996C0.000944792 12.7996 0.000943775 12.7996 0.000942758 12.7996C0.000941741 12.7996 0.000940724 12.7996 0.000939707 12.7996C0.00093869 12.7996 0.000937673 12.7996 0.000936656 12.7996C0.000935639 12.7996 0.000934622 12.7996 0.000933605 12.7996C0.000932588 12.7996 0.000931571 12.7996 0.000930554 12.7996C0.000929537 12.7996 0.00092852 12.7996 0.000927503 12.7996C0.000926486 12.7996 0.000925469 12.7996 0.000924452 12.7996C0.000923435 12.7996 0.000922418 12.7996 0.000921401 12.7996C0.000920384 12.7996 0.000919367 12.7996 0.00091835 12.7996C0.000917333 12.7996 0.000916316 12.7996 0.000915299 12.7996C0.000914282 12.7996 0.000913265 12.7996 0.000912248 12.7996C0.000911231 12.7996 0.000910214 12.7996 0.000909197 12.7996C0.00090818 12.7996 0.000907163 12.7996 0.000906146 12.7996C0.000905129 12.7996 0.000904112 12.7996 0.000903095 12.7996C0.000902078 12.7996 0.000901061 12.7996 0.000900044 12.7996C0.000899027 12.7996 0.00089801 12.7996 0.000896993 12.7996C0.000895976 12.7996 0.000894959 12.7996 0.000893942 12.7996C0.000892925 12.7996 0.000891908 12.7996 0.000890891 12.7996C0.000889874 12.7996 0.000888857 12.7996 0.00088784 12.7996C0.000886823 12.7996 0.000885806 12.7996 0.000884789 12.7996C0.000883772 12.7996 0.000882755 12.7996 0.000881738 12.7996C0.000880721 12.7996 0.000879704 12.7996 0.000878687 12.7996C0.00087767 12.7996 0.000876653 12.7996 0.000875636 12.7996C0.000874619 12.7996 0.000873602 12.7996 0.000872585 12.7996C0.000871568 12.7996 0.000870551 12.7996 0.000869534 12.7996C0.000868517 12.7996 0.0008675 12.7996 0.000866483 12.7996C0.000865466 12.7996 0.000864449 12.7996 0.000863432 12.7996C0.000862415 12.7996 0.000861398 12.7996 0.000860381 12.7996C0.000859364 12.7996 0.000858347 12.7996 0.00085733 12.7996C0.000856313 12.7996 0.000855296 12.7996 0.000854279 12.7996C0.000853262 12.7996 0.000852245 12.7996 0.000851228 12.7996C0.000850211 12.7996 0.000849194 12.7996 0.000848177 12.7996C0.00084716 12.7996 0.000846143 12.7996 0.000845126 12.7996C0.000844109 12.7996 0.000843092 12.7996 0.000842075 12.7996C0.000841058 12.7996 0.000840041 12.7996 0.000839024 12.7996C0.000838007 12.7996 0.00083699 12.7996 0.000835973 12.7996C0.000834956 12.7996 0.000833939 12.7996 0.000832922 12.7996C0.000831905 12.7996 0.000830888 12.7996 0.000829871 12.7996C0.000828854 12.7996 0.000827837 12.7996 0.00082682 12.7996C0.000825803 12.7996 0.000824786 12.7996 0.000823769 12.7996C0.000822752 12.7996 0.000821735 12.7996 0.000820718 12.7996C0.000819701 12.7996 0.000818684 12.7996 0.000817667 12.7996C0.00081665 12.7996 0.000815633 12.7996 0.000814616 12.7996C0.000813599 12.7996 0.000812582 12.7996 0.000811565 12.7996C0.000810548 12.7996 0.000809531 12.7996 0.000808514 12.7996C0.000807497 12.7996 0.00080648 12.7996 0.000805463 12.7996C0.000804446 12.7996 0.000803429 12.7996 0.000802412 12.7996C0.000801395 12.7996 0.000800378 12.7996 0.000799361 12.7996C0.000798344 12.7996 0.000797327 12.7996 0.000796309 12.7996C0.000795292 12.7996 0.000794275 12.7996 0.000793258 12.7996C0.000792241 12.7996 0.000791224 12.7996 0.000790207 12.7996C0.00078919 12.7996 0.000788173 12.7996 0.000787156 12.7996C0.000786139 12.7996 0.000785122 12.7996 0.000784105 12.7996C0.000783088 12.7996 0.000782071 12.7996 0.000781054 12.7996C0.000780037 12.7996 0.00077902 12.7996 0.000778003 12.7996C0.000776986 12.7996 0.000775969 12.7996 0.000774952 12.7996C0.000773935 12.7996 0.000772918 12.7996 0.000771901 12.7996C0.000770884 12.7996 0.000769867 12.7996 0.00076885 12.7996C0.000767833 12.7996 0.000766816 12.7996 0.000765799 12.7996C0.000764782 12.7996 0.000763765 12.7996 0.000762748 12.7996C0.000761731 12.7996 0.000760714 12.7996 0.000759697 12.7996C0.00075868 12.7996 0.000757663 12.7996 0.000756646 12.7996C0.000755629 12.7996 0.000754612 12.7996 0.000753595 12.7996C0.000752578 12.7996 0.000751561 12.7996 0.000750544 12.7996C0.000749527 12.7996 0.00074851 12.7996 0.000747493 12.7996C0.000746476 12.7996 0.000745459 12.7996 0.000744442 12.7996C0.000743425 12.7996 0.000742408 12.7996 0.000741391 12.7996C0.000740374 12.7996 0.000739357 12.7996 0.00073834 12.7996C0.000737323 12.7996 0.000736306 12.7996 0.000735289 12.7996C0.000734272 12.7996 0.000733255 12.7996 0.000732238 12.7996C0.000731221 12.7996 0.000730204 12.7996 0.000729187 12.7996C0.00072817 12.7996 0.000727153 12.7996 0.000726136 12.7996C0.000725119 12.7996 0.000724102 12.7996 0.000723085 12.7996C0.000722068 12.7996 0.000721051 12.7996 0.000720034 12.7996C0.000719017 12.7996 0.000718 12.7996 0.000716983 12.7996C0.000715966 12.7996 0.000714949 12.7996 0.000713932 12.7996C0.000712915 12.7996 0.000711898 12.7996 0.000710881 12.7996C0.000709864 12.7996 0.000708847 12.7996 0.00070783 12.7996C0.000706813 12.7996 0.000705796 12.7996 0.000704779 12.7996C0.000703762 12.7996 0.000702745 12.7996 0.000701728 12.7996C0.000700711 12.7996 0.000699694 12.7996 0.000698677 12.7996C0.00069766 12.7996 0.000696643 12.7996 0.000695626 12.7996C0.000694609 12.7996 0.000693592 12.7996 0.000692575 12.7996C0.000691558 12.7996 0.000690541 12.7996 0.000689524 12.7996C0.000688507 12.7996 0.00068749 12.7996 0.000686473 12.7996C0.000685456 12.7996 0.000684439 12.7996 0.000683422 12.7996C0.000682405 12.7996 0.000681388 12.7996 0.000680371 12.7996C0.000679354 12.7996 0.000678337 12.7996 0.00067732 12.7996C0.000676303 12.7996 0.000675286 12.7996 0.000674269 12.7996C0.000673252 12.7996 0.000672235 12.7996 0.000671218 12.7996C0.000670201 12.7996 0.000669184 12.7996 0.000668167 12.7996C0.00066715 12.7996 0.000666133 12.7996 0.000665116 12.7996C0.000664099 12.7996 0.000663082 12.7996 0.000662065 12.7996C0.000661048 12.7996 0.000660031 12.7996 0.000659014 12.7996C0.000657997 12.7996 0.00065698 12.7996 0.000655963 12.7996C0.000654946 12.7996 0.000653929 12.7996 0.000652912 12.7996C0.000651895 12.7996 0.000650878 12.7996 0.000649861 12.7996C0.000648844 12.7996 0.000647827 12.7996 0.00064681 12.7996C0.000645793 12.7996 0.000644776 12.7996 0.000643759 12.7996C0.000642742 12.7996 0.000641725 12.7996 0.000640708 12.7996C0.000639691 12.7996 0.000638674 12.7996 0.000637657 12.7996C0.00063664 12.7996 0.000635623 12.7996 0.000634606 12.7996C0.000633589 12.7996 0.000632572 12.7996 0.000631555 12.7996C0.000630538 12.7996 0.000629521 12.7996 0.000628504 12.7996C0.000627487 12.7996 0.00062647 12.7996 0.000625453 12.7996C0.000624436 12.7996 0.000623419 12.7996 0.000622402 12.7996C0.000621385 12.7996 0.000620368 12.7996 0.000619351 12.7996C0.000618334 12.7996 0.000617317 12.7996 0.0006163 12.7996C0.000615283 12.7996 0.000614266 12.7996 0.000613249 12.7996C0.000612232 12.7996 0.000611215 12.7996 0.000610198 12.7996C0.000609181 12.7996 0.000608164 12.7996 0.000607147 12.7996C0.00060613 12.7996 0.000605113 12.7996 0.000604096 12.7996C0.000603079 12.7996 0.000602062 12.7996 0.000601045 12.7996C0.000600028 12.7996 0.000599011 12.7996 0.000597994 12.7996C0.000596977 12.7996 0.00059596 12.7996 0.000594943 12.7996C0.000593926 12.7996 0.000592909 12.7996 0.000591892 12.7996C0.000590875 12.7996 0.000589858 12.7996 0.000588841 12.7996C0.000587824 12.7996 0.000586807 12.7996 0.00058579 12.7996C0.000584773 12.7996 0.000583756 12.7996 0.000582739 12.7996C0.000581722 12.7996 0.000580705 12.7996 0.000579688 12.7996C0.000578671 12.7996 0.000577654 12.7996 0.000576637 12.7996C0.00057562 12.7996 0.000574603 12.7996 0.000573586 12.7996C0.000572569 12.7996 0.000571552 12.7996 0.000570535 12.7996C0.000569518 12.7996 0.000568501 12.7996 0.000567484 12.7996C0.000566467 12.7996 0.00056545 12.7996 0.000564433 12.7996C0.000563416 12.7996 0.000562399 12.7996 0.000561382 12.7996C0.000560365 12.7996 0.000559348 12.7996 0.000558331 12.7996C0.000557314 12.7996 0.000556297 12.7996 0.00055528 12.7996C0.000554263 12.7996 0.000553246 12.7996 0.000552229 12.7996C0.000551212 12.7996 0.000550195 12.7996 0.000549178 12.7996C0.000548161 12.7996 0.000547144 12.7996 0.000546127 12.7996C0.00054511 12.7996 0.000544093 12.7996 0.000543076 12.7996C0.000542059 12.7996 0.000541042 12.7996 0.000540025 12.7996C0.000539008 12.7996 0.000537991 12.7996 0.000536974 12.7996C0.000535957 12.7996 0.00053494 12.7996 0.000533923 12.7996C0.000532906 12.7996 0.000531889 12.7996 0.000530872 12.7996C0.000529855 12.7996 0.000528838 12.7996 0.000527821 12.7996C0.000526804 12.7996 0.000525787 12.7996 0.00052477 12.7996C0.000523753 12.7996 0.000522736 12.7996 0.000521719 12.7996C0.000520702 12.7996 0.000519685 12.7996 0.000518668 12.7996C0.000517651 12.7996 0.000516634 12.7996 0.000515617 12.7996C0.0005146 12.7996 0.000513583 12.7996 0.000512566 12.7996C0.000511549 12.7996 0.000510532 12.7996 0.000509515 12.7996C0.000508498 12.7996 0.000507481 12.7996 0.000506464 12.7996C0.000505447 12.7996 0.00050443 12.7996 0.000503413 12.7996C0.000502396 12.7996 0.000501379 12.7996 0.000500362 12.7996C0.000499345 12.7996 0.000498328 12.7996 0.000497311 12.7996C0.000496294 12.7996 0.000495277 12.7996 0.00049426 12.7996C0.000493243 12.7996 0.000492226 12.7996 0.000491209 12.7996C0.000490192 12.7996 0.000489175 12.7996 0.000488158 12.7996C0.000487141 12.7996 0.000486124 12.7996 0.000485107 12.7996C0.00048409 12.7996 0.000483073 12.7996 0.000482056 12.7996C0.000481039 12.7996 0.000480022 12.7996 0.000479005 12.7996C0.000477988 12.7996 0.000476971 12.7996 0.000475954 12.7996C0.000474937 12.7996 0.00047392 12.7996 0.000472903 12.7996C0.000471886 12.7996 0.000470869 12.7996 0.000469852 12.7996C0.000468835 12.7996 0.000467818 12.7996 0.000466801 12.7996C0.000465784 12.7996 0.000464767 12.7996 0.00046375 12.7996C0.000462733 12.7996 0.000461716 12.7996 0.000460699 12.7996C0.000459682 12.7996 0.000458665 12.7996 0.000457648 12.7996C0.000456631 12.7996 0.000455614 12.7996 0.000454597 12.7996C0.00045358 12.7996 0.000452563 12.7996 0.000451546 12.7996C0.000450529 12.7996 0.000449512 12.7996 0.000448495 12.7996C0.000447478 12.7996 0.000446461 12.7996 0.000445444 12.7996C0.000444427 12.7996 0.00044341 12.7996 0.000442393 12.7996C0.000441376 12.7996 0.000440359 12.7996 0.000439342 12.7996C0.000438325 12.7996 0.000437308 12.7996 0.000436291 12.7996C0.000435274 12.7996 0.000434257 12.7996 0.00043324 12.7996C0.000432223 12.7996 0.000431206 12.7996 0.000430189 12.7996C0.000429172 12.7996 0.000428155 12.7996 0.000427138 12.7996C0.000426121 12.7996 0.000425104 12.7996 0.000424087 12.7996C0.00042307 12.7996 0.000422053 12.7996 0.000421036 12.7996C0.000420019 12.7996 0.000419002 12.7996 0.000417985 12.7996C0.000416968 12.7996 0.000415951 12.7996 0.000414934 12.7996C0.000413917 12.7996 0.0004129 12.7996 0.000411883 12.7996C0.000410866 12.7996 0.000409849 12.7996 0.000408832 12.7996C0.000407815 12.7996 0.000406798 12.7996 0.000405781 12.7996C0.000404764 12.7996 0.000403747 12.7996 0.00040273 12.7996C0.000401713 12.7996 0.000400696 12.7996 0.000399679 12.7996C0.000398662 12.7996 0.000397645 12.7996 0.000396628 12.7996C0.000395611 12.7996 0.000394594 12.7996 0.000393577 12.7996C0.00039256 12.7996 0.000391543 12.7996 0.000390526 12.7996C0.000389509 12.7996 0.000388492 12.7996 0.000387475 12.7996C0.000386458 12.7996 0.000385441 12.7996 0.000384424 12.7996C0.000383407 12.7996 0.00038239 12.7996 0.000381373 12.7996C0.000380356 12.7996 0.000379339 12.7996 0.000378322 12.7996C0.000377305 12.7996 0.000376288 12.7996 0.000375271 12.7996C0.000374254 12.7996 0.000373237 12.7996 0.00037222 12.7996C0.000371203 12.7996 0.000370186 12.7996 0.000369169 12.7996C0.000368152 12.7996 0.000367135 12.7996 0.000366118 12.7996C0.000365101 12.7996 0.000364084 12.7996 0.000363067 12.7996C0.00036205 12.7996 0.000361033 12.7996 0.000360016 12.7996C0.000358999 12.7996 0.000357982 12.7996 0.000356965 12.7996C0.000355948 12.7996 0.000354931 12.7996 0.000353914 12.7996C0.000352897 12.7996 0.00035188 12.7996 0.000350863 12.7996C0.000349846 12.7996 0.000348829 12.7996 0.000347812 12.7996C0.000346795 12.7996 0.000345778 12.7996 0.000344761 12.7996C0.000343744 12.7996 0.000342727 12.7996 0.00034171 12.7996C0.000340693 12.7996 0.000339676 12.7996 0.000338659 12.7996C0.000337642 12.7996 0.000336625 12.7996 0.000335608 12.7996C0.000334591 12.7996 0.000333574 12.7996 0.000332557 12.7996C0.00033154 12.7996 0.000330523 12.7996 0.000329506 12.7996C0.000328489 12.7996 0.000327472 12.7996 0.000326455 12.7996C0.000325438 12.7996 0.000324421 12.7996 0.000323404 12.7996C0.000322387 12.7996 0.00032137 12.7996 0.000320353 12.7996C0.000319336 12.7996 0.000318319 12.7996 0.000317302 12.7996C0.000316285 12.7996 0.000315268 12.7996 0.000314251 12.7996C0.000313234 12.7996 0.000312217 12.7996 0.0003112 12.7996C0.000310183 12.7996 0.000309166 12.7996 0.000308149 12.7996C0.000307132 12.7996 0.000306115 12.7996 0.000305098 12.7996C0.000304081 12.7996 0.000303064 12.7996 0.000302047 12.7996C0.00030103 12.7996 0.000300013 12.7996 0.000298996 12.7996C0.000297979 12.7996 0.000296962 12.7996 0.000295945 12.7996C0.000294928 12.7996 0.000293911 12.7996 0.000292894 12.7996C0.000291877 12.7996 0.00029086 12.7996 0.000289843 12.7996C0.000288826 12.7996 0.000287809 12.7996 0.000286792 12.7996C0.000285775 12.7996 0.000284758 12.7996 0.000283741 12.7996C0.000282724 12.7996 0.000281707 12.7996 0.00028069 12.7996C0.000279673 12.7996 0.000278656 12.7996 0.000277639 12.7996C0.000276622 12.7996 0.000275605 12.7996 0.000274588 12.7996C0.000273571 12.7996 0.000272554 12.7996 0.000271537 12.7996C0.00027052 12.7996 0.000269503 12.7996 0.000268486 12.7996C0.000267469 12.7996 0.000266452 12.7996 0.000265435 12.7996C0.000264418 12.7996 0.000263401 12.7996 0.000262384 12.7996C0.000261367 12.7996 0.00026035 12.7996 0.000259333 12.7996C0.000258316 12.7996 0.000257299 12.7996 0.000256282 12.7996C0.000255265 12.7996 0.000254248 12.7996 0.000253231 12.7996C0.000252214 12.7996 0.000251197 12.7996 0.00025018 12.7996C0.000249163 12.7996 0.000248146 12.7996 0.000247129 12.7996C0.000246112 12.7996 0.000245095 12.7996 0.000244078 12.7996C0.000243061 12.7996 0.000242044 12.7996 0.000241027 12.7996C0.00024001 12.7996 0.000238993 12.7996 0.000237976 12.7996C0.00023696 12.7996 0.000235942 12.7996 0.000234926 12.7996C0.000233909 12.7996 0.000232892 12.7996 0.000231875 12.7996C0.000230858 12.7996 0.000229841 12.7996 0.000228824 12.7996C0.000227807 12.7996 0.00022679 12.7996 0.000225773 12.7996C0.000224756 12.7996 0.000223739 12.7996 0.000222722 12.7996C0.000221705 12.7996 0.000220688 12.7996 0.000219671 12.7996C0.000218654 12.7996 0.000217637 12.7996 0.00021662 12.7996C0.000215603 12.7996 0.000214586 12.7996 0.000213569 12.7996C0.000212552 12.7996 0.000211535 12.7996 0.000210518 12.7996C0.000209501 12.7996 0.000208484 12.7996 0.000207467 12.7996C0.00020645 12.7996 0.000205433 12.7996 0.000204416 12.7996C0.000203399 12.7996 0.000202382 12.7996 0.000201365 12.7996C0.000200348 12.7996 0.000199331 12.7996 0.000198314 12.7996C0.000197297 12.7996 0.00019628 12.7996 0.000195263 12.7996C0.000194246 12.7996 0.000193229 12.7996 0.000192212 12.7996C0.000191195 12.7996 0.000190178 12.7996 0.000189161 12.7996C0.000188144 12.7996 0.000187127 12.7996 0.00018611 12.7996C0.000185093 12.7996 0.000184076 12.7996 0.000183059 12.7996C0.000182042 12.7996 0.000181025 12.7996 0.000180008 12.7996C0.000178991 12.7996 0.000177974 12.7996 0.000176957 12.7996C0.00017594 12.7996 0.000174923 12.7996 0.000173906 12.7996C0.000172889 12.7996 0.000171872 12.7996 0.000170855 12.7996C0.000169838 12.7996 0.000168821 12.7996 0.000167804 12.7996C0.000166787 12.7996 0.00016577 12.7996 0.000164753 12.7996C0.000163736 12.7996 0.000162719 12.7996 0.000161702 12.7996C0.000160685 12.7996 0.000159668 12.7996 0.000158651 12.7996C0.000157634 12.7996 0.000156617 12.7996 0.0001556 12.7996C0.000154583 12.7996 0.000153566 12.7996 0.000152549 12.7996C0.000151532 12.7996 0.000150515 12.7996 0.000149498 12.7996C0.000148481 12.7996 0.000147464 12.7996 0.000146447 12.7996C0.00014543 12.7996 0.000144413 12.7996 0.000143396 12.7996C0.000142379 12.7996 0.000141362 12.7996 0.000140345 12.7996C0.000139328 12.7996 0.000138311 12.7996 0.000137294 12.7996C0.000136277 12.7996 0.00013526 12.7996 0.000134243 12.7996C0.000133226 12.7996 0.000132209 12.7996 0.000131192 12.7996C0.000130175 12.7996 0.000129158 12.7996 0.000128141 12.7996C0.000127124 12.7996 0.000126107 12.7996 0.00012509 12.7996C0.000124073 12.7996 0.000123056 12.7996 0.000122039 12.7996C0.000121022 12.7996 0.000120005 12.7996 0.000118988 12.7996C0.000117971 12.7996 0.000116954 12.7996 0.000115937 12.7996C0.00011492 12.7996 0.000113903 12.7996 0.000112886 12.7996C0.000111869 12.7996 0.000110852 12.7996 0.000109835 12.7996C0.000108818 12.7996 0.000107801 12.7996 0.000106784 12.7996C0.000105767 12.7996 0.00010475 12.7996 0.000103733 12.7996C0.000102716 12.7996 0.000101699 12.7996 0.000100682 12.7996C9.96653e-05 12.7996 9.86483e-05 12.7996 9.76313e-05 12.7996C9.66143e-05 12.7996 9.55973e-05 12.7996 9.45803e-05 12.7996C9.35633e-05 12.7996 9.25463e-05 12.7996 9.15293e-05 12.7996C9.05123e-05 12.7996 8.94953e-05 12.7996 8.84783e-05 12.7996C8.74613e-05 12.7996 8.64444e-05 12.7996 8.54274e-05 12.7996C8.44104e-05 12.7996 8.33934e-05 12.7996 8.23764e-05 12.7996C8.13594e-05 12.7996 8.03424e-05 12.7996 7.93254e-05 12.7996C7.83084e-05 12.7996 7.72914e-05 12.7996 7.62744e-05 12.7996C7.52574e-05 12.7996 7.42404e-05 12.7996 7.32234e-05 12.7996C7.22065e-05 12.7996 7.11895e-05 12.7996 7.01725e-05 12.7996C6.91555e-05 12.7996 6.81385e-05 12.7996 6.71215e-05 12.7996C6.61045e-05 12.7996 6.50875e-05 12.7996 6.40705e-05 12.7996C6.30535e-05 12.7996 6.20365e-05 12.7996 6.10195e-05 12.7996C6.00025e-05 12.7996 5.89855e-05 12.7996 5.79686e-05 12.7996C5.69516e-05 12.7996 5.59346e-05 12.7996 5.49176e-05 12.7996C5.39006e-05 12.7996 5.28836e-05 12.7996 5.18666e-05 12.7996C5.08496e-05 12.7996 4.98326e-05 12.7996 4.88156e-05 12.7996C4.77986e-05 12.7996 4.67816e-05 12.7996 4.57646e-05 12.7996C4.47476e-05 12.7996 4.37307e-05 12.7996 4.27137e-05 12.7996C4.16967e-05 12.7996 4.06797e-05 12.7996 3.96627e-05 12.7996C3.86457e-05 12.7996 3.76287e-05 12.7996 3.66117e-05 12.7996C3.55947e-05 12.7996 3.45777e-05 12.7996 3.35607e-05 12.7996C3.25437e-05 12.7996 3.15267e-05 12.7996 3.05098e-05 12.7996C2.94928e-05 12.7996 2.84758e-05 12.7996 2.74588e-05 12.7996C2.64418e-05 12.7996 2.54248e-05 12.7996 2.44078e-05 12.7996C2.33908e-05 12.7996 2.23738e-05 12.7996 2.13568e-05 12.7996C2.03398e-05 12.7996 1.93228e-05 12.7996 1.83059e-05 12.7996C1.72889e-05 12.7996 1.62719e-05 12.7996 1.52549e-05 12.7996C1.42379e-05 12.7996 1.32209e-05 12.7996 1.22039e-05 12.7996C1.11869e-05 12.7996 1.01699e-05 12.7996 9.15293e-06 12.7996C8.13593e-06 12.7996 7.11894e-06 12.7996 6.10195e-06 12.7996C5.08496e-06 12.7996 4.06797e-06 12.7996 3.05098e-06 12.7996C2.03398e-06 12.7996 1.01699e-06 12.7996 0 12.7996V15.9996C1.01699e-06 15.9996 2.03398e-06 15.9996 3.05098e-06 15.9996C4.06797e-06 15.9996 5.08496e-06 15.9996 6.10195e-06 15.9996C7.11894e-06 15.9996 8.13593e-06 15.9996 9.15293e-06 15.9996C1.01699e-05 15.9996 1.11869e-05 15.9996 1.22039e-05 15.9996C1.32209e-05 15.9996 1.42379e-05 15.9996 1.52549e-05 15.9996C1.62719e-05 15.9996 1.72889e-05 15.9996 1.83059e-05 15.9996C1.93228e-05 15.9996 2.03398e-05 15.9996 2.13568e-05 15.9996C2.23738e-05 15.9996 2.33908e-05 15.9996 2.44078e-05 15.9996C2.54248e-05 15.9996 2.64418e-05 15.9996 2.74588e-05 15.9996C2.84758e-05 15.9996 2.94928e-05 15.9996 3.05098e-05 15.9996C3.15267e-05 15.9996 3.25437e-05 15.9996 3.35607e-05 15.9996C3.45777e-05 15.9996 3.55947e-05 15.9996 3.66117e-05 15.9996C3.76287e-05 15.9996 3.86457e-05 15.9996 3.96627e-05 15.9996C4.06797e-05 15.9996 4.16967e-05 15.9996 4.27137e-05 15.9996C4.37307e-05 15.9996 4.47476e-05 15.9996 4.57646e-05 15.9996C4.67816e-05 15.9996 4.77986e-05 15.9996 4.88156e-05 15.9996C4.98326e-05 15.9996 5.08496e-05 15.9996 5.18666e-05 15.9996C5.28836e-05 15.9996 5.39006e-05 15.9996 5.49176e-05 15.9996C5.59346e-05 15.9996 5.69516e-05 15.9996 5.79686e-05 15.9996C5.89855e-05 15.9996 6.00025e-05 15.9996 6.10195e-05 15.9996C6.20365e-05 15.9996 6.30535e-05 15.9996 6.40705e-05 15.9996C6.50875e-05 15.9996 6.61045e-05 15.9996 6.71215e-05 15.9996C6.81385e-05 15.9996 6.91555e-05 15.9996 7.01725e-05 15.9996C7.11895e-05 15.9996 7.22065e-05 15.9996 7.32234e-05 15.9996C7.42404e-05 15.9996 7.52574e-05 15.9996 7.62744e-05 15.9996C7.72914e-05 15.9996 7.83084e-05 15.9996 7.93254e-05 15.9996C8.03424e-05 15.9996 8.13594e-05 15.9996 8.23764e-05 15.9996C8.33934e-05 15.9996 8.44104e-05 15.9996 8.54274e-05 15.9996C8.64444e-05 15.9996 8.74613e-05 15.9996 8.84783e-05 15.9996C8.94953e-05 15.9996 9.05123e-05 15.9996 9.15293e-05 15.9996C9.25463e-05 15.9996 9.35633e-05 15.9996 9.45803e-05 15.9996C9.55973e-05 15.9996 9.66143e-05 15.9996 9.76313e-05 15.9996C9.86483e-05 15.9996 9.96653e-05 15.9996 0.000100682 15.9996C0.000101699 15.9996 0.000102716 15.9996 0.000103733 15.9996C0.00010475 15.9996 0.000105767 15.9996 0.000106784 15.9996C0.000107801 15.9996 0.000108818 15.9996 0.000109835 15.9996C0.000110852 15.9996 0.000111869 15.9996 0.000112886 15.9996C0.000113903 15.9996 0.00011492 15.9996 0.000115937 15.9996C0.000116954 15.9996 0.000117971 15.9996 0.000118988 15.9996C0.000120005 15.9996 0.000121022 15.9996 0.000122039 15.9996C0.000123056 15.9996 0.000124073 15.9996 0.00012509 15.9996C0.000126107 15.9996 0.000127124 15.9996 0.000128141 15.9996C0.000129158 15.9996 0.000130175 15.9996 0.000131192 15.9996C0.000132209 15.9996 0.000133226 15.9996 0.000134243 15.9996C0.00013526 15.9996 0.000136277 15.9996 0.000137294 15.9996C0.000138311 15.9996 0.000139328 15.9996 0.000140345 15.9996C0.000141362 15.9996 0.000142379 15.9996 0.000143396 15.9996C0.000144413 15.9996 0.00014543 15.9996 0.000146447 15.9996C0.000147464 15.9996 0.000148481 15.9996 0.000149498 15.9996C0.000150515 15.9996 0.000151532 15.9996 0.000152549 15.9996C0.000153566 15.9996 0.000154583 15.9996 0.0001556 15.9996C0.000156617 15.9996 0.000157634 15.9996 0.000158651 15.9996C0.000159668 15.9996 0.000160685 15.9996 0.000161702 15.9996C0.000162719 15.9996 0.000163736 15.9996 0.000164753 15.9996C0.00016577 15.9996 0.000166787 15.9996 0.000167804 15.9996C0.000168821 15.9996 0.000169838 15.9996 0.000170855 15.9996C0.000171872 15.9996 0.000172889 15.9996 0.000173906 15.9996C0.000174923 15.9996 0.00017594 15.9996 0.000176957 15.9996C0.000177974 15.9996 0.000178991 15.9996 0.000180008 15.9996C0.000181025 15.9996 0.000182042 15.9996 0.000183059 15.9996C0.000184076 15.9996 0.000185093 15.9996 0.00018611 15.9996C0.000187127 15.9996 0.000188144 15.9996 0.000189161 15.9996C0.000190178 15.9996 0.000191195 15.9996 0.000192212 15.9996C0.000193229 15.9996 0.000194246 15.9996 0.000195263 15.9996C0.00019628 15.9996 0.000197297 15.9996 0.000198314 15.9996C0.000199331 15.9996 0.000200348 15.9996 0.000201365 15.9996C0.000202382 15.9996 0.000203399 15.9996 0.000204416 15.9996C0.000205433 15.9996 0.00020645 15.9996 0.000207467 15.9996C0.000208484 15.9996 0.000209501 15.9996 0.000210518 15.9996C0.000211535 15.9996 0.000212552 15.9996 0.000213569 15.9996C0.000214586 15.9996 0.000215603 15.9996 0.00021662 15.9996C0.000217637 15.9996 0.000218654 15.9996 0.000219671 15.9996C0.000220688 15.9996 0.000221705 15.9996 0.000222722 15.9996C0.000223739 15.9996 0.000224756 15.9996 0.000225773 15.9996C0.00022679 15.9996 0.000227807 15.9996 0.000228824 15.9996C0.000229841 15.9996 0.000230858 15.9996 0.000231875 15.9996C0.000232892 15.9996 0.000233909 15.9996 0.000234926 15.9996C0.000235942 15.9996 0.00023696 15.9996 0.000237976 15.9996C0.000238993 15.9996 0.00024001 15.9996 0.000241027 15.9996C0.000242044 15.9996 0.000243061 15.9996 0.000244078 15.9996C0.000245095 15.9996 0.000246112 15.9996 0.000247129 15.9996C0.000248146 15.9996 0.000249163 15.9996 0.00025018 15.9996C0.000251197 15.9996 0.000252214 15.9996 0.000253231 15.9996C0.000254248 15.9996 0.000255265 15.9996 0.000256282 15.9996C0.000257299 15.9996 0.000258316 15.9996 0.000259333 15.9996C0.00026035 15.9996 0.000261367 15.9996 0.000262384 15.9996C0.000263401 15.9996 0.000264418 15.9996 0.000265435 15.9996C0.000266452 15.9996 0.000267469 15.9996 0.000268486 15.9996C0.000269503 15.9996 0.00027052 15.9996 0.000271537 15.9996C0.000272554 15.9996 0.000273571 15.9996 0.000274588 15.9996C0.000275605 15.9996 0.000276622 15.9996 0.000277639 15.9996C0.000278656 15.9996 0.000279673 15.9996 0.00028069 15.9996C0.000281707 15.9996 0.000282724 15.9996 0.000283741 15.9996C0.000284758 15.9996 0.000285775 15.9996 0.000286792 15.9996C0.000287809 15.9996 0.000288826 15.9996 0.000289843 15.9996C0.00029086 15.9996 0.000291877 15.9996 0.000292894 15.9996C0.000293911 15.9996 0.000294928 15.9996 0.000295945 15.9996C0.000296962 15.9996 0.000297979 15.9996 0.000298996 15.9996C0.000300013 15.9996 0.00030103 15.9996 0.000302047 15.9996C0.000303064 15.9996 0.000304081 15.9996 0.000305098 15.9996C0.000306115 15.9996 0.000307132 15.9996 0.000308149 15.9996C0.000309166 15.9996 0.000310183 15.9996 0.0003112 15.9996C0.000312217 15.9996 0.000313234 15.9996 0.000314251 15.9996C0.000315268 15.9996 0.000316285 15.9996 0.000317302 15.9996C0.000318319 15.9996 0.000319336 15.9996 0.000320353 15.9996C0.00032137 15.9996 0.000322387 15.9996 0.000323404 15.9996C0.000324421 15.9996 0.000325438 15.9996 0.000326455 15.9996C0.000327472 15.9996 0.000328489 15.9996 0.000329506 15.9996C0.000330523 15.9996 0.00033154 15.9996 0.000332557 15.9996C0.000333574 15.9996 0.000334591 15.9996 0.000335608 15.9996C0.000336625 15.9996 0.000337642 15.9996 0.000338659 15.9996C0.000339676 15.9996 0.000340693 15.9996 0.00034171 15.9996C0.000342727 15.9996 0.000343744 15.9996 0.000344761 15.9996C0.000345778 15.9996 0.000346795 15.9996 0.000347812 15.9996C0.000348829 15.9996 0.000349846 15.9996 0.000350863 15.9996C0.00035188 15.9996 0.000352897 15.9996 0.000353914 15.9996C0.000354931 15.9996 0.000355948 15.9996 0.000356965 15.9996C0.000357982 15.9996 0.000358999 15.9996 0.000360016 15.9996C0.000361033 15.9996 0.00036205 15.9996 0.000363067 15.9996C0.000364084 15.9996 0.000365101 15.9996 0.000366118 15.9996C0.000367135 15.9996 0.000368152 15.9996 0.000369169 15.9996C0.000370186 15.9996 0.000371203 15.9996 0.00037222 15.9996C0.000373237 15.9996 0.000374254 15.9996 0.000375271 15.9996C0.000376288 15.9996 0.000377305 15.9996 0.000378322 15.9996C0.000379339 15.9996 0.000380356 15.9996 0.000381373 15.9996C0.00038239 15.9996 0.000383407 15.9996 0.000384424 15.9996C0.000385441 15.9996 0.000386458 15.9996 0.000387475 15.9996C0.000388492 15.9996 0.000389509 15.9996 0.000390526 15.9996C0.000391543 15.9996 0.00039256 15.9996 0.000393577 15.9996C0.000394594 15.9996 0.000395611 15.9996 0.000396628 15.9996C0.000397645 15.9996 0.000398662 15.9996 0.000399679 15.9996C0.000400696 15.9996 0.000401713 15.9996 0.00040273 15.9996C0.000403747 15.9996 0.000404764 15.9996 0.000405781 15.9996C0.000406798 15.9996 0.000407815 15.9996 0.000408832 15.9996C0.000409849 15.9996 0.000410866 15.9996 0.000411883 15.9996C0.0004129 15.9996 0.000413917 15.9996 0.000414934 15.9996C0.000415951 15.9996 0.000416968 15.9996 0.000417985 15.9996C0.000419002 15.9996 0.000420019 15.9996 0.000421036 15.9996C0.000422053 15.9996 0.00042307 15.9996 0.000424087 15.9996C0.000425104 15.9996 0.000426121 15.9996 0.000427138 15.9996C0.000428155 15.9996 0.000429172 15.9996 0.000430189 15.9996C0.000431206 15.9996 0.000432223 15.9996 0.00043324 15.9996C0.000434257 15.9996 0.000435274 15.9996 0.000436291 15.9996C0.000437308 15.9996 0.000438325 15.9996 0.000439342 15.9996C0.000440359 15.9996 0.000441376 15.9996 0.000442393 15.9996C0.00044341 15.9996 0.000444427 15.9996 0.000445444 15.9996C0.000446461 15.9996 0.000447478 15.9996 0.000448495 15.9996C0.000449512 15.9996 0.000450529 15.9996 0.000451546 15.9996C0.000452563 15.9996 0.00045358 15.9996 0.000454597 15.9996C0.000455614 15.9996 0.000456631 15.9996 0.000457648 15.9996C0.000458665 15.9996 0.000459682 15.9996 0.000460699 15.9996C0.000461716 15.9996 0.000462733 15.9996 0.00046375 15.9996C0.000464767 15.9996 0.000465784 15.9996 0.000466801 15.9996C0.000467818 15.9996 0.000468835 15.9996 0.000469852 15.9996C0.000470869 15.9996 0.000471886 15.9996 0.000472903 15.9996C0.00047392 15.9996 0.000474937 15.9996 0.000475954 15.9996C0.000476971 15.9996 0.000477988 15.9996 0.000479005 15.9996C0.000480022 15.9996 0.000481039 15.9996 0.000482056 15.9996C0.000483073 15.9996 0.00048409 15.9996 0.000485107 15.9996C0.000486124 15.9996 0.000487141 15.9996 0.000488158 15.9996C0.000489175 15.9996 0.000490192 15.9996 0.000491209 15.9996C0.000492226 15.9996 0.000493243 15.9996 0.00049426 15.9996C0.000495277 15.9996 0.000496294 15.9996 0.000497311 15.9996C0.000498328 15.9996 0.000499345 15.9996 0.000500362 15.9996C0.000501379 15.9996 0.000502396 15.9996 0.000503413 15.9996C0.00050443 15.9996 0.000505447 15.9996 0.000506464 15.9996C0.000507481 15.9996 0.000508498 15.9996 0.000509515 15.9996C0.000510532 15.9996 0.000511549 15.9996 0.000512566 15.9996C0.000513583 15.9996 0.0005146 15.9996 0.000515617 15.9996C0.000516634 15.9996 0.000517651 15.9996 0.000518668 15.9996C0.000519685 15.9996 0.000520702 15.9996 0.000521719 15.9996C0.000522736 15.9996 0.000523753 15.9996 0.00052477 15.9996C0.000525787 15.9996 0.000526804 15.9996 0.000527821 15.9996C0.000528838 15.9996 0.000529855 15.9996 0.000530872 15.9996C0.000531889 15.9996 0.000532906 15.9996 0.000533923 15.9996C0.00053494 15.9996 0.000535957 15.9996 0.000536974 15.9996C0.000537991 15.9996 0.000539008 15.9996 0.000540025 15.9996C0.000541042 15.9996 0.000542059 15.9996 0.000543076 15.9996C0.000544093 15.9996 0.00054511 15.9996 0.000546127 15.9996C0.000547144 15.9996 0.000548161 15.9996 0.000549178 15.9996C0.000550195 15.9996 0.000551212 15.9996 0.000552229 15.9996C0.000553246 15.9996 0.000554263 15.9996 0.00055528 15.9996C0.000556297 15.9996 0.000557314 15.9996 0.000558331 15.9996C0.000559348 15.9996 0.000560365 15.9996 0.000561382 15.9996C0.000562399 15.9996 0.000563416 15.9996 0.000564433 15.9996C0.00056545 15.9996 0.000566467 15.9996 0.000567484 15.9996C0.000568501 15.9996 0.000569518 15.9996 0.000570535 15.9996C0.000571552 15.9996 0.000572569 15.9996 0.000573586 15.9996C0.000574603 15.9996 0.00057562 15.9996 0.000576637 15.9996C0.000577654 15.9996 0.000578671 15.9996 0.000579688 15.9996C0.000580705 15.9996 0.000581722 15.9996 0.000582739 15.9996C0.000583756 15.9996 0.000584773 15.9996 0.00058579 15.9996C0.000586807 15.9996 0.000587824 15.9996 0.000588841 15.9996C0.000589858 15.9996 0.000590875 15.9996 0.000591892 15.9996C0.000592909 15.9996 0.000593926 15.9996 0.000594943 15.9996C0.00059596 15.9996 0.000596977 15.9996 0.000597994 15.9996C0.000599011 15.9996 0.000600028 15.9996 0.000601045 15.9996C0.000602062 15.9996 0.000603079 15.9996 0.000604096 15.9996C0.000605113 15.9996 0.00060613 15.9996 0.000607147 15.9996C0.000608164 15.9996 0.000609181 15.9996 0.000610198 15.9996C0.000611215 15.9996 0.000612232 15.9996 0.000613249 15.9996C0.000614266 15.9996 0.000615283 15.9996 0.0006163 15.9996C0.000617317 15.9996 0.000618334 15.9996 0.000619351 15.9996C0.000620368 15.9996 0.000621385 15.9996 0.000622402 15.9996C0.000623419 15.9996 0.000624436 15.9996 0.000625453 15.9996C0.00062647 15.9996 0.000627487 15.9996 0.000628504 15.9996C0.000629521 15.9996 0.000630538 15.9996 0.000631555 15.9996C0.000632572 15.9996 0.000633589 15.9996 0.000634606 15.9996C0.000635623 15.9996 0.00063664 15.9996 0.000637657 15.9996C0.000638674 15.9996 0.000639691 15.9996 0.000640708 15.9996C0.000641725 15.9996 0.000642742 15.9996 0.000643759 15.9996C0.000644776 15.9996 0.000645793 15.9996 0.00064681 15.9996C0.000647827 15.9996 0.000648844 15.9996 0.000649861 15.9996C0.000650878 15.9996 0.000651895 15.9996 0.000652912 15.9996C0.000653929 15.9996 0.000654946 15.9996 0.000655963 15.9996C0.00065698 15.9996 0.000657997 15.9996 0.000659014 15.9996C0.000660031 15.9996 0.000661048 15.9996 0.000662065 15.9996C0.000663082 15.9996 0.000664099 15.9996 0.000665116 15.9996C0.000666133 15.9996 0.00066715 15.9996 0.000668167 15.9996C0.000669184 15.9996 0.000670201 15.9996 0.000671218 15.9996C0.000672235 15.9996 0.000673252 15.9996 0.000674269 15.9996C0.000675286 15.9996 0.000676303 15.9996 0.00067732 15.9996C0.000678337 15.9996 0.000679354 15.9996 0.000680371 15.9996C0.000681388 15.9996 0.000682405 15.9996 0.000683422 15.9996C0.000684439 15.9996 0.000685456 15.9996 0.000686473 15.9996C0.00068749 15.9996 0.000688507 15.9996 0.000689524 15.9996C0.000690541 15.9996 0.000691558 15.9996 0.000692575 15.9996C0.000693592 15.9996 0.000694609 15.9996 0.000695626 15.9996C0.000696643 15.9996 0.00069766 15.9996 0.000698677 15.9996C0.000699694 15.9996 0.000700711 15.9996 0.000701728 15.9996C0.000702745 15.9996 0.000703762 15.9996 0.000704779 15.9996C0.000705796 15.9996 0.000706813 15.9996 0.00070783 15.9996C0.000708847 15.9996 0.000709864 15.9996 0.000710881 15.9996C0.000711898 15.9996 0.000712915 15.9996 0.000713932 15.9996C0.000714949 15.9996 0.000715966 15.9996 0.000716983 15.9996C0.000718 15.9996 0.000719017 15.9996 0.000720034 15.9996C0.000721051 15.9996 0.000722068 15.9996 0.000723085 15.9996C0.000724102 15.9996 0.000725119 15.9996 0.000726136 15.9996C0.000727153 15.9996 0.00072817 15.9996 0.000729187 15.9996C0.000730204 15.9996 0.000731221 15.9996 0.000732238 15.9996C0.000733255 15.9996 0.000734272 15.9996 0.000735289 15.9996C0.000736306 15.9996 0.000737323 15.9996 0.00073834 15.9996C0.000739357 15.9996 0.000740374 15.9996 0.000741391 15.9996C0.000742408 15.9996 0.000743425 15.9996 0.000744442 15.9996C0.000745459 15.9996 0.000746476 15.9996 0.000747493 15.9996C0.00074851 15.9996 0.000749527 15.9996 0.000750544 15.9996C0.000751561 15.9996 0.000752578 15.9996 0.000753595 15.9996C0.000754612 15.9996 0.000755629 15.9996 0.000756646 15.9996C0.000757663 15.9996 0.00075868 15.9996 0.000759697 15.9996C0.000760714 15.9996 0.000761731 15.9996 0.000762748 15.9996C0.000763765 15.9996 0.000764782 15.9996 0.000765799 15.9996C0.000766816 15.9996 0.000767833 15.9996 0.00076885 15.9996C0.000769867 15.9996 0.000770884 15.9996 0.000771901 15.9996C0.000772918 15.9996 0.000773935 15.9996 0.000774952 15.9996C0.000775969 15.9996 0.000776986 15.9996 0.000778003 15.9996C0.00077902 15.9996 0.000780037 15.9996 0.000781054 15.9996C0.000782071 15.9996 0.000783088 15.9996 0.000784105 15.9996C0.000785122 15.9996 0.000786139 15.9996 0.000787156 15.9996C0.000788173 15.9996 0.00078919 15.9996 0.000790207 15.9996C0.000791224 15.9996 0.000792241 15.9996 0.000793258 15.9996C0.000794275 15.9996 0.000795292 15.9996 0.000796309 15.9996C0.000797327 15.9996 0.000798344 15.9996 0.000799361 15.9996C0.000800378 15.9996 0.000801395 15.9996 0.000802412 15.9996C0.000803429 15.9996 0.000804446 15.9996 0.000805463 15.9996C0.00080648 15.9996 0.000807497 15.9996 0.000808514 15.9996C0.000809531 15.9996 0.000810548 15.9996 0.000811565 15.9996C0.000812582 15.9996 0.000813599 15.9996 0.000814616 15.9996C0.000815633 15.9996 0.00081665 15.9996 0.000817667 15.9996C0.000818684 15.9996 0.000819701 15.9996 0.000820718 15.9996C0.000821735 15.9996 0.000822752 15.9996 0.000823769 15.9996C0.000824786 15.9996 0.000825803 15.9996 0.00082682 15.9996C0.000827837 15.9996 0.000828854 15.9996 0.000829871 15.9996C0.000830888 15.9996 0.000831905 15.9996 0.000832922 15.9996C0.000833939 15.9996 0.000834956 15.9996 0.000835973 15.9996C0.00083699 15.9996 0.000838007 15.9996 0.000839024 15.9996C0.000840041 15.9996 0.000841058 15.9996 0.000842075 15.9996C0.000843092 15.9996 0.000844109 15.9996 0.000845126 15.9996C0.000846143 15.9996 0.00084716 15.9996 0.000848177 15.9996C0.000849194 15.9996 0.000850211 15.9996 0.000851228 15.9996C0.000852245 15.9996 0.000853262 15.9996 0.000854279 15.9996C0.000855296 15.9996 0.000856313 15.9996 0.00085733 15.9996C0.000858347 15.9996 0.000859364 15.9996 0.000860381 15.9996C0.000861398 15.9996 0.000862415 15.9996 0.000863432 15.9996C0.000864449 15.9996 0.000865466 15.9996 0.000866483 15.9996C0.0008675 15.9996 0.000868517 15.9996 0.000869534 15.9996C0.000870551 15.9996 0.000871568 15.9996 0.000872585 15.9996C0.000873602 15.9996 0.000874619 15.9996 0.000875636 15.9996C0.000876653 15.9996 0.00087767 15.9996 0.000878687 15.9996C0.000879704 15.9996 0.000880721 15.9996 0.000881738 15.9996C0.000882755 15.9996 0.000883772 15.9996 0.000884789 15.9996C0.000885806 15.9996 0.000886823 15.9996 0.00088784 15.9996C0.000888857 15.9996 0.000889874 15.9996 0.000890891 15.9996C0.000891908 15.9996 0.000892925 15.9996 0.000893942 15.9996C0.000894959 15.9996 0.000895976 15.9996 0.000896993 15.9996C0.00089801 15.9996 0.000899027 15.9996 0.000900044 15.9996C0.000901061 15.9996 0.000902078 15.9996 0.000903095 15.9996C0.000904112 15.9996 0.000905129 15.9996 0.000906146 15.9996C0.000907163 15.9996 0.00090818 15.9996 0.000909197 15.9996C0.000910214 15.9996 0.000911231 15.9996 0.000912248 15.9996C0.000913265 15.9996 0.000914282 15.9996 0.000915299 15.9996C0.000916316 15.9996 0.000917333 15.9996 0.00091835 15.9996C0.000919367 15.9996 0.000920384 15.9996 0.000921401 15.9996C0.000922418 15.9996 0.000923435 15.9996 0.000924452 15.9996C0.000925469 15.9996 0.000926486 15.9996 0.000927503 15.9996C0.00092852 15.9996 0.000929537 15.9996 0.000930554 15.9996C0.000931571 15.9996 0.000932588 15.9996 0.000933605 15.9996C0.000934622 15.9996 0.000935639 15.9996 0.000936656 15.9996C0.000937673 15.9996 0.00093869 15.9996 0.000939707 15.9996C0.000940724 15.9996 0.000941741 15.9996 0.000942758 15.9996C0.000943775 15.9996 0.000944792 15.9996 0.000945809 15.9996C0.000946826 15.9996 0.000947843 15.9996 0.00094886 15.9996C0.000949877 15.9996 0.000950894 15.9996 0.000951911 15.9996C0.000952928 15.9996 0.000953945 15.9996 0.000954962 15.9996C0.000955979 15.9996 0.000956996 15.9996 0.000958013 15.9996C0.00095903 15.9996 0.000960047 15.9996 0.000961064 15.9996C0.000962081 15.9996 0.000963098 15.9996 0.000964115 15.9996C0.000965132 15.9996 0.000966149 15.9996 0.000967167 15.9996C0.000968184 15.9996 0.000969201 15.9996 0.000970218 15.9996C0.000971235 15.9996 0.000972252 15.9996 0.000973269 15.9996C0.000974286 15.9996 0.000975303 15.9996 0.00097632 15.9996C0.000977337 15.9996 0.000978354 15.9996 0.000979371 15.9996C0.000980388 15.9996 0.000981405 15.9996 0.000982422 15.9996C0.000983439 15.9996 0.000984456 15.9996 0.000985473 15.9996C0.00098649 15.9996 0.000987507 15.9996 0.000988524 15.9996C0.000989541 15.9996 0.000990558 15.9996 0.000991575 15.9996C0.000992592 15.9996 0.000993609 15.9996 0.000994626 15.9996C0.000995643 15.9996 0.00099666 15.9996 0.000997677 15.9996C0.000998694 15.9996 0.000999711 15.9996 0.00100073 15.9996C0.00100174 15.9996 0.00100276 15.9996 0.00100378 15.9996C0.0010048 15.9996 0.00100581 15.9996 0.00100683 15.9996C0.00100785 15.9996 0.00100886 15.9996 0.00100988 15.9996C0.0010109 15.9996 0.00101191 15.9996 0.00101293 15.9996C0.00101395 15.9996 0.00101497 15.9996 0.00101598 15.9996C0.001017 15.9996 0.00101802 15.9996 0.00101903 15.9996C0.00102005 15.9996 0.00102107 15.9996 0.00102208 15.9996C0.0010231 15.9996 0.00102412 15.9996 0.00102514 15.9996C0.00102615 15.9996 0.00102717 15.9996 0.00102819 15.9996C0.0010292 15.9996 0.00103022 15.9996 0.00103124 15.9996C0.00103226 15.9996 0.00103327 15.9996 0.00103429 15.9996C0.00103531 15.9996 0.00103632 15.9996 0.00103734 15.9996C0.00103836 15.9996 0.00103937 15.9996 0.00104039 15.9996C0.00104141 15.9996 0.00104243 15.9996 0.00104344 15.9996C0.00104446 15.9996 0.00104548 15.9996 0.00104649 15.9996C0.00104751 15.9996 0.00104853 15.9996 0.00104954 15.9996C0.00105056 15.9996 0.00105158 15.9996 0.0010526 15.9996C0.00105361 15.9996 0.00105463 15.9996 0.00105565 15.9996C0.00105666 15.9996 0.00105768 15.9996 0.0010587 15.9996C0.00105971 15.9996 0.00106073 15.9996 0.00106175 15.9996C0.00106277 15.9996 0.00106378 15.9996 0.0010648 15.9996C0.00106582 15.9996 0.00106683 15.9996 0.00106785 15.9996C0.00106887 15.9996 0.00106988 15.9996 0.0010709 15.9996C0.00107192 15.9996 0.00107294 15.9996 0.00107395 15.9996C0.00107497 15.9996 0.00107599 15.9996 0.001077 15.9996C0.00107802 15.9996 0.00107904 15.9996 0.00108005 15.9996C0.00108107 15.9996 0.00108209 15.9996 0.00108311 15.9996C0.00108412 15.9996 0.00108514 15.9996 0.00108616 15.9996C0.00108717 15.9996 0.00108819 15.9996 0.00108921 15.9996C0.00109022 15.9996 0.00109124 15.9996 0.00109226 15.9996C0.00109328 15.9996 0.00109429 15.9996 0.00109531 15.9996C0.00109633 15.9996 0.00109734 15.9996 0.00109836 15.9996C0.00109938 15.9996 0.00110039 15.9996 0.00110141 15.9996C0.00110243 15.9996 0.00110345 15.9996 0.00110446 15.9996C0.00110548 15.9996 0.0011065 15.9996 0.00110751 15.9996C0.00110853 15.9996 0.00110955 15.9996 0.00111056 15.9996C0.00111158 15.9996 0.0011126 15.9996 0.00111362 15.9996C0.00111463 15.9996 0.00111565 15.9996 0.00111667 15.9996C0.00111768 15.9996 0.0011187 15.9996 0.00111972 15.9996C0.00112073 15.9996 0.00112175 15.9996 0.00112277 15.9996C0.00112379 15.9996 0.0011248 15.9996 0.00112582 15.9996C0.00112684 15.9996 0.00112785 15.9996 0.00112887 15.9996C0.00112989 15.9996 0.0011309 15.9996 0.00113192 15.9996C0.00113294 15.9996 0.00113396 15.9996 0.00113497 15.9996C0.00113599 15.9996 0.00113701 15.9996 0.00113802 15.9996C0.00113904 15.9996 0.00114006 15.9996 0.00114107 15.9996C0.00114209 15.9996 0.00114311 15.9996 0.00114413 15.9996C0.00114514 15.9996 0.00114616 15.9996 0.00114718 15.9996C0.00114819 15.9996 0.00114921 15.9996 0.00115023 15.9996C0.00115125 15.9996 0.00115226 15.9996 0.00115328 15.9996C0.0011543 15.9996 0.00115531 15.9996 0.00115633 15.9996C0.00115735 15.9996 0.00115836 15.9996 0.00115938 15.9996C0.0011604 15.9996 0.00116142 15.9996 0.00116243 15.9996C0.00116345 15.9996 0.00116447 15.9996 0.00116548 15.9996C0.0011665 15.9996 0.00116752 15.9996 0.00116853 15.9996C0.00116955 15.9996 0.00117057 15.9996 0.00117159 15.9996C0.0011726 15.9996 0.00117362 15.9996 0.00117464 15.9996C0.00117565 15.9996 0.00117667 15.9996 0.00117769 15.9996C0.0011787 15.9996 0.00117972 15.9996 0.00118074 15.9996C0.00118176 15.9996 0.00118277 15.9996 0.00118379 15.9996C0.00118481 15.9996 0.00118582 15.9996 0.00118684 15.9996C0.00118786 15.9996 0.00118887 15.9996 0.00118989 15.9996C0.00119091 15.9996 0.00119193 15.9996 0.00119294 15.9996C0.00119396 15.9996 0.00119498 15.9996 0.00119599 15.9996C0.00119701 15.9996 0.00119803 15.9996 0.00119904 15.9996C0.00120006 15.9996 0.00120108 15.9996 0.0012021 15.9996C0.00120311 15.9996 0.00120413 15.9996 0.00120515 15.9996C0.00120616 15.9996 0.00120718 15.9996 0.0012082 15.9996C0.00120921 15.9996 0.00121023 15.9996 0.00121125 15.9996C0.00121227 15.9996 0.00121328 15.9996 0.0012143 15.9996C0.00121532 15.9996 0.00121633 15.9996 0.00121735 15.9996C0.00121837 15.9996 0.00121938 15.9996 0.0012204 15.9996C0.00122142 15.9996 0.00122244 15.9996 0.00122345 15.9996C0.00122447 15.9996 0.00122549 15.9996 0.0012265 15.9996C0.00122752 15.9996 0.00122854 15.9996 0.00122955 15.9996C0.00123057 15.9996 0.00123159 15.9996 0.00123261 15.9996C0.00123362 15.9996 0.00123464 15.9996 0.00123566 15.9996C0.00123667 15.9996 0.00123769 15.9996 0.00123871 15.9996C0.00123973 15.9996 0.00124074 15.9996 0.00124176 15.9996C0.00124278 15.9996 0.00124379 15.9996 0.00124481 15.9996C0.00124583 15.9996 0.00124684 15.9996 0.00124786 15.9996C0.00124888 15.9996 0.0012499 15.9996 0.00125091 15.9996C0.00125193 15.9996 0.00125295 15.9996 0.00125396 15.9996C0.00125498 15.9996 0.001256 15.9996 0.00125701 15.9996C0.00125803 15.9996 0.00125905 15.9996 0.00126007 15.9996C0.00126108 15.9996 0.0012621 15.9996 0.00126312 15.9996C0.00126413 15.9996 0.00126515 15.9996 0.00126617 15.9996C0.00126718 15.9996 0.0012682 15.9996 0.00126922 15.9996C0.00127024 15.9996 0.00127125 15.9996 0.00127227 15.9996C0.00127329 15.9996 0.0012743 15.9996 0.00127532 15.9996C0.00127634 15.9996 0.00127735 15.9996 0.00127837 15.9996C0.00127939 15.9996 0.00128041 15.9996 0.00128142 15.9996C0.00128244 15.9996 0.00128346 15.9996 0.00128447 15.9996C0.00128549 15.9996 0.00128651 15.9996 0.00128752 15.9996C0.00128854 15.9996 0.00128956 15.9996 0.00129058 15.9996C0.00129159 15.9996 0.00129261 15.9996 0.00129363 15.9996C0.00129464 15.9996 0.00129566 15.9996 0.00129668 15.9996C0.00129769 15.9996 0.00129871 15.9996 0.00129973 15.9996C0.00130075 15.9996 0.00130176 15.9996 0.00130278 15.9996C0.0013038 15.9996 0.00130481 15.9996 0.00130583 15.9996C0.00130685 15.9996 0.00130786 15.9996 0.00130888 15.9996C0.0013099 15.9996 0.00131092 15.9996 0.00131193 15.9996C0.00131295 15.9996 0.00131397 15.9996 0.00131498 15.9996C0.001316 15.9996 0.00131702 15.9996 0.00131803 15.9996C0.00131905 15.9996 0.00132007 15.9996 0.00132109 15.9996C0.0013221 15.9996 0.00132312 15.9996 0.00132414 15.9996C0.00132515 15.9996 0.00132617 15.9996 0.00132719 15.9996C0.00132821 15.9996 0.00132922 15.9996 0.00133024 15.9996C0.00133126 15.9996 0.00133227 15.9996 0.00133329 15.9996C0.00133431 15.9996 0.00133532 15.9996 0.00133634 15.9996C0.00133736 15.9996 0.00133838 15.9996 0.00133939 15.9996C0.00134041 15.9996 0.00134143 15.9996 0.00134244 15.9996C0.00134346 15.9996 0.00134448 15.9996 0.00134549 15.9996C0.00134651 15.9996 0.00134753 15.9996 0.00134855 15.9996C0.00134956 15.9996 0.00135058 15.9996 0.0013516 15.9996C0.00135261 15.9996 0.00135363 15.9996 0.00135465 15.9996C0.00135566 15.9996 0.00135668 15.9996 0.0013577 15.9996C0.00135872 15.9996 0.00135973 15.9996 0.00136075 15.9996C0.00136177 15.9996 0.00136278 15.9996 0.0013638 15.9996C0.00136482 15.9996 0.00136583 15.9996 0.00136685 15.9996C0.00136787 15.9996 0.00136889 15.9996 0.0013699 15.9996C0.00137092 15.9996 0.00137194 15.9996 0.00137295 15.9996C0.00137397 15.9996 0.00137499 15.9996 0.001376 15.9996C0.00137702 15.9996 0.00137804 15.9996 0.00137906 15.9996C0.00138007 15.9996 0.00138109 15.9996 0.00138211 15.9996C0.00138312 15.9996 0.00138414 15.9996 0.00138516 15.9996C0.00138617 15.9996 0.00138719 15.9996 0.00138821 15.9996C0.00138923 15.9996 0.00139024 15.9996 0.00139126 15.9996C0.00139228 15.9996 0.00139329 15.9996 0.00139431 15.9996C0.00139533 15.9996 0.00139634 15.9996 0.00139736 15.9996C0.00139838 15.9996 0.0013994 15.9996 0.00140041 15.9996C0.00140143 15.9996 0.00140245 15.9996 0.00140346 15.9996C0.00140448 15.9996 0.0014055 15.9996 0.00140652 15.9996C0.00140753 15.9996 0.00140855 15.9996 0.00140957 15.9996C0.00141058 15.9996 0.0014116 15.9996 0.00141262 15.9996C0.00141363 15.9996 0.00141465 15.9996 0.00141567 15.9996C0.00141669 15.9996 0.0014177 15.9996 0.00141872 15.9996C0.00141974 15.9996 0.00142075 15.9996 0.00142177 15.9996C0.00142279 15.9996 0.0014238 15.9996 0.00142482 15.9996C0.00142584 15.9996 0.00142686 15.9996 0.00142787 15.9996C0.00142889 15.9996 0.00142991 15.9996 0.00143092 15.9996C0.00143194 15.9996 0.00143296 15.9996 0.00143397 15.9996C0.00143499 15.9996 0.00143601 15.9996 0.00143703 15.9996C0.00143804 15.9996 0.00143906 15.9996 0.00144008 15.9996C0.00144109 15.9996 0.00144211 15.9996 0.00144313 15.9996C0.00144414 15.9996 0.00144516 15.9996 0.00144618 15.9996C0.0014472 15.9996 0.00144821 15.9996 0.00144923 15.9996C0.00145025 15.9996 0.00145126 15.9996 0.00145228 15.9996C0.0014533 15.9996 0.00145431 15.9996 0.00145533 15.9996C0.00145635 15.9996 0.00145737 15.9996 0.00145838 15.9996C0.0014594 15.9996 0.00146042 15.9996 0.00146143 15.9996C0.00146245 15.9996 0.00146347 15.9996 0.00146448 15.9996C0.0014655 15.9996 0.00146652 15.9996 0.00146754 15.9996C0.00146855 15.9996 0.00146957 15.9996 0.00147059 15.9996C0.0014716 15.9996 0.00147262 15.9996 0.00147364 15.9996C0.00147466 15.9996 0.00147567 15.9996 0.00147669 15.9996C0.00147771 15.9996 0.00147872 15.9996 0.00147974 15.9996C0.00148076 15.9996 0.00148177 15.9996 0.00148279 15.9996C0.00148381 15.9996 0.00148483 15.9996 0.00148584 15.9996C0.00148686 15.9996 0.00148788 15.9996 0.00148889 15.9996C0.00148991 15.9996 0.00149093 15.9996 0.00149194 15.9996C0.00149296 15.9996 0.00149398 15.9996 0.001495 15.9996C0.00149601 15.9996 0.00149703 15.9996 0.00149805 15.9996C0.00149906 15.9996 0.00150008 15.9996 0.0015011 15.9996C0.00150211 15.9996 0.00150313 15.9996 0.00150415 15.9996C0.00150517 15.9996 0.00150618 15.9996 0.0015072 15.9996C0.00150822 15.9996 0.00150923 15.9996 0.00151025 15.9996C0.00151127 15.9996 0.00151228 15.9996 0.0015133 15.9996C0.00151432 15.9996 0.00151534 15.9996 0.00151635 15.9996C0.00151737 15.9996 0.00151839 15.9996 0.0015194 15.9996C0.00152042 15.9996 0.00152144 15.9996 0.00152245 15.9996C0.00152347 15.9996 0.00152449 15.9996 0.00152551 15.9996C0.00152652 15.9996 0.00152754 15.9996 0.00152856 15.9996C0.00152957 15.9996 0.00153059 15.9996 0.00153161 15.9996C0.00153263 15.9996 0.00153364 15.9996 0.00153466 15.9996C0.00153568 15.9996 0.00153669 15.9996 0.00153771 15.9996C0.00153873 15.9996 0.00153974 15.9996 0.00154076 15.9996C0.00154178 15.9996 0.0015428 15.9996 0.00154381 15.9996C0.00154483 15.9996 0.00154585 15.9996 0.00154686 15.9996C0.00154788 15.9996 0.0015489 15.9996 0.00154991 15.9996C0.00155093 15.9996 0.00155195 15.9996 0.00155297 15.9996C0.00155398 15.9996 0.001555 15.9996 0.00155602 15.9996C0.00155703 15.9996 0.00155805 15.9996 0.00155907 15.9996C0.00156008 15.9996 0.0015611 15.9996 0.00156212 15.9996V12.7996Z" fill="#0A0A0A" mask="url(#path-2-inside-1_2596_108323)"/>
<mask id="path-4-inside-2_2596_108323" fill="white">
<path fill-rule="evenodd" clip-rule="evenodd" d="M8 20.9294L8 59.0698C13.9368 61.34 18.6604 66.0634 20.9309 72H321V8H20.9306C18.66 13.9362 13.9365 18.6594 8 20.9294Z"/>
</mask>
<path d="M8 20.9294L7.42854 19.4349L6.4 19.8282V20.9294H8ZM8 59.0698H6.4V60.171L7.42854 60.5643L8 59.0698ZM20.9309 72L19.4365 72.5715L19.8298 73.6H20.9309V72ZM321 72V73.6H322.6V72H321ZM321 8H322.6V6.4H321V8ZM20.9306 8V6.4H19.8295L19.4362 7.4284L20.9306 8ZM6.4 20.9294V59.0698H9.6V20.9294H6.4ZM7.42854 60.5643C12.9404 62.672 17.3285 67.0598 19.4365 72.5715L22.4253 71.4285C19.9924 65.067 14.9331 60.0079 8.57146 57.5754L7.42854 60.5643ZM20.9309 73.6H321V70.4H20.9309V73.6ZM322.6 72V8H319.4V72H322.6ZM321 6.4H20.9306V9.6H321V6.4ZM19.4362 7.4284C17.3281 12.9398 12.9402 17.3274 7.42854 19.4349L8.57146 22.4239C14.9328 19.9914 19.992 14.9327 22.425 8.5716L19.4362 7.4284Z" fill="#0A0A0A" mask="url(#path-4-inside-2_2596_108323)"/>
<g clip-path="url(#clip0_2596_108323)">
<g clip-path="url(#clip1_2596_108323)">
<mask id="path-6-inside-3_2596_108323" fill="white">
<path fill-rule="evenodd" clip-rule="evenodd" d="M319.602 0H302V80H319.602V79.9996C319.602 72.0472 326.048 65.6005 334 65.5996V14.3996C326.048 14.3988 319.602 7.9522 319.602 0Z"/>
</mask>
<path fill-rule="evenodd" clip-rule="evenodd" d="M319.602 0H302V80H319.602V79.9996C319.602 72.0472 326.048 65.6005 334 65.5996V14.3996C326.048 14.3988 319.602 7.9522 319.602 0Z" fill="#EBE6E1"/>
<path d="M319.602 0L321.202 -4.25977e-05L321.202 -1.6H319.602V0ZM302 0V-1.6H300.4V0H302ZM302 80H300.4V81.6H302V80ZM319.602 80V81.6H321.202V80H319.602ZM334 65.5996L334 67.1996L335.6 67.1994V65.5996H334ZM334 14.3996H335.6V12.7998L334 12.7996L334 14.3996ZM319.602 -1.6H302V1.6H319.602V-1.6ZM300.4 0V80H303.6V0H300.4ZM302 81.6H319.602V78.4H302V81.6ZM321.202 80V79.9996H318.002V80H321.202ZM321.202 79.9996C321.202 72.9308 326.932 67.2004 334 67.1996L334 63.9996C325.164 64.0005 318.002 71.1636 318.002 79.9996H321.202ZM335.6 65.5996V14.3996H332.4V65.5996H335.6ZM334 12.7996C326.932 12.7989 321.202 7.06858 321.202 -4.25977e-05L318.002 4.25977e-05C318.002 8.83582 325.164 15.9987 334 15.9996L334 12.7996Z" fill="#0A0A0A" mask="url(#path-6-inside-3_2596_108323)"/>
<mask id="path-8-inside-4_2596_108323" fill="white">
<path fill-rule="evenodd" clip-rule="evenodd" d="M313.073 8H294V72H313.072C315.342 66.0644 320.065 61.3416 326 59.071V20.9282C320.065 18.6577 315.343 13.9352 313.073 8Z"/>
</mask>
<path d="M313.073 8L314.567 7.4284L314.174 6.4H313.073V8ZM294 8V6.4H292.4V8H294ZM294 72H292.4V73.6H294V72ZM313.072 72V73.6H314.173L314.567 72.5715L313.072 72ZM326 59.071L326.572 60.5654L327.6 60.172V59.071H326ZM326 20.9282H327.6V19.8272L326.572 19.4338L326 20.9282ZM313.073 6.4H294V9.6H313.073V6.4ZM292.4 8V72H295.6V8H292.4ZM294 73.6H313.072V70.4H294V73.6ZM314.567 72.5715C316.674 67.0607 321.061 62.6735 326.572 60.5654L325.428 57.5766C319.068 60.0097 314.01 65.0681 311.578 71.4285L314.567 72.5715ZM327.6 59.071V20.9282H324.4V59.071H327.6ZM326.572 19.4338C321.061 17.3258 316.675 12.9389 314.567 7.4284L311.578 8.5716C314.011 14.9316 319.069 19.9896 325.428 22.4226L326.572 19.4338Z" fill="#0A0A0A" mask="url(#path-8-inside-4_2596_108323)"/>
</g>
</g>
<path d="M52.0569 53H59.2889C62.8729 53 64.5689 51.016 64.5689 47.784V44.296C64.5689 41.416 63.2249 40.424 62.0089 39.976C63.0969 39.56 64.2169 38.6 64.2169 35.944V33.832C64.2169 30.664 62.9689 29.192 59.2889 29.192H52.0569V53ZM58.1369 32.392C59.5769 32.392 60.0889 32.968 60.0889 34.536V36.424C60.0889 37.992 59.5769 38.696 58.1689 38.696H56.2489V32.392H58.1369ZM58.1689 42.12C59.6729 42.12 60.2489 42.792 60.2489 44.456V47.336C60.2489 49.032 59.7369 49.64 58.2329 49.64H56.2489V42.12H58.1689ZM67.6819 29.192V53H78.3379V49.192H71.8419V42.6H77.0899V38.792H71.8419V32.904H78.1459V29.192H67.6819ZM87.9979 43.4C91.3579 43.4 93.1499 41.8 93.1499 38.184V34.28C93.1499 30.472 91.4539 29.192 87.9979 29.192H81.1819V53H85.4379V43.4H87.9979ZM85.4379 32.584H86.9419C88.4459 32.584 88.9259 33.16 88.9259 35.08V37.32C88.9259 39.336 88.4459 39.848 86.9419 39.848H85.4379V32.584ZM96.1194 53H100.375V42.632H104.311V53H108.567V29.192H104.311V38.632H100.375V29.192H96.1194V53ZM123.64 29.192H119.576L117.272 41L115 29.192H110.712L114.712 45.608C115.064 46.984 115.224 47.336 115.128 48.04L115.064 48.456C114.968 49.064 114.712 49.256 113.912 49.256H112.632V53H115.064C117.368 53 118.136 52.072 118.648 49.864L123.64 29.192ZM128.535 53H132.791V32.968H136.631V29.192H124.663V32.968H128.535V53ZM143.594 29.192H139.338V53H146.378C149.994 53 151.37 50.792 151.37 47.944V43.464C151.37 40.616 150.026 38.408 146.378 38.408H143.594V29.192ZM143.594 49.544V41.864H145.194C146.634 41.864 147.082 42.6 147.082 44.232V47.272C147.082 48.84 146.57 49.544 145.258 49.544H143.594ZM160.386 49.544C159.01 49.544 158.53 48.648 158.53 46.952V35.208C158.53 33.512 159.01 32.648 160.386 32.648C161.794 32.648 162.274 33.544 162.274 35.208V37.896H166.402V35.016C166.402 31.048 164.866 28.968 160.642 28.968H159.874C155.938 28.968 154.242 31.24 154.242 35.048V47.176C154.242 50.888 155.938 53.288 160.002 53.288H160.77C164.866 53.288 166.402 50.536 166.402 47.208V43.112H162.274V46.984C162.274 48.616 161.794 49.544 160.386 49.544ZM177.265 43.336V53H181.521V29.192H174.321C171.377 29.192 169.329 30.6 169.329 33.928V37.928C169.329 40.52 170.289 41.896 171.665 42.504L168.753 53H173.105L175.761 43.336H177.265ZM177.265 39.88H175.505C174.193 39.88 173.585 39.112 173.585 37.192V34.536C173.585 32.904 174.193 32.424 175.505 32.424H177.265V39.88ZM189.838 53H194.094V42.632H198.03V53H202.286V29.192H198.03V38.632H194.094V29.192H189.838V53ZM210.511 39.72C210.895 37.16 211.151 35.4 211.279 34.024C211.375 35.4 211.599 37.064 212.015 39.72L212.879 45.064H209.679L210.511 39.72ZM214.159 53H218.255L213.999 29.192H208.687L204.687 53H208.431L209.103 48.616H213.455L214.159 53ZM231.511 49.544C230.135 49.544 229.655 48.648 229.655 46.952V35.208C229.655 33.512 230.135 32.648 231.511 32.648C232.919 32.648 233.399 33.544 233.399 35.208V37.896H237.527V35.016C237.527 31.048 235.991 28.968 231.767 28.968H230.999C227.063 28.968 225.367 31.24 225.367 35.048V47.176C225.367 50.888 227.063 53.288 231.127 53.288H231.895C235.991 53.288 237.527 50.536 237.527 47.208V43.112H233.399V46.984C233.399 48.616 232.919 49.544 231.511 49.544ZM245.23 39.72C245.614 37.16 245.87 35.4 245.998 34.024C246.094 35.4 246.318 37.064 246.734 39.72L247.598 45.064H244.398L245.23 39.72ZM248.878 53H252.974L248.718 29.192H243.406L239.406 53H243.15L243.822 48.616H248.174L248.878 53ZM263.977 53H268.073V29.192H263.881L260.937 38.984C260.105 41.704 259.721 43.368 259.305 44.968C259.401 43.4 259.465 41.8 259.465 37.704V29.192H255.369V53H259.561L262.505 43.208C263.369 40.424 263.817 38.536 264.201 37.032C264.041 38.536 263.977 40.52 263.977 44.488V53ZM261.705 27.752C264.297 27.752 265.577 26.44 265.577 24.008V23.784H262.665V23.944C262.665 24.808 262.345 25.256 261.673 25.256C261.001 25.256 260.681 24.808 260.681 23.944V23.784H257.769V24.008C257.769 26.44 259.049 27.752 261.641 27.752H261.705ZM274.66 53H278.916V32.968H282.756V29.192H270.788V32.968H274.66V53Z" fill="black"/>
<defs>
<clipPath id="clip0_2596_108323">
<rect width="30" height="80" fill="white" transform="translate(304)"/>
</clipPath>
<clipPath id="clip1_2596_108323">
<rect width="32" height="80" fill="white" transform="translate(302)"/>
</clipPath>
</defs>
</svg>
