<svg width="82" height="82" viewBox="0 0 82 82" fill="none" xmlns="http://www.w3.org/2000/svg">
<path fill-rule="evenodd" clip-rule="evenodd" d="M69 0H54C54 7.17969 48.1797 13 41 13C33.8203 13 28 7.17969 28 0H13C13 7.17969 7.17969 13 0 13V28C7.17969 28 13 33.8203 13 41C13 48.1797 7.17969 54 0 54V69C7.17969 69 13 74.8203 13 82H28C28 74.8203 33.8203 69 41 69C48.1797 69 54 74.8203 54 82H69C69 74.8203 74.8203 69 82 69V54C74.8203 54 69 48.1797 69 41C69 33.8203 74.8203 28 82 28V13C74.8203 13 69 7.17969 69 0Z" fill="#C4C4C4"/>
</svg>
