<svg width="343" height="58" viewBox="0 0 343 58" fill="none" xmlns="http://www.w3.org/2000/svg">
<mask id="path-2-inside-1_2681_109720" fill="white">
<path fill-rule="evenodd" clip-rule="evenodd" d="M0 10.3796V47.2871H0.000518799C5.86667 47.2871 10.6221 51.9345 10.6221 57.6673C10.6221 57.7786 10.6203 57.8895 10.6168 58H325V0H10.6221C10.6218 5.73254 5.86645 10.3796 0.000518799 10.3796C0.000345865 10.3796 0.000172932 10.3796 0 10.3796Z"/>
</mask>
<path fill-rule="evenodd" clip-rule="evenodd" d="M0 10.3796V47.2871H0.000518799C5.86667 47.2871 10.6221 51.9345 10.6221 57.6673C10.6221 57.7786 10.6203 57.8895 10.6168 58H325V0H10.6221C10.6218 5.73254 5.86645 10.3796 0.000518799 10.3796C0.000345865 10.3796 0.000172932 10.3796 0 10.3796Z" fill="#0A0A0A"/>
<path d="M0 10.3796V9.22956H-1.15V10.3796H0ZM0 47.2871H-1.15V48.4371H0V47.2871ZM10.6168 58L9.46738 57.963L9.42913 59.15H10.6168V58ZM325 58V59.15H326.15V58H325ZM325 0H326.15V-1.15H325V0ZM10.6221 0V-1.15H9.4722L9.47213 -7.17435e-05L10.6221 0ZM-1.15 10.3796V47.2871H1.15V10.3796H-1.15ZM0 48.4371H0.000518799V46.1371H0V48.4371ZM0.000518799 48.4371C5.25661 48.4371 9.47213 52.5944 9.47213 57.6673H11.7721C11.7721 51.2746 6.47673 46.1371 0.000518799 46.1371V48.4371ZM9.47213 57.6673C9.47213 57.7663 9.47054 57.8648 9.46738 57.963L11.7662 58.037C11.7701 57.9142 11.7721 57.791 11.7721 57.6673H9.47213ZM10.6168 59.15H325V56.85H10.6168V59.15ZM326.15 58V0H323.85V58H326.15ZM325 -1.15H10.6221V1.15H325V-1.15ZM9.47213 -7.17435e-05C9.47182 5.07259 5.25641 9.22956 0.000518799 9.22956V11.5296C6.47649 11.5296 11.7717 6.39248 11.7721 7.17435e-05L9.47213 -7.17435e-05ZM0.000518799 9.22956C0.000518461 9.22956 0.000518123 9.22956 0.000517786 9.22956C0.000517448 9.22956 0.00051711 9.22956 0.000516772 9.22956C0.000516434 9.22956 0.000516097 9.22956 0.000515759 9.22956C0.000515421 9.22956 0.000515083 9.22956 0.000514746 9.22956C0.000514408 9.22956 0.00051407 9.22956 0.000513732 9.22956C0.000513395 9.22956 0.000513057 9.22956 0.000512719 9.22956C0.000512381 9.22956 0.000512044 9.22956 0.000511706 9.22956C0.000511368 9.22956 0.00051103 9.22956 0.000510693 9.22956C0.000510355 9.22956 0.000510017 9.22956 0.000509679 9.22956C0.000509341 9.22956 0.000509004 9.22956 0.000508666 9.22956C0.000508328 9.22956 0.00050799 9.22956 0.000507653 9.22956C0.000507315 9.22956 0.000506977 9.22956 0.000506639 9.22956C0.000506302 9.22956 0.000505964 9.22956 0.000505626 9.22956C0.000505288 9.22956 0.000504951 9.22956 0.000504613 9.22956C0.000504275 9.22956 0.000503937 9.22956 0.0005036 9.22956C0.000503262 9.22956 0.000502924 9.22956 0.000502586 9.22956C0.000502249 9.22956 0.000501911 9.22956 0.000501573 9.22956C0.000501235 9.22956 0.000500897 9.22956 0.00050056 9.22956C0.000500222 9.22956 0.000499884 9.22956 0.000499546 9.22956C0.000499209 9.22956 0.000498871 9.22956 0.000498533 9.22956C0.000498195 9.22956 0.000497858 9.22956 0.00049752 9.22956C0.000497182 9.22956 0.000496844 9.22956 0.000496507 9.22956C0.000496169 9.22956 0.000495831 9.22956 0.000495493 9.22956C0.000495156 9.22956 0.000494818 9.22956 0.00049448 9.22956C0.000494142 9.22956 0.000493804 9.22956 0.000493467 9.22956C0.000493129 9.22956 0.000492791 9.22956 0.000492453 9.22956C0.000492116 9.22956 0.000491778 9.22956 0.00049144 9.22956C0.000491102 9.22956 0.000490765 9.22956 0.000490427 9.22956C0.000490089 9.22956 0.000489751 9.22956 0.000489414 9.22956C0.000489076 9.22956 0.000488738 9.22956 0.0004884 9.22956C0.000488063 9.22956 0.000487725 9.22956 0.000487387 9.22956C0.000487049 9.22956 0.000486712 9.22956 0.000486374 9.22956C0.000486036 9.22956 0.000485698 9.22956 0.00048536 9.22956C0.000485023 9.22956 0.000484685 9.22956 0.000484347 9.22956C0.000484009 9.22956 0.000483672 9.22956 0.000483334 9.22956C0.000482996 9.22956 0.000482658 9.22956 0.000482321 9.22956C0.000481983 9.22956 0.000481645 9.22956 0.000481307 9.22956C0.00048097 9.22956 0.000480632 9.22956 0.000480294 9.22956C0.000479956 9.22956 0.000479618 9.22956 0.000479281 9.22956C0.000478943 9.22956 0.000478605 9.22956 0.000478267 9.22956C0.00047793 9.22956 0.000477592 9.22956 0.000477254 9.22956C0.000476916 9.22956 0.000476579 9.22956 0.000476241 9.22956C0.000475903 9.22956 0.000475565 9.22956 0.000475228 9.22956C0.00047489 9.22956 0.000474552 9.22956 0.000474214 9.22956C0.000473877 9.22956 0.000473539 9.22956 0.000473201 9.22956C0.000472863 9.22956 0.000472526 9.22956 0.000472188 9.22956C0.00047185 9.22956 0.000471512 9.22956 0.000471174 9.22956C0.000470837 9.22956 0.000470499 9.22956 0.000470161 9.22956C0.000469823 9.22956 0.000469486 9.22956 0.000469148 9.22956C0.00046881 9.22956 0.000468472 9.22956 0.000468135 9.22956C0.000467797 9.22956 0.000467459 9.22956 0.000467121 9.22956C0.000466784 9.22956 0.000466446 9.22956 0.000466108 9.22956C0.00046577 9.22956 0.000465433 9.22956 0.000465095 9.22956C0.000464757 9.22956 0.000464419 9.22956 0.000464082 9.22956C0.000463744 9.22956 0.000463406 9.22956 0.000463068 9.22956C0.00046273 9.22956 0.000462393 9.22956 0.000462055 9.22956C0.000461717 9.22956 0.000461379 9.22956 0.000461042 9.22956C0.000460704 9.22956 0.000460366 9.22956 0.000460028 9.22956C0.000459691 9.22956 0.000459353 9.22956 0.000459015 9.22956C0.000458677 9.22956 0.00045834 9.22956 0.000458002 9.22956C0.000457664 9.22956 0.000457326 9.22956 0.000456989 9.22956C0.000456651 9.22956 0.000456313 9.22956 0.000455975 9.22956C0.000455637 9.22956 0.0004553 9.22956 0.000454962 9.22956C0.000454624 9.22956 0.000454286 9.22956 0.000453949 9.22956C0.000453611 9.22956 0.000453273 9.22956 0.000452935 9.22956C0.000452598 9.22956 0.00045226 9.22956 0.000451922 9.22956C0.000451584 9.22956 0.000451247 9.22956 0.000450909 9.22956C0.000450571 9.22956 0.000450233 9.22956 0.000449896 9.22956C0.000449558 9.22956 0.00044922 9.22956 0.000448882 9.22956C0.000448544 9.22956 0.000448207 9.22956 0.000447869 9.22956C0.000447531 9.22956 0.000447193 9.22956 0.000446856 9.22956C0.000446518 9.22956 0.00044618 9.22956 0.000445842 9.22956C0.000445505 9.22956 0.000445167 9.22956 0.000444829 9.22956C0.000444491 9.22956 0.000444154 9.22956 0.000443816 9.22956C0.000443478 9.22956 0.00044314 9.22956 0.000442803 9.22956C0.000442465 9.22956 0.000442127 9.22956 0.000441789 9.22956C0.000441451 9.22956 0.000441114 9.22956 0.000440776 9.22956C0.000440438 9.22956 0.0004401 9.22956 0.000439763 9.22956C0.000439425 9.22956 0.000439087 9.22956 0.000438749 9.22956C0.000438412 9.22956 0.000438074 9.22956 0.000437736 9.22956C0.000437398 9.22956 0.000437061 9.22956 0.000436723 9.22956C0.000436385 9.22956 0.000436047 9.22956 0.00043571 9.22956C0.000435372 9.22956 0.000435034 9.22956 0.000434696 9.22956C0.000434359 9.22956 0.000434021 9.22956 0.000433683 9.22956C0.000433345 9.22956 0.000433007 9.22956 0.00043267 9.22956C0.000432332 9.22956 0.000431994 9.22956 0.000431656 9.22956C0.000431319 9.22956 0.000430981 9.22956 0.000430643 9.22956C0.000430305 9.22956 0.000429968 9.22956 0.00042963 9.22956C0.000429292 9.22956 0.000428954 9.22956 0.000428617 9.22956C0.000428279 9.22956 0.000427941 9.22956 0.000427603 9.22956C0.000427266 9.22956 0.000426928 9.22956 0.00042659 9.22956C0.000426252 9.22956 0.000425915 9.22956 0.000425577 9.22956C0.000425239 9.22956 0.000424901 9.22956 0.000424563 9.22956C0.000424226 9.22956 0.000423888 9.22956 0.00042355 9.22956C0.000423212 9.22956 0.000422875 9.22956 0.000422537 9.22956C0.000422199 9.22956 0.000421861 9.22956 0.000421524 9.22956C0.000421186 9.22956 0.000420848 9.22956 0.00042051 9.22956C0.000420173 9.22956 0.000419835 9.22956 0.000419497 9.22956C0.000419159 9.22956 0.000418822 9.22956 0.000418484 9.22956C0.000418146 9.22956 0.000417808 9.22956 0.00041747 9.22956C0.000417133 9.22956 0.000416795 9.22956 0.000416457 9.22956C0.000416119 9.22956 0.000415782 9.22956 0.000415444 9.22956C0.000415106 9.22956 0.000414768 9.22956 0.000414431 9.22956C0.000414093 9.22956 0.000413755 9.22956 0.000413417 9.22956C0.00041308 9.22956 0.000412742 9.22956 0.000412404 9.22956C0.000412066 9.22956 0.000411729 9.22956 0.000411391 9.22956C0.000411053 9.22956 0.000410715 9.22956 0.000410377 9.22956C0.00041004 9.22956 0.000409702 9.22956 0.000409364 9.22956C0.000409026 9.22956 0.000408689 9.22956 0.000408351 9.22956C0.000408013 9.22956 0.000407675 9.22956 0.000407338 9.22956C0.000407 9.22956 0.000406662 9.22956 0.000406324 9.22956C0.000405987 9.22956 0.000405649 9.22956 0.000405311 9.22956C0.000404973 9.22956 0.000404636 9.22956 0.000404298 9.22956C0.00040396 9.22956 0.000403622 9.22956 0.000403285 9.22956C0.000402947 9.22956 0.000402609 9.22956 0.000402271 9.22956C0.000401933 9.22956 0.000401596 9.22956 0.000401258 9.22956C0.00040092 9.22956 0.000400582 9.22956 0.000400245 9.22956C0.000399907 9.22956 0.000399569 9.22956 0.000399231 9.22956C0.000398894 9.22956 0.000398556 9.22956 0.000398218 9.22956C0.00039788 9.22956 0.000397543 9.22956 0.000397205 9.22956C0.000396867 9.22956 0.000396529 9.22956 0.000396192 9.22956C0.000395854 9.22956 0.000395516 9.22956 0.000395178 9.22956C0.000394841 9.22956 0.000394503 9.22956 0.000394165 9.22956C0.000393827 9.22956 0.000393489 9.22956 0.000393152 9.22956C0.000392814 9.22956 0.000392476 9.22956 0.000392138 9.22956C0.000391801 9.22956 0.000391463 9.22956 0.000391125 9.22956C0.000390787 9.22956 0.00039045 9.22956 0.000390112 9.22956C0.000389774 9.22956 0.000389436 9.22956 0.000389099 9.22956C0.000388761 9.22956 0.000388423 9.22956 0.000388085 9.22956C0.000387748 9.22956 0.00038741 9.22956 0.000387072 9.22956C0.000386734 9.22956 0.000386396 9.22956 0.000386059 9.22956C0.000385721 9.22956 0.000385383 9.22956 0.000385045 9.22956C0.000384708 9.22956 0.00038437 9.22956 0.000384032 9.22956C0.000383694 9.22956 0.000383357 9.22956 0.000383019 9.22956C0.000382681 9.22956 0.000382343 9.22956 0.000382006 9.22956C0.000381668 9.22956 0.00038133 9.22956 0.000380992 9.22956C0.000380655 9.22956 0.000380317 9.22956 0.000379979 9.22956C0.000379641 9.22956 0.000379304 9.22956 0.000378966 9.22956C0.000378628 9.22956 0.00037829 9.22956 0.000377952 9.22956C0.000377615 9.22956 0.000377277 9.22956 0.000376939 9.22956C0.000376601 9.22956 0.000376264 9.22956 0.000375926 9.22956C0.000375588 9.22956 0.00037525 9.22956 0.000374913 9.22956C0.000374575 9.22956 0.000374237 9.22956 0.000373899 9.22956C0.000373562 9.22956 0.000373224 9.22956 0.000372886 9.22956C0.000372548 9.22956 0.000372211 9.22956 0.000371873 9.22956C0.000371535 9.22956 0.000371197 9.22956 0.00037086 9.22956C0.000370522 9.22956 0.000370184 9.22956 0.000369846 9.22956C0.000369508 9.22956 0.000369171 9.22956 0.000368833 9.22956C0.000368495 9.22956 0.000368157 9.22956 0.00036782 9.22956C0.000367482 9.22956 0.000367144 9.22956 0.000366806 9.22956C0.000366469 9.22956 0.000366131 9.22956 0.000365793 9.22956C0.000365455 9.22956 0.000365118 9.22956 0.00036478 9.22956C0.000364442 9.22956 0.000364104 9.22956 0.000363767 9.22956C0.000363429 9.22956 0.000363091 9.22956 0.000362753 9.22956C0.000362416 9.22956 0.000362078 9.22956 0.00036174 9.22956C0.000361402 9.22956 0.000361064 9.22956 0.000360727 9.22956C0.000360389 9.22956 0.000360051 9.22956 0.000359713 9.22956C0.000359376 9.22956 0.000359038 9.22956 0.0003587 9.22956C0.000358362 9.22956 0.000358025 9.22956 0.000357687 9.22956C0.000357349 9.22956 0.000357011 9.22956 0.000356674 9.22956C0.000356336 9.22956 0.000355998 9.22956 0.00035566 9.22956C0.000355323 9.22956 0.000354985 9.22956 0.000354647 9.22956C0.000354309 9.22956 0.000353971 9.22956 0.000353634 9.22956C0.000353296 9.22956 0.000352958 9.22956 0.00035262 9.22956C0.000352283 9.22956 0.000351945 9.22956 0.000351607 9.22956C0.000351269 9.22956 0.000350932 9.22956 0.000350594 9.22956C0.000350256 9.22956 0.000349918 9.22956 0.000349581 9.22956C0.000349243 9.22956 0.000348905 9.22956 0.000348567 9.22956C0.00034823 9.22956 0.000347892 9.22956 0.000347554 9.22956C0.000347216 9.22956 0.000346879 9.22956 0.000346541 9.22956C0.000346203 9.22956 0.000345865 9.22956 0.000345527 9.22956C0.00034519 9.22956 0.000344852 9.22956 0.000344514 9.22956C0.000344176 9.22956 0.000343839 9.22956 0.000343501 9.22956C0.000343163 9.22956 0.000342825 9.22956 0.000342488 9.22956C0.00034215 9.22956 0.000341812 9.22956 0.000341474 9.22956C0.000341137 9.22956 0.000340799 9.22956 0.000340461 9.22956C0.000340123 9.22956 0.000339786 9.22956 0.000339448 9.22956C0.00033911 9.22956 0.000338772 9.22956 0.000338435 9.22956C0.000338097 9.22956 0.000337759 9.22956 0.000337421 9.22956C0.000337083 9.22956 0.000336746 9.22956 0.000336408 9.22956C0.00033607 9.22956 0.000335732 9.22956 0.000335395 9.22956C0.000335057 9.22956 0.000334719 9.22956 0.000334381 9.22956C0.000334044 9.22956 0.000333706 9.22956 0.000333368 9.22956C0.00033303 9.22956 0.000332693 9.22956 0.000332355 9.22956C0.000332017 9.22956 0.000331679 9.22956 0.000331342 9.22956C0.000331004 9.22956 0.000330666 9.22956 0.000330328 9.22956C0.000329991 9.22956 0.000329653 9.22956 0.000329315 9.22956C0.000328977 9.22956 0.000328639 9.22956 0.000328302 9.22956C0.000327964 9.22956 0.000327626 9.22956 0.000327288 9.22956C0.000326951 9.22956 0.000326613 9.22956 0.000326275 9.22956C0.000325937 9.22956 0.0003256 9.22956 0.000325262 9.22956C0.000324924 9.22956 0.000324586 9.22956 0.000324249 9.22956C0.000323911 9.22956 0.000323573 9.22956 0.000323235 9.22956C0.000322898 9.22956 0.00032256 9.22956 0.000322222 9.22956C0.000321884 9.22956 0.000321547 9.22956 0.000321209 9.22956C0.000320871 9.22956 0.000320533 9.22956 0.000320195 9.22956C0.000319858 9.22956 0.00031952 9.22956 0.000319182 9.22956C0.000318844 9.22956 0.000318507 9.22956 0.000318169 9.22956C0.000317831 9.22956 0.000317493 9.22956 0.000317156 9.22956C0.000316818 9.22956 0.00031648 9.22956 0.000316142 9.22956C0.000315805 9.22956 0.000315467 9.22956 0.000315129 9.22956C0.000314791 9.22956 0.000314454 9.22956 0.000314116 9.22956C0.000313778 9.22956 0.00031344 9.22956 0.000313103 9.22956C0.000312765 9.22956 0.000312427 9.22956 0.000312089 9.22956C0.000311751 9.22956 0.000311414 9.22956 0.000311076 9.22956C0.000310738 9.22956 0.0003104 9.22956 0.000310063 9.22956C0.000309725 9.22956 0.000309387 9.22956 0.000309049 9.22956C0.000308712 9.22956 0.000308374 9.22956 0.000308036 9.22956C0.000307698 9.22956 0.000307361 9.22956 0.000307023 9.22956C0.000306685 9.22956 0.000306347 9.22956 0.00030601 9.22956C0.000305672 9.22956 0.000305334 9.22956 0.000304996 9.22956C0.000304658 9.22956 0.000304321 9.22956 0.000303983 9.22956C0.000303645 9.22956 0.000303307 9.22956 0.00030297 9.22956C0.000302632 9.22956 0.000302294 9.22956 0.000301956 9.22956C0.000301619 9.22956 0.000301281 9.22956 0.000300943 9.22956C0.000300605 9.22956 0.000300268 9.22956 0.00029993 9.22956C0.000299592 9.22956 0.000299254 9.22956 0.000298917 9.22956C0.000298579 9.22956 0.000298241 9.22956 0.000297903 9.22956C0.000297566 9.22956 0.000297228 9.22956 0.00029689 9.22956C0.000296552 9.22956 0.000296215 9.22956 0.000295877 9.22956C0.000295539 9.22956 0.000295201 9.22956 0.000294863 9.22956C0.000294526 9.22956 0.000294188 9.22956 0.00029385 9.22956C0.000293512 9.22956 0.000293175 9.22956 0.000292837 9.22956C0.000292499 9.22956 0.000292161 9.22956 0.000291824 9.22956C0.000291486 9.22956 0.000291148 9.22956 0.00029081 9.22956C0.000290473 9.22956 0.000290135 9.22956 0.000289797 9.22956C0.000289459 9.22956 0.000289122 9.22956 0.000288784 9.22956C0.000288446 9.22956 0.000288108 9.22956 0.00028777 9.22956C0.000287433 9.22956 0.000287095 9.22956 0.000286757 9.22956C0.000286419 9.22956 0.000286082 9.22956 0.000285744 9.22956C0.000285406 9.22956 0.000285068 9.22956 0.000284731 9.22956C0.000284393 9.22956 0.000284055 9.22956 0.000283717 9.22956C0.00028338 9.22956 0.000283042 9.22956 0.000282704 9.22956C0.000282366 9.22956 0.000282029 9.22956 0.000281691 9.22956C0.000281353 9.22956 0.000281015 9.22956 0.000280678 9.22956C0.00028034 9.22956 0.000280002 9.22956 0.000279664 9.22956C0.000279327 9.22956 0.000278989 9.22956 0.000278651 9.22956C0.000278313 9.22956 0.000277975 9.22956 0.000277638 9.22956C0.0002773 9.22956 0.000276962 9.22956 0.000276624 9.22956C0.000276287 9.22956 0.000275949 9.22956 0.000275611 9.22956C0.000275273 9.22956 0.000274936 9.22956 0.000274598 9.22956C0.00027426 9.22956 0.000273922 9.22956 0.000273585 9.22956C0.000273247 9.22956 0.000272909 9.22956 0.000272571 9.22956C0.000272234 9.22956 0.000271896 9.22956 0.000271558 9.22956C0.00027122 9.22956 0.000270883 9.22956 0.000270545 9.22956C0.000270207 9.22956 0.000269869 9.22956 0.000269531 9.22956C0.000269194 9.22956 0.000268856 9.22956 0.000268518 9.22956C0.00026818 9.22956 0.000267843 9.22956 0.000267505 9.22956C0.000267167 9.22956 0.000266829 9.22956 0.000266492 9.22956C0.000266154 9.22956 0.000265816 9.22956 0.000265478 9.22956C0.000265141 9.22956 0.000264803 9.22956 0.000264465 9.22956C0.000264127 9.22956 0.00026379 9.22956 0.000263452 9.22956C0.000263114 9.22956 0.000262776 9.22956 0.000262439 9.22956C0.000262101 9.22956 0.000261763 9.22956 0.000261425 9.22956C0.000261087 9.22956 0.00026075 9.22956 0.000260412 9.22956C0.000260074 9.22956 0.000259736 9.22956 0.000259399 9.22956C0.000259061 9.22956 0.000258723 9.22956 0.000258385 9.22956C0.000258048 9.22956 0.00025771 9.22956 0.000257372 9.22956C0.000257034 9.22956 0.000256697 9.22956 0.000256359 9.22956C0.000256021 9.22956 0.000255683 9.22956 0.000255346 9.22956C0.000255008 9.22956 0.00025467 9.22956 0.000254332 9.22956C0.000253995 9.22956 0.000253657 9.22956 0.000253319 9.22956C0.000252981 9.22956 0.000252643 9.22956 0.000252306 9.22956C0.000251968 9.22956 0.00025163 9.22956 0.000251292 9.22956C0.000250955 9.22956 0.000250617 9.22956 0.000250279 9.22956C0.000249941 9.22956 0.000249604 9.22956 0.000249266 9.22956C0.000248928 9.22956 0.00024859 9.22956 0.000248253 9.22956C0.000247915 9.22956 0.000247577 9.22956 0.000247239 9.22956C0.000246902 9.22956 0.000246564 9.22956 0.000246226 9.22956C0.000245888 9.22956 0.000245551 9.22956 0.000245213 9.22956C0.000244875 9.22956 0.000244537 9.22956 0.0002442 9.22956C0.000243862 9.22956 0.000243524 9.22956 0.000243186 9.22956C0.000242848 9.22956 0.000242511 9.22956 0.000242173 9.22956C0.000241835 9.22956 0.000241497 9.22956 0.00024116 9.22956C0.000240822 9.22956 0.000240484 9.22956 0.000240146 9.22956C0.000239809 9.22956 0.000239471 9.22956 0.000239133 9.22956C0.000238795 9.22956 0.000238458 9.22956 0.00023812 9.22956C0.000237782 9.22956 0.000237444 9.22956 0.000237107 9.22956C0.000236769 9.22956 0.000236431 9.22956 0.000236093 9.22956C0.000235756 9.22956 0.000235418 9.22956 0.00023508 9.22956C0.000234742 9.22956 0.000234404 9.22956 0.000234067 9.22956C0.000233729 9.22956 0.000233391 9.22956 0.000233053 9.22956C0.000232716 9.22956 0.000232378 9.22956 0.00023204 9.22956C0.000231702 9.22956 0.000231365 9.22956 0.000231027 9.22956C0.000230689 9.22956 0.000230351 9.22956 0.000230014 9.22956C0.000229676 9.22956 0.000229338 9.22956 0.000229 9.22956C0.000228663 9.22956 0.000228325 9.22956 0.000227987 9.22956C0.000227649 9.22956 0.000227312 9.22956 0.000226974 9.22956C0.000226636 9.22956 0.000226298 9.22956 0.00022596 9.22956C0.000225623 9.22956 0.000225285 9.22956 0.000224947 9.22956C0.000224609 9.22956 0.000224272 9.22956 0.000223934 9.22956C0.000223596 9.22956 0.000223258 9.22956 0.000222921 9.22956C0.000222583 9.22956 0.000222245 9.22956 0.000221907 9.22956C0.00022157 9.22956 0.000221232 9.22956 0.000220894 9.22956C0.000220556 9.22956 0.000220219 9.22956 0.000219881 9.22956C0.000219543 9.22956 0.000219205 9.22956 0.000218868 9.22956C0.00021853 9.22956 0.000218192 9.22956 0.000217854 9.22956C0.000217517 9.22956 0.000217179 9.22956 0.000216841 9.22956C0.000216503 9.22956 0.000216165 9.22956 0.000215828 9.22956C0.00021549 9.22956 0.000215152 9.22956 0.000214814 9.22956C0.000214477 9.22956 0.000214139 9.22956 0.000213801 9.22956C0.000213463 9.22956 0.000213126 9.22956 0.000212788 9.22956C0.00021245 9.22956 0.000212112 9.22956 0.000211775 9.22956C0.000211437 9.22956 0.000211099 9.22956 0.000210761 9.22956C0.000210424 9.22956 0.000210086 9.22956 0.000209748 9.22956C0.00020941 9.22956 0.000209073 9.22956 0.000208735 9.22956C0.000208397 9.22956 0.000208059 9.22956 0.000207721 9.22956C0.000207384 9.22956 0.000207046 9.22956 0.000206708 9.22956C0.00020637 9.22956 0.000206033 9.22956 0.000205695 9.22956C0.000205357 9.22956 0.000205019 9.22956 0.000204682 9.22956C0.000204344 9.22956 0.000204006 9.22956 0.000203668 9.22956C0.000203331 9.22956 0.000202993 9.22956 0.000202655 9.22956C0.000202317 9.22956 0.00020198 9.22956 0.000201642 9.22956C0.000201304 9.22956 0.000200966 9.22956 0.000200629 9.22956C0.000200291 9.22956 0.000199953 9.22956 0.000199615 9.22956C0.000199278 9.22956 0.00019894 9.22956 0.000198602 9.22956C0.000198264 9.22956 0.000197926 9.22956 0.000197589 9.22956C0.000197251 9.22956 0.000196913 9.22956 0.000196575 9.22956C0.000196238 9.22956 0.0001959 9.22956 0.000195562 9.22956C0.000195224 9.22956 0.000194887 9.22956 0.000194549 9.22956C0.000194211 9.22956 0.000193873 9.22956 0.000193536 9.22956C0.000193198 9.22956 0.00019286 9.22956 0.000192522 9.22956C0.000192185 9.22956 0.000191847 9.22956 0.000191509 9.22956C0.000191171 9.22956 0.000190834 9.22956 0.000190496 9.22956C0.000190158 9.22956 0.00018982 9.22956 0.000189482 9.22956C0.000189145 9.22956 0.000188807 9.22956 0.000188469 9.22956C0.000188131 9.22956 0.000187794 9.22956 0.000187456 9.22956C0.000187118 9.22956 0.00018678 9.22956 0.000186443 9.22956C0.000186105 9.22956 0.000185767 9.22956 0.000185429 9.22956C0.000185092 9.22956 0.000184754 9.22956 0.000184416 9.22956C0.000184078 9.22956 0.000183741 9.22956 0.000183403 9.22956C0.000183065 9.22956 0.000182727 9.22956 0.00018239 9.22956C0.000182052 9.22956 0.000181714 9.22956 0.000181376 9.22956C0.000181039 9.22956 0.000180701 9.22956 0.000180363 9.22956C0.000180025 9.22956 0.000179687 9.22956 0.00017935 9.22956C0.000179012 9.22956 0.000178674 9.22956 0.000178336 9.22956C0.000177999 9.22956 0.000177661 9.22956 0.000177323 9.22956C0.000176985 9.22956 0.000176648 9.22956 0.00017631 9.22956C0.000175972 9.22956 0.000175634 9.22956 0.000175297 9.22956C0.000174959 9.22956 0.000174621 9.22956 0.000174283 9.22956C0.000173946 9.22956 0.000173608 9.22956 0.00017327 9.22956C0.000172932 9.22956 0.000172595 9.22956 0.000172257 9.22956C0.000171919 9.22956 0.000171581 9.22956 0.000171244 9.22956C0.000170906 9.22956 0.000170568 9.22956 0.00017023 9.22956C0.000169892 9.22956 0.000169555 9.22956 0.000169217 9.22956C0.000168879 9.22956 0.000168541 9.22956 0.000168204 9.22956C0.000167866 9.22956 0.000167528 9.22956 0.00016719 9.22956C0.000166853 9.22956 0.000166515 9.22956 0.000166177 9.22956C0.000165839 9.22956 0.000165502 9.22956 0.000165164 9.22956C0.000164826 9.22956 0.000164488 9.22956 0.000164151 9.22956C0.000163813 9.22956 0.000163475 9.22956 0.000163137 9.22956C0.0001628 9.22956 0.000162462 9.22956 0.000162124 9.22956C0.000161786 9.22956 0.000161448 9.22956 0.000161111 9.22956C0.000160773 9.22956 0.000160435 9.22956 0.000160097 9.22956C0.00015976 9.22956 0.000159422 9.22956 0.000159084 9.22956C0.000158746 9.22956 0.000158409 9.22956 0.000158071 9.22956C0.000157733 9.22956 0.000157395 9.22956 0.000157058 9.22956C0.00015672 9.22956 0.000156382 9.22956 0.000156044 9.22956C0.000155707 9.22956 0.000155369 9.22956 0.000155031 9.22956C0.000154693 9.22956 0.000154356 9.22956 0.000154018 9.22956C0.00015368 9.22956 0.000153342 9.22956 0.000153005 9.22956C0.000152667 9.22956 0.000152329 9.22956 0.000151991 9.22956C0.000151653 9.22956 0.000151316 9.22956 0.000150978 9.22956C0.00015064 9.22956 0.000150302 9.22956 0.000149965 9.22956C0.000149627 9.22956 0.000149289 9.22956 0.000148951 9.22956C0.000148614 9.22956 0.000148276 9.22956 0.000147938 9.22956C0.0001476 9.22956 0.000147263 9.22956 0.000146925 9.22956C0.000146587 9.22956 0.000146249 9.22956 0.000145912 9.22956C0.000145574 9.22956 0.000145236 9.22956 0.000144898 9.22956C0.000144561 9.22956 0.000144223 9.22956 0.000143885 9.22956C0.000143547 9.22956 0.00014321 9.22956 0.000142872 9.22956C0.000142534 9.22956 0.000142196 9.22956 0.000141858 9.22956C0.000141521 9.22956 0.000141183 9.22956 0.000140845 9.22956C0.000140507 9.22956 0.00014017 9.22956 0.000139832 9.22956C0.000139494 9.22956 0.000139156 9.22956 0.000138819 9.22956C0.000138481 9.22956 0.000138143 9.22956 0.000137805 9.22956C0.000137468 9.22956 0.00013713 9.22956 0.000136792 9.22956C0.000136454 9.22956 0.000136117 9.22956 0.000135779 9.22956C0.000135441 9.22956 0.000135103 9.22956 0.000134766 9.22956C0.000134428 9.22956 0.00013409 9.22956 0.000133752 9.22956C0.000133415 9.22956 0.000133077 9.22956 0.000132739 9.22956C0.000132401 9.22956 0.000132063 9.22956 0.000131726 9.22956C0.000131388 9.22956 0.00013105 9.22956 0.000130712 9.22956C0.000130375 9.22956 0.000130037 9.22956 0.000129699 9.22956C0.000129361 9.22956 0.000129024 9.22956 0.000128686 9.22956C0.000128348 9.22956 0.00012801 9.22956 0.000127673 9.22956C0.000127335 9.22956 0.000126997 9.22956 0.000126659 9.22956C0.000126322 9.22956 0.000125984 9.22956 0.000125646 9.22956C0.000125308 9.22956 0.000124971 9.22956 0.000124633 9.22956C0.000124295 9.22956 0.000123957 9.22956 0.00012362 9.22956C0.000123282 9.22956 0.000122944 9.22956 0.000122606 9.22956C0.000122268 9.22956 0.000121931 9.22956 0.000121593 9.22956C0.000121255 9.22956 0.000120917 9.22956 0.00012058 9.22956C0.000120242 9.22956 0.000119904 9.22956 0.000119566 9.22956C0.000119229 9.22956 0.000118891 9.22956 0.000118553 9.22956C0.000118215 9.22956 0.000117878 9.22956 0.00011754 9.22956C0.000117202 9.22956 0.000116864 9.22956 0.000116527 9.22956C0.000116189 9.22956 0.000115851 9.22956 0.000115513 9.22956C0.000115176 9.22956 0.000114838 9.22956 0.0001145 9.22956C0.000114162 9.22956 0.000113825 9.22956 0.000113487 9.22956C0.000113149 9.22956 0.000112811 9.22956 0.000112473 9.22956C0.000112136 9.22956 0.000111798 9.22956 0.00011146 9.22956C0.000111122 9.22956 0.000110785 9.22956 0.000110447 9.22956C0.000110109 9.22956 0.000109771 9.22956 0.000109434 9.22956C0.000109096 9.22956 0.000108758 9.22956 0.00010842 9.22956C0.000108083 9.22956 0.000107745 9.22956 0.000107407 9.22956C0.000107069 9.22956 0.000106732 9.22956 0.000106394 9.22956C0.000106056 9.22956 0.000105718 9.22956 0.000105381 9.22956C0.000105043 9.22956 0.000104705 9.22956 0.000104367 9.22956C0.00010403 9.22956 0.000103692 9.22956 0.000103354 9.22956C0.000103016 9.22956 0.000102678 9.22956 0.000102341 9.22956C0.000102003 9.22956 0.000101665 9.22956 0.000101327 9.22956C0.00010099 9.22956 0.000100652 9.22956 0.000100314 9.22956C9.99764e-05 9.22956 9.96387e-05 9.22956 9.93009e-05 9.22956C9.89631e-05 9.22956 9.86254e-05 9.22956 9.82876e-05 9.22956C9.79499e-05 9.22956 9.76121e-05 9.22956 9.72743e-05 9.22956C9.69366e-05 9.22956 9.65988e-05 9.22956 9.62611e-05 9.22956C9.59233e-05 9.22956 9.55855e-05 9.22956 9.52478e-05 9.22956C9.491e-05 9.22956 9.45723e-05 9.22956 9.42345e-05 9.22956C9.38968e-05 9.22956 9.3559e-05 9.22956 9.32212e-05 9.22956C9.28835e-05 9.22956 9.25457e-05 9.22956 9.2208e-05 9.22956C9.18702e-05 9.22956 9.15324e-05 9.22956 9.11947e-05 9.22956C9.08569e-05 9.22956 9.05192e-05 9.22956 9.01814e-05 9.22956C8.98437e-05 9.22956 8.95059e-05 9.22956 8.91681e-05 9.22956C8.88304e-05 9.22956 8.84926e-05 9.22956 8.81549e-05 9.22956C8.78171e-05 9.22956 8.74793e-05 9.22956 8.71416e-05 9.22956C8.68038e-05 9.22956 8.64661e-05 9.22956 8.61283e-05 9.22956C8.57906e-05 9.22956 8.54528e-05 9.22956 8.5115e-05 9.22956C8.47773e-05 9.22956 8.44395e-05 9.22956 8.41018e-05 9.22956C8.3764e-05 9.22956 8.34262e-05 9.22956 8.30885e-05 9.22956C8.27507e-05 9.22956 8.2413e-05 9.22956 8.20752e-05 9.22956C8.17375e-05 9.22956 8.13997e-05 9.22956 8.10619e-05 9.22956C8.07242e-05 9.22956 8.03864e-05 9.22956 8.00487e-05 9.22956C7.97109e-05 9.22956 7.93731e-05 9.22956 7.90354e-05 9.22956C7.86976e-05 9.22956 7.83599e-05 9.22956 7.80221e-05 9.22956C7.76844e-05 9.22956 7.73466e-05 9.22956 7.70088e-05 9.22956C7.66711e-05 9.22956 7.63333e-05 9.22956 7.59956e-05 9.22956C7.56578e-05 9.22956 7.532e-05 9.22956 7.49823e-05 9.22956C7.46445e-05 9.22956 7.43068e-05 9.22956 7.3969e-05 9.22956C7.36313e-05 9.22956 7.32935e-05 9.22956 7.29557e-05 9.22956C7.2618e-05 9.22956 7.22802e-05 9.22956 7.19425e-05 9.22956C7.16047e-05 9.22956 7.12669e-05 9.22956 7.09292e-05 9.22956C7.05914e-05 9.22956 7.02537e-05 9.22956 6.99159e-05 9.22956C6.95781e-05 9.22956 6.92404e-05 9.22956 6.89026e-05 9.22956C6.85649e-05 9.22956 6.82271e-05 9.22956 6.78894e-05 9.22956C6.75516e-05 9.22956 6.72138e-05 9.22956 6.68761e-05 9.22956C6.65383e-05 9.22956 6.62006e-05 9.22956 6.58628e-05 9.22956C6.55251e-05 9.22956 6.51873e-05 9.22956 6.48495e-05 9.22956C6.45118e-05 9.22956 6.4174e-05 9.22956 6.38363e-05 9.22956C6.34985e-05 9.22956 6.31607e-05 9.22956 6.2823e-05 9.22956C6.24852e-05 9.22956 6.21475e-05 9.22956 6.18097e-05 9.22956C6.1472e-05 9.22956 6.11342e-05 9.22956 6.07964e-05 9.22956C6.04587e-05 9.22956 6.01209e-05 9.22956 5.97832e-05 9.22956C5.94454e-05 9.22956 5.91076e-05 9.22956 5.87699e-05 9.22956C5.84321e-05 9.22956 5.80944e-05 9.22956 5.77566e-05 9.22956C5.74189e-05 9.22956 5.70811e-05 9.22956 5.67433e-05 9.22956C5.64056e-05 9.22956 5.60678e-05 9.22956 5.57301e-05 9.22956C5.53923e-05 9.22956 5.50545e-05 9.22956 5.47168e-05 9.22956C5.4379e-05 9.22956 5.40413e-05 9.22956 5.37035e-05 9.22956C5.33658e-05 9.22956 5.3028e-05 9.22956 5.26902e-05 9.22956C5.23525e-05 9.22956 5.20147e-05 9.22956 5.1677e-05 9.22956C5.13392e-05 9.22956 5.10015e-05 9.22956 5.06637e-05 9.22956C5.03259e-05 9.22956 4.99882e-05 9.22956 4.96504e-05 9.22956C4.93127e-05 9.22956 4.89749e-05 9.22956 4.86371e-05 9.22956C4.82994e-05 9.22956 4.79616e-05 9.22956 4.76239e-05 9.22956C4.72861e-05 9.22956 4.69484e-05 9.22956 4.66106e-05 9.22956C4.62728e-05 9.22956 4.59351e-05 9.22956 4.55973e-05 9.22956C4.52596e-05 9.22956 4.49218e-05 9.22956 4.4584e-05 9.22956C4.42463e-05 9.22956 4.39085e-05 9.22956 4.35708e-05 9.22956C4.3233e-05 9.22956 4.28953e-05 9.22956 4.25575e-05 9.22956C4.22197e-05 9.22956 4.1882e-05 9.22956 4.15442e-05 9.22956C4.12065e-05 9.22956 4.08687e-05 9.22956 4.0531e-05 9.22956C4.01932e-05 9.22956 3.98554e-05 9.22956 3.95177e-05 9.22956C3.91799e-05 9.22956 3.88422e-05 9.22956 3.85044e-05 9.22956C3.81666e-05 9.22956 3.78289e-05 9.22956 3.74911e-05 9.22956C3.71534e-05 9.22956 3.68156e-05 9.22956 3.64779e-05 9.22956C3.61401e-05 9.22956 3.58023e-05 9.22956 3.54646e-05 9.22956C3.51268e-05 9.22956 3.47891e-05 9.22956 3.44513e-05 9.22956C3.41135e-05 9.22956 3.37758e-05 9.22956 3.3438e-05 9.22956C3.31003e-05 9.22956 3.27625e-05 9.22956 3.24248e-05 9.22956C3.2087e-05 9.22956 3.17492e-05 9.22956 3.14115e-05 9.22956C3.10737e-05 9.22956 3.0736e-05 9.22956 3.03982e-05 9.22956C3.00605e-05 9.22956 2.97227e-05 9.22956 2.93849e-05 9.22956C2.90472e-05 9.22956 2.87094e-05 9.22956 2.83717e-05 9.22956C2.80339e-05 9.22956 2.76961e-05 9.22956 2.73584e-05 9.22956C2.70206e-05 9.22956 2.66829e-05 9.22956 2.63451e-05 9.22956C2.60074e-05 9.22956 2.56696e-05 9.22956 2.53318e-05 9.22956C2.49941e-05 9.22956 2.46563e-05 9.22956 2.43186e-05 9.22956C2.39808e-05 9.22956 2.3643e-05 9.22956 2.33053e-05 9.22956C2.29675e-05 9.22956 2.26298e-05 9.22956 2.2292e-05 9.22956C2.19543e-05 9.22956 2.16165e-05 9.22956 2.12787e-05 9.22956C2.0941e-05 9.22956 2.06032e-05 9.22956 2.02655e-05 9.22956C1.99277e-05 9.22956 1.959e-05 9.22956 1.92522e-05 9.22956C1.89144e-05 9.22956 1.85767e-05 9.22956 1.82389e-05 9.22956C1.79012e-05 9.22956 1.75634e-05 9.22956 1.72256e-05 9.22956C1.68879e-05 9.22956 1.65501e-05 9.22956 1.62124e-05 9.22956C1.58746e-05 9.22956 1.55369e-05 9.22956 1.51991e-05 9.22956C1.48613e-05 9.22956 1.45236e-05 9.22956 1.41858e-05 9.22956C1.38481e-05 9.22956 1.35103e-05 9.22956 1.31726e-05 9.22956C1.28348e-05 9.22956 1.2497e-05 9.22956 1.21593e-05 9.22956C1.18215e-05 9.22956 1.14838e-05 9.22956 1.1146e-05 9.22956C1.08082e-05 9.22956 1.04705e-05 9.22956 1.01327e-05 9.22956C9.79498e-06 9.22956 9.45722e-06 9.22956 9.11946e-06 9.22956C8.7817e-06 9.22956 8.44395e-06 9.22956 8.10619e-06 9.22956C7.76843e-06 9.22956 7.43067e-06 9.22956 7.09291e-06 9.22956C6.75516e-06 9.22956 6.4174e-06 9.22956 6.07964e-06 9.22956C5.74188e-06 9.22956 5.40412e-06 9.22956 5.06637e-06 9.22956C4.72861e-06 9.22956 4.39085e-06 9.22956 4.05309e-06 9.22956C3.71534e-06 9.22956 3.37758e-06 9.22956 3.03982e-06 9.22956C2.70206e-06 9.22956 2.3643e-06 9.22956 2.02655e-06 9.22956C1.68879e-06 9.22956 1.35103e-06 9.22956 1.01327e-06 9.22956C6.75516e-07 9.22956 3.37758e-07 9.22956 0 9.22956V11.5296C3.37758e-07 11.5296 6.75516e-07 11.5296 1.01327e-06 11.5296C1.35103e-06 11.5296 1.68879e-06 11.5296 2.02655e-06 11.5296C2.3643e-06 11.5296 2.70206e-06 11.5296 3.03982e-06 11.5296C3.37758e-06 11.5296 3.71534e-06 11.5296 4.05309e-06 11.5296C4.39085e-06 11.5296 4.72861e-06 11.5296 5.06637e-06 11.5296C5.40412e-06 11.5296 5.74188e-06 11.5296 6.07964e-06 11.5296C6.4174e-06 11.5296 6.75516e-06 11.5296 7.09291e-06 11.5296C7.43067e-06 11.5296 7.76843e-06 11.5296 8.10619e-06 11.5296C8.44395e-06 11.5296 8.7817e-06 11.5296 9.11946e-06 11.5296C9.45722e-06 11.5296 9.79498e-06 11.5296 1.01327e-05 11.5296C1.04705e-05 11.5296 1.08082e-05 11.5296 1.1146e-05 11.5296C1.14838e-05 11.5296 1.18215e-05 11.5296 1.21593e-05 11.5296C1.2497e-05 11.5296 1.28348e-05 11.5296 1.31726e-05 11.5296C1.35103e-05 11.5296 1.38481e-05 11.5296 1.41858e-05 11.5296C1.45236e-05 11.5296 1.48613e-05 11.5296 1.51991e-05 11.5296C1.55369e-05 11.5296 1.58746e-05 11.5296 1.62124e-05 11.5296C1.65501e-05 11.5296 1.68879e-05 11.5296 1.72256e-05 11.5296C1.75634e-05 11.5296 1.79012e-05 11.5296 1.82389e-05 11.5296C1.85767e-05 11.5296 1.89144e-05 11.5296 1.92522e-05 11.5296C1.959e-05 11.5296 1.99277e-05 11.5296 2.02655e-05 11.5296C2.06032e-05 11.5296 2.0941e-05 11.5296 2.12787e-05 11.5296C2.16165e-05 11.5296 2.19543e-05 11.5296 2.2292e-05 11.5296C2.26298e-05 11.5296 2.29675e-05 11.5296 2.33053e-05 11.5296C2.3643e-05 11.5296 2.39808e-05 11.5296 2.43186e-05 11.5296C2.46563e-05 11.5296 2.49941e-05 11.5296 2.53318e-05 11.5296C2.56696e-05 11.5296 2.60074e-05 11.5296 2.63451e-05 11.5296C2.66829e-05 11.5296 2.70206e-05 11.5296 2.73584e-05 11.5296C2.76961e-05 11.5296 2.80339e-05 11.5296 2.83717e-05 11.5296C2.87094e-05 11.5296 2.90472e-05 11.5296 2.93849e-05 11.5296C2.97227e-05 11.5296 3.00605e-05 11.5296 3.03982e-05 11.5296C3.0736e-05 11.5296 3.10737e-05 11.5296 3.14115e-05 11.5296C3.17492e-05 11.5296 3.2087e-05 11.5296 3.24248e-05 11.5296C3.27625e-05 11.5296 3.31003e-05 11.5296 3.3438e-05 11.5296C3.37758e-05 11.5296 3.41135e-05 11.5296 3.44513e-05 11.5296C3.47891e-05 11.5296 3.51268e-05 11.5296 3.54646e-05 11.5296C3.58023e-05 11.5296 3.61401e-05 11.5296 3.64779e-05 11.5296C3.68156e-05 11.5296 3.71534e-05 11.5296 3.74911e-05 11.5296C3.78289e-05 11.5296 3.81666e-05 11.5296 3.85044e-05 11.5296C3.88422e-05 11.5296 3.91799e-05 11.5296 3.95177e-05 11.5296C3.98554e-05 11.5296 4.01932e-05 11.5296 4.0531e-05 11.5296C4.08687e-05 11.5296 4.12065e-05 11.5296 4.15442e-05 11.5296C4.1882e-05 11.5296 4.22197e-05 11.5296 4.25575e-05 11.5296C4.28953e-05 11.5296 4.3233e-05 11.5296 4.35708e-05 11.5296C4.39085e-05 11.5296 4.42463e-05 11.5296 4.4584e-05 11.5296C4.49218e-05 11.5296 4.52596e-05 11.5296 4.55973e-05 11.5296C4.59351e-05 11.5296 4.62728e-05 11.5296 4.66106e-05 11.5296C4.69484e-05 11.5296 4.72861e-05 11.5296 4.76239e-05 11.5296C4.79616e-05 11.5296 4.82994e-05 11.5296 4.86371e-05 11.5296C4.89749e-05 11.5296 4.93127e-05 11.5296 4.96504e-05 11.5296C4.99882e-05 11.5296 5.03259e-05 11.5296 5.06637e-05 11.5296C5.10015e-05 11.5296 5.13392e-05 11.5296 5.1677e-05 11.5296C5.20147e-05 11.5296 5.23525e-05 11.5296 5.26902e-05 11.5296C5.3028e-05 11.5296 5.33658e-05 11.5296 5.37035e-05 11.5296C5.40413e-05 11.5296 5.4379e-05 11.5296 5.47168e-05 11.5296C5.50545e-05 11.5296 5.53923e-05 11.5296 5.57301e-05 11.5296C5.60678e-05 11.5296 5.64056e-05 11.5296 5.67433e-05 11.5296C5.70811e-05 11.5296 5.74189e-05 11.5296 5.77566e-05 11.5296C5.80944e-05 11.5296 5.84321e-05 11.5296 5.87699e-05 11.5296C5.91076e-05 11.5296 5.94454e-05 11.5296 5.97832e-05 11.5296C6.01209e-05 11.5296 6.04587e-05 11.5296 6.07964e-05 11.5296C6.11342e-05 11.5296 6.1472e-05 11.5296 6.18097e-05 11.5296C6.21475e-05 11.5296 6.24852e-05 11.5296 6.2823e-05 11.5296C6.31607e-05 11.5296 6.34985e-05 11.5296 6.38363e-05 11.5296C6.4174e-05 11.5296 6.45118e-05 11.5296 6.48495e-05 11.5296C6.51873e-05 11.5296 6.55251e-05 11.5296 6.58628e-05 11.5296C6.62006e-05 11.5296 6.65383e-05 11.5296 6.68761e-05 11.5296C6.72138e-05 11.5296 6.75516e-05 11.5296 6.78894e-05 11.5296C6.82271e-05 11.5296 6.85649e-05 11.5296 6.89026e-05 11.5296C6.92404e-05 11.5296 6.95781e-05 11.5296 6.99159e-05 11.5296C7.02537e-05 11.5296 7.05914e-05 11.5296 7.09292e-05 11.5296C7.12669e-05 11.5296 7.16047e-05 11.5296 7.19425e-05 11.5296C7.22802e-05 11.5296 7.2618e-05 11.5296 7.29557e-05 11.5296C7.32935e-05 11.5296 7.36313e-05 11.5296 7.3969e-05 11.5296C7.43068e-05 11.5296 7.46445e-05 11.5296 7.49823e-05 11.5296C7.532e-05 11.5296 7.56578e-05 11.5296 7.59956e-05 11.5296C7.63333e-05 11.5296 7.66711e-05 11.5296 7.70088e-05 11.5296C7.73466e-05 11.5296 7.76844e-05 11.5296 7.80221e-05 11.5296C7.83599e-05 11.5296 7.86976e-05 11.5296 7.90354e-05 11.5296C7.93731e-05 11.5296 7.97109e-05 11.5296 8.00487e-05 11.5296C8.03864e-05 11.5296 8.07242e-05 11.5296 8.10619e-05 11.5296C8.13997e-05 11.5296 8.17375e-05 11.5296 8.20752e-05 11.5296C8.2413e-05 11.5296 8.27507e-05 11.5296 8.30885e-05 11.5296C8.34262e-05 11.5296 8.3764e-05 11.5296 8.41018e-05 11.5296C8.44395e-05 11.5296 8.47773e-05 11.5296 8.5115e-05 11.5296C8.54528e-05 11.5296 8.57906e-05 11.5296 8.61283e-05 11.5296C8.64661e-05 11.5296 8.68038e-05 11.5296 8.71416e-05 11.5296C8.74793e-05 11.5296 8.78171e-05 11.5296 8.81549e-05 11.5296C8.84926e-05 11.5296 8.88304e-05 11.5296 8.91681e-05 11.5296C8.95059e-05 11.5296 8.98437e-05 11.5296 9.01814e-05 11.5296C9.05192e-05 11.5296 9.08569e-05 11.5296 9.11947e-05 11.5296C9.15324e-05 11.5296 9.18702e-05 11.5296 9.2208e-05 11.5296C9.25457e-05 11.5296 9.28835e-05 11.5296 9.32212e-05 11.5296C9.3559e-05 11.5296 9.38968e-05 11.5296 9.42345e-05 11.5296C9.45723e-05 11.5296 9.491e-05 11.5296 9.52478e-05 11.5296C9.55855e-05 11.5296 9.59233e-05 11.5296 9.62611e-05 11.5296C9.65988e-05 11.5296 9.69366e-05 11.5296 9.72743e-05 11.5296C9.76121e-05 11.5296 9.79499e-05 11.5296 9.82876e-05 11.5296C9.86254e-05 11.5296 9.89631e-05 11.5296 9.93009e-05 11.5296C9.96387e-05 11.5296 9.99764e-05 11.5296 0.000100314 11.5296C0.000100652 11.5296 0.00010099 11.5296 0.000101327 11.5296C0.000101665 11.5296 0.000102003 11.5296 0.000102341 11.5296C0.000102678 11.5296 0.000103016 11.5296 0.000103354 11.5296C0.000103692 11.5296 0.00010403 11.5296 0.000104367 11.5296C0.000104705 11.5296 0.000105043 11.5296 0.000105381 11.5296C0.000105718 11.5296 0.000106056 11.5296 0.000106394 11.5296C0.000106732 11.5296 0.000107069 11.5296 0.000107407 11.5296C0.000107745 11.5296 0.000108083 11.5296 0.00010842 11.5296C0.000108758 11.5296 0.000109096 11.5296 0.000109434 11.5296C0.000109771 11.5296 0.000110109 11.5296 0.000110447 11.5296C0.000110785 11.5296 0.000111122 11.5296 0.00011146 11.5296C0.000111798 11.5296 0.000112136 11.5296 0.000112473 11.5296C0.000112811 11.5296 0.000113149 11.5296 0.000113487 11.5296C0.000113825 11.5296 0.000114162 11.5296 0.0001145 11.5296C0.000114838 11.5296 0.000115176 11.5296 0.000115513 11.5296C0.000115851 11.5296 0.000116189 11.5296 0.000116527 11.5296C0.000116864 11.5296 0.000117202 11.5296 0.00011754 11.5296C0.000117878 11.5296 0.000118215 11.5296 0.000118553 11.5296C0.000118891 11.5296 0.000119229 11.5296 0.000119566 11.5296C0.000119904 11.5296 0.000120242 11.5296 0.00012058 11.5296C0.000120917 11.5296 0.000121255 11.5296 0.000121593 11.5296C0.000121931 11.5296 0.000122268 11.5296 0.000122606 11.5296C0.000122944 11.5296 0.000123282 11.5296 0.00012362 11.5296C0.000123957 11.5296 0.000124295 11.5296 0.000124633 11.5296C0.000124971 11.5296 0.000125308 11.5296 0.000125646 11.5296C0.000125984 11.5296 0.000126322 11.5296 0.000126659 11.5296C0.000126997 11.5296 0.000127335 11.5296 0.000127673 11.5296C0.00012801 11.5296 0.000128348 11.5296 0.000128686 11.5296C0.000129024 11.5296 0.000129361 11.5296 0.000129699 11.5296C0.000130037 11.5296 0.000130375 11.5296 0.000130712 11.5296C0.00013105 11.5296 0.000131388 11.5296 0.000131726 11.5296C0.000132063 11.5296 0.000132401 11.5296 0.000132739 11.5296C0.000133077 11.5296 0.000133415 11.5296 0.000133752 11.5296C0.00013409 11.5296 0.000134428 11.5296 0.000134766 11.5296C0.000135103 11.5296 0.000135441 11.5296 0.000135779 11.5296C0.000136117 11.5296 0.000136454 11.5296 0.000136792 11.5296C0.00013713 11.5296 0.000137468 11.5296 0.000137805 11.5296C0.000138143 11.5296 0.000138481 11.5296 0.000138819 11.5296C0.000139156 11.5296 0.000139494 11.5296 0.000139832 11.5296C0.00014017 11.5296 0.000140507 11.5296 0.000140845 11.5296C0.000141183 11.5296 0.000141521 11.5296 0.000141858 11.5296C0.000142196 11.5296 0.000142534 11.5296 0.000142872 11.5296C0.00014321 11.5296 0.000143547 11.5296 0.000143885 11.5296C0.000144223 11.5296 0.000144561 11.5296 0.000144898 11.5296C0.000145236 11.5296 0.000145574 11.5296 0.000145912 11.5296C0.000146249 11.5296 0.000146587 11.5296 0.000146925 11.5296C0.000147263 11.5296 0.0001476 11.5296 0.000147938 11.5296C0.000148276 11.5296 0.000148614 11.5296 0.000148951 11.5296C0.000149289 11.5296 0.000149627 11.5296 0.000149965 11.5296C0.000150302 11.5296 0.00015064 11.5296 0.000150978 11.5296C0.000151316 11.5296 0.000151653 11.5296 0.000151991 11.5296C0.000152329 11.5296 0.000152667 11.5296 0.000153005 11.5296C0.000153342 11.5296 0.00015368 11.5296 0.000154018 11.5296C0.000154356 11.5296 0.000154693 11.5296 0.000155031 11.5296C0.000155369 11.5296 0.000155707 11.5296 0.000156044 11.5296C0.000156382 11.5296 0.00015672 11.5296 0.000157058 11.5296C0.000157395 11.5296 0.000157733 11.5296 0.000158071 11.5296C0.000158409 11.5296 0.000158746 11.5296 0.000159084 11.5296C0.000159422 11.5296 0.00015976 11.5296 0.000160097 11.5296C0.000160435 11.5296 0.000160773 11.5296 0.000161111 11.5296C0.000161448 11.5296 0.000161786 11.5296 0.000162124 11.5296C0.000162462 11.5296 0.0001628 11.5296 0.000163137 11.5296C0.000163475 11.5296 0.000163813 11.5296 0.000164151 11.5296C0.000164488 11.5296 0.000164826 11.5296 0.000165164 11.5296C0.000165502 11.5296 0.000165839 11.5296 0.000166177 11.5296C0.000166515 11.5296 0.000166853 11.5296 0.00016719 11.5296C0.000167528 11.5296 0.000167866 11.5296 0.000168204 11.5296C0.000168541 11.5296 0.000168879 11.5296 0.000169217 11.5296C0.000169555 11.5296 0.000169892 11.5296 0.00017023 11.5296C0.000170568 11.5296 0.000170906 11.5296 0.000171244 11.5296C0.000171581 11.5296 0.000171919 11.5296 0.000172257 11.5296C0.000172595 11.5296 0.000172932 11.5296 0.00017327 11.5296C0.000173608 11.5296 0.000173946 11.5296 0.000174283 11.5296C0.000174621 11.5296 0.000174959 11.5296 0.000175297 11.5296C0.000175634 11.5296 0.000175972 11.5296 0.00017631 11.5296C0.000176648 11.5296 0.000176985 11.5296 0.000177323 11.5296C0.000177661 11.5296 0.000177999 11.5296 0.000178336 11.5296C0.000178674 11.5296 0.000179012 11.5296 0.00017935 11.5296C0.000179687 11.5296 0.000180025 11.5296 0.000180363 11.5296C0.000180701 11.5296 0.000181039 11.5296 0.000181376 11.5296C0.000181714 11.5296 0.000182052 11.5296 0.00018239 11.5296C0.000182727 11.5296 0.000183065 11.5296 0.000183403 11.5296C0.000183741 11.5296 0.000184078 11.5296 0.000184416 11.5296C0.000184754 11.5296 0.000185092 11.5296 0.000185429 11.5296C0.000185767 11.5296 0.000186105 11.5296 0.000186443 11.5296C0.00018678 11.5296 0.000187118 11.5296 0.000187456 11.5296C0.000187794 11.5296 0.000188131 11.5296 0.000188469 11.5296C0.000188807 11.5296 0.000189145 11.5296 0.000189482 11.5296C0.00018982 11.5296 0.000190158 11.5296 0.000190496 11.5296C0.000190834 11.5296 0.000191171 11.5296 0.000191509 11.5296C0.000191847 11.5296 0.000192185 11.5296 0.000192522 11.5296C0.00019286 11.5296 0.000193198 11.5296 0.000193536 11.5296C0.000193873 11.5296 0.000194211 11.5296 0.000194549 11.5296C0.000194887 11.5296 0.000195224 11.5296 0.000195562 11.5296C0.0001959 11.5296 0.000196238 11.5296 0.000196575 11.5296C0.000196913 11.5296 0.000197251 11.5296 0.000197589 11.5296C0.000197926 11.5296 0.000198264 11.5296 0.000198602 11.5296C0.00019894 11.5296 0.000199278 11.5296 0.000199615 11.5296C0.000199953 11.5296 0.000200291 11.5296 0.000200629 11.5296C0.000200966 11.5296 0.000201304 11.5296 0.000201642 11.5296C0.00020198 11.5296 0.000202317 11.5296 0.000202655 11.5296C0.000202993 11.5296 0.000203331 11.5296 0.000203668 11.5296C0.000204006 11.5296 0.000204344 11.5296 0.000204682 11.5296C0.000205019 11.5296 0.000205357 11.5296 0.000205695 11.5296C0.000206033 11.5296 0.00020637 11.5296 0.000206708 11.5296C0.000207046 11.5296 0.000207384 11.5296 0.000207721 11.5296C0.000208059 11.5296 0.000208397 11.5296 0.000208735 11.5296C0.000209073 11.5296 0.00020941 11.5296 0.000209748 11.5296C0.000210086 11.5296 0.000210424 11.5296 0.000210761 11.5296C0.000211099 11.5296 0.000211437 11.5296 0.000211775 11.5296C0.000212112 11.5296 0.00021245 11.5296 0.000212788 11.5296C0.000213126 11.5296 0.000213463 11.5296 0.000213801 11.5296C0.000214139 11.5296 0.000214477 11.5296 0.000214814 11.5296C0.000215152 11.5296 0.00021549 11.5296 0.000215828 11.5296C0.000216165 11.5296 0.000216503 11.5296 0.000216841 11.5296C0.000217179 11.5296 0.000217517 11.5296 0.000217854 11.5296C0.000218192 11.5296 0.00021853 11.5296 0.000218868 11.5296C0.000219205 11.5296 0.000219543 11.5296 0.000219881 11.5296C0.000220219 11.5296 0.000220556 11.5296 0.000220894 11.5296C0.000221232 11.5296 0.00022157 11.5296 0.000221907 11.5296C0.000222245 11.5296 0.000222583 11.5296 0.000222921 11.5296C0.000223258 11.5296 0.000223596 11.5296 0.000223934 11.5296C0.000224272 11.5296 0.000224609 11.5296 0.000224947 11.5296C0.000225285 11.5296 0.000225623 11.5296 0.00022596 11.5296C0.000226298 11.5296 0.000226636 11.5296 0.000226974 11.5296C0.000227312 11.5296 0.000227649 11.5296 0.000227987 11.5296C0.000228325 11.5296 0.000228663 11.5296 0.000229 11.5296C0.000229338 11.5296 0.000229676 11.5296 0.000230014 11.5296C0.000230351 11.5296 0.000230689 11.5296 0.000231027 11.5296C0.000231365 11.5296 0.000231702 11.5296 0.00023204 11.5296C0.000232378 11.5296 0.000232716 11.5296 0.000233053 11.5296C0.000233391 11.5296 0.000233729 11.5296 0.000234067 11.5296C0.000234404 11.5296 0.000234742 11.5296 0.00023508 11.5296C0.000235418 11.5296 0.000235756 11.5296 0.000236093 11.5296C0.000236431 11.5296 0.000236769 11.5296 0.000237107 11.5296C0.000237444 11.5296 0.000237782 11.5296 0.00023812 11.5296C0.000238458 11.5296 0.000238795 11.5296 0.000239133 11.5296C0.000239471 11.5296 0.000239809 11.5296 0.000240146 11.5296C0.000240484 11.5296 0.000240822 11.5296 0.00024116 11.5296C0.000241497 11.5296 0.000241835 11.5296 0.000242173 11.5296C0.000242511 11.5296 0.000242848 11.5296 0.000243186 11.5296C0.000243524 11.5296 0.000243862 11.5296 0.0002442 11.5296C0.000244537 11.5296 0.000244875 11.5296 0.000245213 11.5296C0.000245551 11.5296 0.000245888 11.5296 0.000246226 11.5296C0.000246564 11.5296 0.000246902 11.5296 0.000247239 11.5296C0.000247577 11.5296 0.000247915 11.5296 0.000248253 11.5296C0.00024859 11.5296 0.000248928 11.5296 0.000249266 11.5296C0.000249604 11.5296 0.000249941 11.5296 0.000250279 11.5296C0.000250617 11.5296 0.000250955 11.5296 0.000251292 11.5296C0.00025163 11.5296 0.000251968 11.5296 0.000252306 11.5296C0.000252643 11.5296 0.000252981 11.5296 0.000253319 11.5296C0.000253657 11.5296 0.000253995 11.5296 0.000254332 11.5296C0.00025467 11.5296 0.000255008 11.5296 0.000255346 11.5296C0.000255683 11.5296 0.000256021 11.5296 0.000256359 11.5296C0.000256697 11.5296 0.000257034 11.5296 0.000257372 11.5296C0.00025771 11.5296 0.000258048 11.5296 0.000258385 11.5296C0.000258723 11.5296 0.000259061 11.5296 0.000259399 11.5296C0.000259736 11.5296 0.000260074 11.5296 0.000260412 11.5296C0.00026075 11.5296 0.000261087 11.5296 0.000261425 11.5296C0.000261763 11.5296 0.000262101 11.5296 0.000262439 11.5296C0.000262776 11.5296 0.000263114 11.5296 0.000263452 11.5296C0.00026379 11.5296 0.000264127 11.5296 0.000264465 11.5296C0.000264803 11.5296 0.000265141 11.5296 0.000265478 11.5296C0.000265816 11.5296 0.000266154 11.5296 0.000266492 11.5296C0.000266829 11.5296 0.000267167 11.5296 0.000267505 11.5296C0.000267843 11.5296 0.00026818 11.5296 0.000268518 11.5296C0.000268856 11.5296 0.000269194 11.5296 0.000269531 11.5296C0.000269869 11.5296 0.000270207 11.5296 0.000270545 11.5296C0.000270883 11.5296 0.00027122 11.5296 0.000271558 11.5296C0.000271896 11.5296 0.000272234 11.5296 0.000272571 11.5296C0.000272909 11.5296 0.000273247 11.5296 0.000273585 11.5296C0.000273922 11.5296 0.00027426 11.5296 0.000274598 11.5296C0.000274936 11.5296 0.000275273 11.5296 0.000275611 11.5296C0.000275949 11.5296 0.000276287 11.5296 0.000276624 11.5296C0.000276962 11.5296 0.0002773 11.5296 0.000277638 11.5296C0.000277975 11.5296 0.000278313 11.5296 0.000278651 11.5296C0.000278989 11.5296 0.000279327 11.5296 0.000279664 11.5296C0.000280002 11.5296 0.00028034 11.5296 0.000280678 11.5296C0.000281015 11.5296 0.000281353 11.5296 0.000281691 11.5296C0.000282029 11.5296 0.000282366 11.5296 0.000282704 11.5296C0.000283042 11.5296 0.00028338 11.5296 0.000283717 11.5296C0.000284055 11.5296 0.000284393 11.5296 0.000284731 11.5296C0.000285068 11.5296 0.000285406 11.5296 0.000285744 11.5296C0.000286082 11.5296 0.000286419 11.5296 0.000286757 11.5296C0.000287095 11.5296 0.000287433 11.5296 0.00028777 11.5296C0.000288108 11.5296 0.000288446 11.5296 0.000288784 11.5296C0.000289122 11.5296 0.000289459 11.5296 0.000289797 11.5296C0.000290135 11.5296 0.000290473 11.5296 0.00029081 11.5296C0.000291148 11.5296 0.000291486 11.5296 0.000291824 11.5296C0.000292161 11.5296 0.000292499 11.5296 0.000292837 11.5296C0.000293175 11.5296 0.000293512 11.5296 0.00029385 11.5296C0.000294188 11.5296 0.000294526 11.5296 0.000294863 11.5296C0.000295201 11.5296 0.000295539 11.5296 0.000295877 11.5296C0.000296215 11.5296 0.000296552 11.5296 0.00029689 11.5296C0.000297228 11.5296 0.000297566 11.5296 0.000297903 11.5296C0.000298241 11.5296 0.000298579 11.5296 0.000298917 11.5296C0.000299254 11.5296 0.000299592 11.5296 0.00029993 11.5296C0.000300268 11.5296 0.000300605 11.5296 0.000300943 11.5296C0.000301281 11.5296 0.000301619 11.5296 0.000301956 11.5296C0.000302294 11.5296 0.000302632 11.5296 0.00030297 11.5296C0.000303307 11.5296 0.000303645 11.5296 0.000303983 11.5296C0.000304321 11.5296 0.000304658 11.5296 0.000304996 11.5296C0.000305334 11.5296 0.000305672 11.5296 0.00030601 11.5296C0.000306347 11.5296 0.000306685 11.5296 0.000307023 11.5296C0.000307361 11.5296 0.000307698 11.5296 0.000308036 11.5296C0.000308374 11.5296 0.000308712 11.5296 0.000309049 11.5296C0.000309387 11.5296 0.000309725 11.5296 0.000310063 11.5296C0.0003104 11.5296 0.000310738 11.5296 0.000311076 11.5296C0.000311414 11.5296 0.000311751 11.5296 0.000312089 11.5296C0.000312427 11.5296 0.000312765 11.5296 0.000313103 11.5296C0.00031344 11.5296 0.000313778 11.5296 0.000314116 11.5296C0.000314454 11.5296 0.000314791 11.5296 0.000315129 11.5296C0.000315467 11.5296 0.000315805 11.5296 0.000316142 11.5296C0.00031648 11.5296 0.000316818 11.5296 0.000317156 11.5296C0.000317493 11.5296 0.000317831 11.5296 0.000318169 11.5296C0.000318507 11.5296 0.000318844 11.5296 0.000319182 11.5296C0.00031952 11.5296 0.000319858 11.5296 0.000320195 11.5296C0.000320533 11.5296 0.000320871 11.5296 0.000321209 11.5296C0.000321547 11.5296 0.000321884 11.5296 0.000322222 11.5296C0.00032256 11.5296 0.000322898 11.5296 0.000323235 11.5296C0.000323573 11.5296 0.000323911 11.5296 0.000324249 11.5296C0.000324586 11.5296 0.000324924 11.5296 0.000325262 11.5296C0.0003256 11.5296 0.000325937 11.5296 0.000326275 11.5296C0.000326613 11.5296 0.000326951 11.5296 0.000327288 11.5296C0.000327626 11.5296 0.000327964 11.5296 0.000328302 11.5296C0.000328639 11.5296 0.000328977 11.5296 0.000329315 11.5296C0.000329653 11.5296 0.000329991 11.5296 0.000330328 11.5296C0.000330666 11.5296 0.000331004 11.5296 0.000331342 11.5296C0.000331679 11.5296 0.000332017 11.5296 0.000332355 11.5296C0.000332693 11.5296 0.00033303 11.5296 0.000333368 11.5296C0.000333706 11.5296 0.000334044 11.5296 0.000334381 11.5296C0.000334719 11.5296 0.000335057 11.5296 0.000335395 11.5296C0.000335732 11.5296 0.00033607 11.5296 0.000336408 11.5296C0.000336746 11.5296 0.000337083 11.5296 0.000337421 11.5296C0.000337759 11.5296 0.000338097 11.5296 0.000338435 11.5296C0.000338772 11.5296 0.00033911 11.5296 0.000339448 11.5296C0.000339786 11.5296 0.000340123 11.5296 0.000340461 11.5296C0.000340799 11.5296 0.000341137 11.5296 0.000341474 11.5296C0.000341812 11.5296 0.00034215 11.5296 0.000342488 11.5296C0.000342825 11.5296 0.000343163 11.5296 0.000343501 11.5296C0.000343839 11.5296 0.000344176 11.5296 0.000344514 11.5296C0.000344852 11.5296 0.00034519 11.5296 0.000345527 11.5296C0.000345865 11.5296 0.000346203 11.5296 0.000346541 11.5296C0.000346879 11.5296 0.000347216 11.5296 0.000347554 11.5296C0.000347892 11.5296 0.00034823 11.5296 0.000348567 11.5296C0.000348905 11.5296 0.000349243 11.5296 0.000349581 11.5296C0.000349918 11.5296 0.000350256 11.5296 0.000350594 11.5296C0.000350932 11.5296 0.000351269 11.5296 0.000351607 11.5296C0.000351945 11.5296 0.000352283 11.5296 0.00035262 11.5296C0.000352958 11.5296 0.000353296 11.5296 0.000353634 11.5296C0.000353971 11.5296 0.000354309 11.5296 0.000354647 11.5296C0.000354985 11.5296 0.000355323 11.5296 0.00035566 11.5296C0.000355998 11.5296 0.000356336 11.5296 0.000356674 11.5296C0.000357011 11.5296 0.000357349 11.5296 0.000357687 11.5296C0.000358025 11.5296 0.000358362 11.5296 0.0003587 11.5296C0.000359038 11.5296 0.000359376 11.5296 0.000359713 11.5296C0.000360051 11.5296 0.000360389 11.5296 0.000360727 11.5296C0.000361064 11.5296 0.000361402 11.5296 0.00036174 11.5296C0.000362078 11.5296 0.000362416 11.5296 0.000362753 11.5296C0.000363091 11.5296 0.000363429 11.5296 0.000363767 11.5296C0.000364104 11.5296 0.000364442 11.5296 0.00036478 11.5296C0.000365118 11.5296 0.000365455 11.5296 0.000365793 11.5296C0.000366131 11.5296 0.000366469 11.5296 0.000366806 11.5296C0.000367144 11.5296 0.000367482 11.5296 0.00036782 11.5296C0.000368157 11.5296 0.000368495 11.5296 0.000368833 11.5296C0.000369171 11.5296 0.000369508 11.5296 0.000369846 11.5296C0.000370184 11.5296 0.000370522 11.5296 0.00037086 11.5296C0.000371197 11.5296 0.000371535 11.5296 0.000371873 11.5296C0.000372211 11.5296 0.000372548 11.5296 0.000372886 11.5296C0.000373224 11.5296 0.000373562 11.5296 0.000373899 11.5296C0.000374237 11.5296 0.000374575 11.5296 0.000374913 11.5296C0.00037525 11.5296 0.000375588 11.5296 0.000375926 11.5296C0.000376264 11.5296 0.000376601 11.5296 0.000376939 11.5296C0.000377277 11.5296 0.000377615 11.5296 0.000377952 11.5296C0.00037829 11.5296 0.000378628 11.5296 0.000378966 11.5296C0.000379304 11.5296 0.000379641 11.5296 0.000379979 11.5296C0.000380317 11.5296 0.000380655 11.5296 0.000380992 11.5296C0.00038133 11.5296 0.000381668 11.5296 0.000382006 11.5296C0.000382343 11.5296 0.000382681 11.5296 0.000383019 11.5296C0.000383357 11.5296 0.000383694 11.5296 0.000384032 11.5296C0.00038437 11.5296 0.000384708 11.5296 0.000385045 11.5296C0.000385383 11.5296 0.000385721 11.5296 0.000386059 11.5296C0.000386396 11.5296 0.000386734 11.5296 0.000387072 11.5296C0.00038741 11.5296 0.000387748 11.5296 0.000388085 11.5296C0.000388423 11.5296 0.000388761 11.5296 0.000389099 11.5296C0.000389436 11.5296 0.000389774 11.5296 0.000390112 11.5296C0.00039045 11.5296 0.000390787 11.5296 0.000391125 11.5296C0.000391463 11.5296 0.000391801 11.5296 0.000392138 11.5296C0.000392476 11.5296 0.000392814 11.5296 0.000393152 11.5296C0.000393489 11.5296 0.000393827 11.5296 0.000394165 11.5296C0.000394503 11.5296 0.000394841 11.5296 0.000395178 11.5296C0.000395516 11.5296 0.000395854 11.5296 0.000396192 11.5296C0.000396529 11.5296 0.000396867 11.5296 0.000397205 11.5296C0.000397543 11.5296 0.00039788 11.5296 0.000398218 11.5296C0.000398556 11.5296 0.000398894 11.5296 0.000399231 11.5296C0.000399569 11.5296 0.000399907 11.5296 0.000400245 11.5296C0.000400582 11.5296 0.00040092 11.5296 0.000401258 11.5296C0.000401596 11.5296 0.000401933 11.5296 0.000402271 11.5296C0.000402609 11.5296 0.000402947 11.5296 0.000403285 11.5296C0.000403622 11.5296 0.00040396 11.5296 0.000404298 11.5296C0.000404636 11.5296 0.000404973 11.5296 0.000405311 11.5296C0.000405649 11.5296 0.000405987 11.5296 0.000406324 11.5296C0.000406662 11.5296 0.000407 11.5296 0.000407338 11.5296C0.000407675 11.5296 0.000408013 11.5296 0.000408351 11.5296C0.000408689 11.5296 0.000409026 11.5296 0.000409364 11.5296C0.000409702 11.5296 0.00041004 11.5296 0.000410377 11.5296C0.000410715 11.5296 0.000411053 11.5296 0.000411391 11.5296C0.000411729 11.5296 0.000412066 11.5296 0.000412404 11.5296C0.000412742 11.5296 0.00041308 11.5296 0.000413417 11.5296C0.000413755 11.5296 0.000414093 11.5296 0.000414431 11.5296C0.000414768 11.5296 0.000415106 11.5296 0.000415444 11.5296C0.000415782 11.5296 0.000416119 11.5296 0.000416457 11.5296C0.000416795 11.5296 0.000417133 11.5296 0.00041747 11.5296C0.000417808 11.5296 0.000418146 11.5296 0.000418484 11.5296C0.000418822 11.5296 0.000419159 11.5296 0.000419497 11.5296C0.000419835 11.5296 0.000420173 11.5296 0.00042051 11.5296C0.000420848 11.5296 0.000421186 11.5296 0.000421524 11.5296C0.000421861 11.5296 0.000422199 11.5296 0.000422537 11.5296C0.000422875 11.5296 0.000423212 11.5296 0.00042355 11.5296C0.000423888 11.5296 0.000424226 11.5296 0.000424563 11.5296C0.000424901 11.5296 0.000425239 11.5296 0.000425577 11.5296C0.000425915 11.5296 0.000426252 11.5296 0.00042659 11.5296C0.000426928 11.5296 0.000427266 11.5296 0.000427603 11.5296C0.000427941 11.5296 0.000428279 11.5296 0.000428617 11.5296C0.000428954 11.5296 0.000429292 11.5296 0.00042963 11.5296C0.000429968 11.5296 0.000430305 11.5296 0.000430643 11.5296C0.000430981 11.5296 0.000431319 11.5296 0.000431656 11.5296C0.000431994 11.5296 0.000432332 11.5296 0.00043267 11.5296C0.000433007 11.5296 0.000433345 11.5296 0.000433683 11.5296C0.000434021 11.5296 0.000434359 11.5296 0.000434696 11.5296C0.000435034 11.5296 0.000435372 11.5296 0.00043571 11.5296C0.000436047 11.5296 0.000436385 11.5296 0.000436723 11.5296C0.000437061 11.5296 0.000437398 11.5296 0.000437736 11.5296C0.000438074 11.5296 0.000438412 11.5296 0.000438749 11.5296C0.000439087 11.5296 0.000439425 11.5296 0.000439763 11.5296C0.0004401 11.5296 0.000440438 11.5296 0.000440776 11.5296C0.000441114 11.5296 0.000441451 11.5296 0.000441789 11.5296C0.000442127 11.5296 0.000442465 11.5296 0.000442803 11.5296C0.00044314 11.5296 0.000443478 11.5296 0.000443816 11.5296C0.000444154 11.5296 0.000444491 11.5296 0.000444829 11.5296C0.000445167 11.5296 0.000445505 11.5296 0.000445842 11.5296C0.00044618 11.5296 0.000446518 11.5296 0.000446856 11.5296C0.000447193 11.5296 0.000447531 11.5296 0.000447869 11.5296C0.000448207 11.5296 0.000448544 11.5296 0.000448882 11.5296C0.00044922 11.5296 0.000449558 11.5296 0.000449896 11.5296C0.000450233 11.5296 0.000450571 11.5296 0.000450909 11.5296C0.000451247 11.5296 0.000451584 11.5296 0.000451922 11.5296C0.00045226 11.5296 0.000452598 11.5296 0.000452935 11.5296C0.000453273 11.5296 0.000453611 11.5296 0.000453949 11.5296C0.000454286 11.5296 0.000454624 11.5296 0.000454962 11.5296C0.0004553 11.5296 0.000455637 11.5296 0.000455975 11.5296C0.000456313 11.5296 0.000456651 11.5296 0.000456989 11.5296C0.000457326 11.5296 0.000457664 11.5296 0.000458002 11.5296C0.00045834 11.5296 0.000458677 11.5296 0.000459015 11.5296C0.000459353 11.5296 0.000459691 11.5296 0.000460028 11.5296C0.000460366 11.5296 0.000460704 11.5296 0.000461042 11.5296C0.000461379 11.5296 0.000461717 11.5296 0.000462055 11.5296C0.000462393 11.5296 0.00046273 11.5296 0.000463068 11.5296C0.000463406 11.5296 0.000463744 11.5296 0.000464082 11.5296C0.000464419 11.5296 0.000464757 11.5296 0.000465095 11.5296C0.000465433 11.5296 0.00046577 11.5296 0.000466108 11.5296C0.000466446 11.5296 0.000466784 11.5296 0.000467121 11.5296C0.000467459 11.5296 0.000467797 11.5296 0.000468135 11.5296C0.000468472 11.5296 0.00046881 11.5296 0.000469148 11.5296C0.000469486 11.5296 0.000469823 11.5296 0.000470161 11.5296C0.000470499 11.5296 0.000470837 11.5296 0.000471174 11.5296C0.000471512 11.5296 0.00047185 11.5296 0.000472188 11.5296C0.000472526 11.5296 0.000472863 11.5296 0.000473201 11.5296C0.000473539 11.5296 0.000473877 11.5296 0.000474214 11.5296C0.000474552 11.5296 0.00047489 11.5296 0.000475228 11.5296C0.000475565 11.5296 0.000475903 11.5296 0.000476241 11.5296C0.000476579 11.5296 0.000476916 11.5296 0.000477254 11.5296C0.000477592 11.5296 0.00047793 11.5296 0.000478267 11.5296C0.000478605 11.5296 0.000478943 11.5296 0.000479281 11.5296C0.000479618 11.5296 0.000479956 11.5296 0.000480294 11.5296C0.000480632 11.5296 0.00048097 11.5296 0.000481307 11.5296C0.000481645 11.5296 0.000481983 11.5296 0.000482321 11.5296C0.000482658 11.5296 0.000482996 11.5296 0.000483334 11.5296C0.000483672 11.5296 0.000484009 11.5296 0.000484347 11.5296C0.000484685 11.5296 0.000485023 11.5296 0.00048536 11.5296C0.000485698 11.5296 0.000486036 11.5296 0.000486374 11.5296C0.000486712 11.5296 0.000487049 11.5296 0.000487387 11.5296C0.000487725 11.5296 0.000488063 11.5296 0.0004884 11.5296C0.000488738 11.5296 0.000489076 11.5296 0.000489414 11.5296C0.000489751 11.5296 0.000490089 11.5296 0.000490427 11.5296C0.000490765 11.5296 0.000491102 11.5296 0.00049144 11.5296C0.000491778 11.5296 0.000492116 11.5296 0.000492453 11.5296C0.000492791 11.5296 0.000493129 11.5296 0.000493467 11.5296C0.000493804 11.5296 0.000494142 11.5296 0.00049448 11.5296C0.000494818 11.5296 0.000495156 11.5296 0.000495493 11.5296C0.000495831 11.5296 0.000496169 11.5296 0.000496507 11.5296C0.000496844 11.5296 0.000497182 11.5296 0.00049752 11.5296C0.000497858 11.5296 0.000498195 11.5296 0.000498533 11.5296C0.000498871 11.5296 0.000499209 11.5296 0.000499546 11.5296C0.000499884 11.5296 0.000500222 11.5296 0.00050056 11.5296C0.000500897 11.5296 0.000501235 11.5296 0.000501573 11.5296C0.000501911 11.5296 0.000502249 11.5296 0.000502586 11.5296C0.000502924 11.5296 0.000503262 11.5296 0.0005036 11.5296C0.000503937 11.5296 0.000504275 11.5296 0.000504613 11.5296C0.000504951 11.5296 0.000505288 11.5296 0.000505626 11.5296C0.000505964 11.5296 0.000506302 11.5296 0.000506639 11.5296C0.000506977 11.5296 0.000507315 11.5296 0.000507653 11.5296C0.00050799 11.5296 0.000508328 11.5296 0.000508666 11.5296C0.000509004 11.5296 0.000509341 11.5296 0.000509679 11.5296C0.000510017 11.5296 0.000510355 11.5296 0.000510693 11.5296C0.00051103 11.5296 0.000511368 11.5296 0.000511706 11.5296C0.000512044 11.5296 0.000512381 11.5296 0.000512719 11.5296C0.000513057 11.5296 0.000513395 11.5296 0.000513732 11.5296C0.00051407 11.5296 0.000514408 11.5296 0.000514746 11.5296C0.000515083 11.5296 0.000515421 11.5296 0.000515759 11.5296C0.000516097 11.5296 0.000516434 11.5296 0.000516772 11.5296C0.00051711 11.5296 0.000517448 11.5296 0.000517786 11.5296C0.000518123 11.5296 0.000518461 11.5296 0.000518799 11.5296V9.22956Z" fill="#EBE6E1" mask="url(#path-2-inside-1_2681_109720)"/>
<mask id="path-4-inside-2_2681_109720" fill="white">
<path fill-rule="evenodd" clip-rule="evenodd" d="M6 14.9962V42.6728C10.202 44.3555 13.532 47.7531 15.1245 52H324V6H14.9962C13.3575 10.0922 10.0922 13.3575 6 14.9962Z"/>
</mask>
<path d="M6 14.9962L5.57124 13.9255L4.84664 14.2156V14.9962H6ZM6 42.6728H4.84664V43.4533L5.57124 43.7435L6 42.6728ZM15.1245 52L14.0446 52.4049L14.3252 53.1534H15.1245V52ZM324 52V53.1534H325.153V52H324ZM324 6H325.153V4.84664H324V6ZM14.9962 6V4.84664H14.2156L13.9255 5.57124L14.9962 6ZM4.84664 14.9962V42.6728H7.15336V14.9962H4.84664ZM5.57124 43.7435C9.47275 45.3058 12.5661 48.4621 14.0446 52.4049L16.2044 51.5951C14.4979 47.044 10.9312 43.4051 6.42876 41.6021L5.57124 43.7435ZM15.1245 53.1534H324V50.8466H15.1245V53.1534ZM325.153 52V6H322.847V52H325.153ZM324 4.84664H14.9962V7.15336H324V4.84664ZM13.9255 5.57124C12.404 9.37072 9.37072 12.404 5.57124 13.9255L6.42876 16.0669C10.8137 14.311 14.311 10.8137 16.0669 6.42876L13.9255 5.57124Z" fill="#EBE6E1" mask="url(#path-4-inside-2_2681_109720)"/>
<g clip-path="url(#clip0_2681_109720)">
<mask id="path-6-inside-3_2681_109720" fill="white">
<path fill-rule="evenodd" clip-rule="evenodd" d="M332.688 0H304V58H332.693C332.689 57.8895 332.688 57.7786 332.688 57.6673C332.688 51.9571 337.298 47.3237 343 47.2873V10.3793C337.299 10.3429 332.688 5.70995 332.688 0Z"/>
</mask>
<path fill-rule="evenodd" clip-rule="evenodd" d="M332.688 0H304V58H332.693C332.689 57.8895 332.688 57.7786 332.688 57.6673C332.688 51.9571 337.298 47.3237 343 47.2873V10.3793C337.299 10.3429 332.688 5.70995 332.688 0Z" fill="#0A0A0A"/>
<path d="M332.688 0L333.837 -7.02986e-05L333.837 -1.15H332.688V0ZM304 0V-1.15H302.85V0H304ZM304 58H302.85V59.15H304V58ZM332.693 58V59.15H333.879L333.842 57.9638L332.693 58ZM343 47.2873L343.007 48.4373L344.15 48.43V47.2873H343ZM343 10.3793H344.15V9.23667L343.007 9.22937L343 10.3793ZM332.688 -1.15H304V1.15H332.688V-1.15ZM302.85 0V58H305.15V0H302.85ZM304 59.15H332.693V56.85H304V59.15ZM333.842 57.9638C333.839 57.8654 333.837 57.7666 333.837 57.6673H331.538C331.538 57.7907 331.539 57.9137 331.543 58.0362L333.842 57.9638ZM333.837 57.6673C333.837 52.5897 337.938 48.4697 343.007 48.4373L342.993 46.1374C336.659 46.1778 331.538 51.3244 331.538 57.6673H333.837ZM344.15 47.2873V10.3793H341.85V47.2873H344.15ZM343.007 9.22937C337.938 9.19699 333.838 5.07724 333.837 -7.02986e-05L331.538 7.02986e-05C331.538 6.34265 336.659 11.4889 342.993 11.5293L343.007 9.22937Z" fill="#EBE6E1" mask="url(#path-6-inside-3_2681_109720)"/>
<mask id="path-8-inside-4_2681_109720" fill="white">
<path fill-rule="evenodd" clip-rule="evenodd" d="M328.071 6H314V52H327.943C329.527 47.7758 332.83 44.3919 337 42.7V14.969C332.939 13.3215 329.701 10.0697 328.071 6Z"/>
</mask>
<path d="M328.071 6L329.142 5.57124L328.852 4.84664H328.071V6ZM314 6V4.84664H312.847V6H314ZM314 52H312.847V53.1534H314V52ZM327.943 52V53.1534H328.742L329.023 52.4049L327.943 52ZM337 42.7L337.434 43.7687L338.153 43.4767V42.7H337ZM337 14.969H338.153V14.1923L337.434 13.9003L337 14.969ZM328.071 4.84664H314V7.15336H328.071V4.84664ZM312.847 6V52H315.153V6H312.847ZM314 53.1534H327.943V50.8466H314V53.1534ZM329.023 52.4049C330.493 48.4833 333.562 45.3397 337.434 43.7687L336.566 41.6312C332.098 43.4441 328.56 47.0684 326.863 51.5951L329.023 52.4049ZM338.153 42.7V14.969H335.847V42.7H338.153ZM337.434 13.9003C333.663 12.3706 330.655 9.3498 329.142 5.57124L327.001 6.42876C328.747 10.7896 332.215 14.2725 336.566 16.0378L337.434 13.9003Z" fill="#EBE6E1" mask="url(#path-8-inside-4_2681_109720)"/>
</g>
<defs>
<clipPath id="clip0_2681_109720">
<rect width="23" height="58" fill="white" transform="translate(320)"/>
</clipPath>
</defs>
</svg>
