<svg width="650" height="80" viewBox="0 0 650 80" fill="none" xmlns="http://www.w3.org/2000/svg">
<path fill-rule="evenodd" clip-rule="evenodd" d="M0.00156212 14.4001C7.95446 14.4001 14.4016 7.953 14.4016 9.72748e-05C14.4016 6.48498e-05 14.4016 3.24249e-05 14.4016 0H630V80H14.4016C14.4015 72.0471 7.95443 65.6001 0.00156212 65.6001H0V14.4001C0.0005207 14.4001 0.00104141 14.4001 0.00156212 14.4001Z" fill="#0A0A0A"/>
<mask id="path-2-inside-1_2730_109529" fill="white">
<path fill-rule="evenodd" clip-rule="evenodd" d="M8 20.9299L8 59.0703C13.9366 61.3404 18.6602 66.0636 20.9307 72H625V8H20.9308C18.6603 13.9365 13.9367 18.6598 8 20.9299Z"/>
</mask>
<path d="M8 20.9299L7.42854 19.4354L6.4 19.8287V20.9299H8ZM8 59.0703H6.4V60.1715L7.42854 60.5648L8 59.0703ZM20.9307 72L19.4363 72.5716L19.8296 73.6H20.9307V72ZM625 72V73.6H626.6V72H625ZM625 8H626.6V6.4H625V8ZM20.9308 8V6.4H19.8297L19.4364 7.42843L20.9308 8ZM6.4 20.9299V59.0703H9.6V20.9299H6.4ZM7.42854 60.5648C12.9403 62.6724 17.3283 67.06 19.4363 72.5716L22.4251 71.4284C19.9921 65.0672 14.9329 60.0084 8.57146 57.5758L7.42854 60.5648ZM20.9307 73.6H625V70.4H20.9307V73.6ZM626.6 72V8H623.4V72H626.6ZM625 6.4H20.9308V9.6H625V6.4ZM19.4364 7.42843C17.3284 12.9401 12.9404 17.3278 7.42854 19.4354L8.57146 22.4243C14.933 19.9918 19.9922 14.9329 22.4252 8.57157L19.4364 7.42843Z" fill="#EBE6E1" mask="url(#path-2-inside-1_2730_109529)"/>
<g clip-path="url(#clip0_2730_109529)">
<path fill-rule="evenodd" clip-rule="evenodd" d="M635.203 0H617.602V80H635.203C635.203 72.0477 641.649 65.6009 649.602 65.6001V14.4001C641.649 14.3993 635.203 7.95248 635.203 9.72748e-05C635.203 6.48498e-05 635.203 3.24249e-05 635.203 0Z" fill="#0A0A0A"/>
<mask id="path-5-inside-2_2730_109529" fill="white">
<path fill-rule="evenodd" clip-rule="evenodd" d="M628.674 8H609.602V72H628.674C630.944 66.0647 635.666 61.342 641.602 59.0715V20.9287C635.666 18.6581 630.944 13.9354 628.674 8Z"/>
</mask>
<path d="M628.674 8L630.168 7.42843L629.775 6.4H628.674V8ZM609.602 8V6.4H608.002V8H609.602ZM609.602 72H608.002V73.6H609.602V72ZM628.674 72V73.6H629.775L630.168 72.5716L628.674 72ZM641.602 59.0715L642.173 60.5659L643.202 60.1725V59.0715H641.602ZM641.602 20.9287H643.202V19.8277L642.173 19.4343L641.602 20.9287ZM628.674 6.4H609.602V9.6H628.674V6.4ZM608.002 8V72H611.202V8H608.002ZM609.602 73.6H628.674V70.4H609.602V73.6ZM630.168 72.5716C632.276 67.061 636.663 62.6739 642.173 60.5659L641.03 57.5771C634.67 60.0101 629.612 65.0683 627.18 71.4284L630.168 72.5716ZM643.202 59.0715V20.9287H640.002V59.0715H643.202ZM642.173 19.4343C636.663 17.3262 632.276 12.9391 630.168 7.42843L627.179 8.57157C629.612 14.9318 634.67 19.99 641.03 22.4231L642.173 19.4343Z" fill="#EBE6E1" mask="url(#path-5-inside-2_2730_109529)"/>
</g>
<defs>
<clipPath id="clip0_2730_109529">
<rect width="32" height="80" fill="white" transform="translate(617.602)"/>
</clipPath>
</defs>
</svg>
