<svg width="27" height="27" viewBox="0 0 27 27" fill="none" xmlns="http://www.w3.org/2000/svg">
<path d="M13.5 24.75C7.2868 24.75 2.25 19.7132 2.25 13.5C2.25 7.2868 7.2868 2.25 13.5 2.25C19.7132 2.25 24.75 7.2868 24.75 13.5C24.7432 19.7104 19.7104 24.7432 13.5 24.75ZM13.5 4.5C8.52944 4.5 4.5 8.52944 4.5 13.5C4.5 18.4706 8.52944 22.5 13.5 22.5C18.4706 22.5 22.5 18.4706 22.5 13.5C22.4944 8.53175 18.4683 4.50558 13.5 4.5ZM19.125 14.625H12.375V7.875H14.625V12.375H19.125V14.625Z" fill="#EBE6E1"/>
</svg>
