<svg width="32" height="32" viewBox="0 0 32 32" fill="none" xmlns="http://www.w3.org/2000/svg">
<path d="M16.0001 29.3333C8.63628 29.3333 2.66675 23.3638 2.66675 16C2.66675 8.63616 8.63628 2.66663 16.0001 2.66663C23.3639 2.66663 29.3334 8.63616 29.3334 16C29.3253 23.3604 23.3605 29.3252 16.0001 29.3333ZM16.0001 5.33329C10.109 5.33329 5.33341 10.1089 5.33341 16C5.33341 21.891 10.109 26.6666 16.0001 26.6666C21.8911 26.6666 26.6667 21.891 26.6667 16C26.6601 10.1117 21.8884 5.33991 16.0001 5.33329ZM22.6667 17.3333H14.6667V9.33329H17.3334V14.6666H22.6667V17.3333Z" fill="black"/>
</svg>
