<svg width="27" height="27" viewBox="0 0 27 27" fill="none" xmlns="http://www.w3.org/2000/svg">
<path d="M21.375 24.75H5.625C4.38236 24.75 3.375 23.7426 3.375 22.5V6.75C3.375 5.50736 4.38236 4.5 5.625 4.5H7.875V2.25H10.125V4.5H16.875V2.25H19.125V4.5H21.375C22.6176 4.5 23.625 5.50736 23.625 6.75V22.5C23.625 23.7426 22.6176 24.75 21.375 24.75ZM5.625 11.25V22.5H21.375V11.25H5.625ZM5.625 6.75V9H21.375V6.75H5.625ZM19.125 20.25H16.875V18H19.125V20.25ZM14.625 20.25H12.375V18H14.625V20.25ZM10.125 20.25H7.875V18H10.125V20.25ZM19.125 15.75H16.875V13.5H19.125V15.75ZM14.625 15.75H12.375V13.5H14.625V15.75ZM10.125 15.75H7.875V13.5H10.125V15.75Z" fill="#EBE6E1"/>
</svg>
