<svg width="38" height="38" viewBox="0 0 38 38" fill="none" xmlns="http://www.w3.org/2000/svg">
<path d="M19.0029 33.3149C15.1079 33.3149 14.6488 33.2944 13.1288 33.2279C11.9434 33.1889 10.7734 32.9479 9.66918 32.5154C7.75859 31.7718 6.24782 30.2605 5.50501 28.3496C5.08908 27.2413 4.86474 26.0704 4.8416 24.8869C4.75293 23.37 4.75293 22.8729 4.75293 19.0079C4.75293 15.1019 4.77351 14.6459 4.8416 13.1338C4.86525 11.9518 5.08958 10.7825 5.50501 9.67577C6.24701 7.76236 7.76024 6.24971 9.67393 5.50843C10.7801 5.09075 11.9497 4.86583 13.1319 4.84343C14.644 4.75793 15.1412 4.75793 19.0029 4.75793C22.9296 4.75793 23.3808 4.77852 24.8771 4.84343C26.0624 4.86602 27.2351 5.09092 28.3446 5.50843C30.2577 6.25055 31.7707 7.7629 32.5135 9.67577C32.9365 10.7987 33.162 11.9863 33.1801 13.186C33.2688 14.7029 33.2688 15.1984 33.2688 19.0618C33.2688 22.9251 33.2466 23.4318 33.1801 24.9312C33.1565 26.1158 32.9317 27.2879 32.5151 28.3971C31.7704 30.3093 30.2574 31.8212 28.3446 32.5644C27.2367 32.9796 26.0664 33.2039 24.8834 33.2279C23.3713 33.3149 22.8758 33.3149 19.0029 33.3149ZM18.9491 7.26435C15.0763 7.26435 14.6741 7.28335 13.162 7.35143C12.2595 7.36339 11.3657 7.52994 10.5194 7.84385C9.26979 8.32203 8.28096 9.30684 7.79768 10.5545C7.48135 11.41 7.31478 12.3136 7.30526 13.2256C7.22135 14.7599 7.22135 15.162 7.22135 19.0079C7.22135 22.8079 7.2356 23.2687 7.30526 24.7934C7.31944 25.6963 7.48591 26.5902 7.79768 27.4376C8.28167 28.6845 9.27033 29.6685 10.5194 30.1467C11.3651 30.4627 12.2593 30.6293 13.162 30.6391C14.6947 30.7278 15.0984 30.7278 18.9491 30.7278C22.833 30.7278 23.2352 30.7088 24.7346 30.6391C25.6377 30.6281 26.5322 30.4615 27.3788 30.1467C28.6208 29.6644 29.6032 28.6826 30.0863 27.4408C30.402 26.5846 30.5685 25.6806 30.5787 24.7681H30.5961C30.6642 23.2544 30.6642 22.8507 30.6642 18.9826C30.6642 15.1145 30.6468 14.7076 30.5787 13.1955C30.5645 12.2937 30.398 11.4008 30.0863 10.5545C29.6043 9.31093 28.6218 8.32723 27.3788 7.84385C26.5324 7.52836 25.6378 7.36176 24.7346 7.35143C23.2035 7.26435 22.8029 7.26435 18.9491 7.26435ZM19.0029 26.3214C16.0421 26.3233 13.3717 24.5413 12.2371 21.8064C11.1026 19.0716 11.7274 15.9225 13.8201 13.828C15.9128 11.7335 19.0613 11.1059 21.7971 12.2381C24.533 13.3703 26.3173 16.0392 26.3179 19C26.3136 23.0392 23.0421 26.3135 19.0029 26.3214ZM19.0029 14.2469C16.3796 14.2469 14.2529 16.3735 14.2529 18.9969C14.2529 21.6202 16.3796 23.7469 19.0029 23.7469C21.6263 23.7469 23.7529 21.6202 23.7529 18.9969C23.7468 16.376 21.6238 14.2529 19.0029 14.2469ZM26.6029 13.1179C25.6615 13.1144 24.9007 12.3494 24.9024 11.4079C24.9042 10.4665 25.6678 9.70428 26.6093 9.70428C27.5507 9.70428 28.3143 10.4665 28.3161 11.4079C28.3165 11.8621 28.1361 12.2978 27.8146 12.6187C27.4931 12.9395 27.0571 13.1192 26.6029 13.1179Z" fill="#EBE6E1" fill-opacity="0.4"/>
</svg>
