<svg width="37" height="37" viewBox="0 0 37 37" fill="none" xmlns="http://www.w3.org/2000/svg">
<path d="M30.143 4.6219C29.7718 4.64891 29.4075 4.73599 29.0642 4.87975H29.0596C28.7301 5.0104 27.1634 5.66947 24.7815 6.66847L16.246 10.2632C10.1214 12.8417 4.10079 15.3808 4.10079 15.3808L4.17248 15.3531C4.17248 15.3531 3.75739 15.4895 3.32379 15.7867C3.05592 15.9571 2.82542 16.1801 2.64623 16.4422C2.43348 16.7544 2.26235 17.232 2.32595 17.7257C2.43001 18.5605 2.97114 19.0611 3.35964 19.3375C3.75276 19.6173 4.12739 19.748 4.12739 19.748H4.13664L9.78261 21.65C10.0358 22.4628 11.5031 27.2867 11.8558 28.3979C12.0639 29.0616 12.2662 29.4766 12.5194 29.7935C12.642 29.9553 12.7854 30.0906 12.9577 30.1993C13.0472 30.2514 13.1427 30.2925 13.2421 30.3219L13.1843 30.308C13.2016 30.3126 13.2155 30.3265 13.2282 30.3311C13.2745 30.3438 13.3057 30.3485 13.3647 30.3577C14.2584 30.6283 14.9765 30.0733 14.9765 30.0733L15.0169 30.0409L18.3504 27.0057L23.9374 31.292L24.0646 31.3463C25.2289 31.8574 26.4083 31.5729 27.0315 31.0711C27.6594 30.5658 27.9034 29.9195 27.9034 29.9195L27.9438 29.8154L32.2613 7.69753C32.3838 7.15178 32.415 6.64072 32.2798 6.14469C32.1402 5.64267 31.8182 5.21091 31.3767 4.93409C31.0061 4.70876 30.5762 4.59999 30.143 4.6219ZM30.0262 6.99222C30.0216 7.06506 30.0355 7.05697 30.0031 7.19687V7.20959L25.7261 29.0974C25.7076 29.1286 25.6764 29.1968 25.5909 29.2651C25.5007 29.3367 25.429 29.3818 25.0532 29.2327L18.2198 23.9937L14.0919 27.7561L14.9591 22.2177L26.1239 11.8115C26.5841 11.3837 26.4303 11.2935 26.4303 11.2935C26.4627 10.7685 25.7354 11.1397 25.7354 11.1397L11.6569 19.8613L11.6523 19.8382L4.90439 17.5661V17.5615L4.88704 17.558C4.89887 17.5541 4.91045 17.5495 4.92173 17.5442L4.95873 17.5257L4.99457 17.5129C4.99457 17.5129 11.0198 14.9738 17.1444 12.3954C20.2108 11.1038 23.3003 9.80306 25.6764 8.79944C27.0856 8.20628 28.4962 7.61659 29.9083 7.03037C30.0031 6.99337 29.958 6.99337 30.0262 6.99337V6.99222Z" fill="#EBE6E1" fill-opacity="0.4"/>
</svg>
