<svg width="367" height="80" viewBox="0 0 367 80" fill="none" xmlns="http://www.w3.org/2000/svg">
<path fill-rule="evenodd" clip-rule="evenodd" d="M0 14.4V65.6H0.00156212C7.95446 65.6 14.4016 72.0471 14.4016 80L345 80V0H14.4016C14.4015 7.95289 7.95445 14.4 0.00156212 14.4C0.00104141 14.4 0.0005207 14.4 0 14.4Z" fill="#EBE6E1"/>
<mask id="path-3-inside-1_2496_105923" fill="white">
<path fill-rule="evenodd" clip-rule="evenodd" d="M8 20.9298V59.0702C13.9366 61.3403 18.6603 66.0636 20.9308 72H340V8H20.9307C18.6602 13.9364 13.9366 18.6597 8 20.9298Z"/>
</mask>
<path d="M8 20.9298L7.42854 19.4353L6.4 19.8286V20.9298H8ZM8 59.0702H6.4V60.1714L7.42854 60.5647L8 59.0702ZM20.9308 72L19.4363 72.5716L19.8297 73.6H20.9308V72ZM340 72V73.6H341.6V72H340ZM340 8H341.6V6.4H340V8ZM20.9307 8V6.4H19.8297L19.4363 7.42842L20.9307 8ZM6.4 20.9298V59.0702H9.6V20.9298H6.4ZM7.42854 60.5647C12.9403 62.6723 17.3283 67.06 19.4363 72.5716L22.4252 71.4284C19.9922 65.0672 14.933 60.0083 8.57146 57.5757L7.42854 60.5647ZM20.9308 73.6H340V70.4H20.9308V73.6ZM341.6 72V8H338.4V72H341.6ZM340 6.4H20.9307V9.6H340V6.4ZM19.4363 7.42842C17.3283 12.94 12.9403 17.3277 7.42854 19.4353L8.57146 22.4242C14.9329 19.9917 19.9922 14.9328 22.4252 8.57158L19.4363 7.42842Z" fill="#0A0A0A" mask="url(#path-3-inside-1_2496_105923)"/>
<g clip-path="url(#clip0_2496_105923)">
<path fill-rule="evenodd" clip-rule="evenodd" d="M352.203 0H334.602V80L352.203 80C352.203 72.0476 358.649 65.6008 366.602 65.6V14.4C358.649 14.3991 352.203 7.95237 352.203 0Z" fill="#EBE6E1"/>
<mask id="path-6-inside-2_2496_105923" fill="white">
<path fill-rule="evenodd" clip-rule="evenodd" d="M345.674 8H326.602V72H345.674C347.944 66.0646 352.666 61.3419 358.602 59.0714V20.9286C352.666 18.658 347.944 13.9354 345.674 8Z"/>
</mask>
<path d="M345.674 8L347.168 7.42842L346.775 6.4H345.674V8ZM326.602 8V6.4H325.002V8H326.602ZM326.602 72H325.002V73.6H326.602V72ZM345.674 72V73.6H346.775L347.168 72.5716L345.674 72ZM358.602 59.0714L359.173 60.5658L360.202 60.1724V59.0714H358.602ZM358.602 20.9286H360.202V19.8276L359.173 19.4342L358.602 20.9286ZM345.674 6.4H326.602V9.6H345.674V6.4ZM325.002 8V72H328.202V8H325.002ZM326.602 73.6H345.674V70.4H326.602V73.6ZM347.168 72.5716C349.276 67.0609 353.663 62.6738 359.173 60.5658L358.03 57.577C351.67 60.01 346.612 65.0683 344.18 71.4284L347.168 72.5716ZM360.202 59.0714V20.9286H357.002V59.0714H360.202ZM359.173 19.4342C353.663 17.3261 349.276 12.939 347.168 7.42842L344.18 8.57158C346.612 14.9317 351.67 19.9899 358.03 22.4229L359.173 19.4342Z" fill="#0A0A0A" mask="url(#path-6-inside-2_2496_105923)"/>
</g>
<defs>
<clipPath id="clip0_2496_105923">
<rect width="32" height="80" fill="white" transform="translate(334.602)"/>
</clipPath>
</defs>
</svg>
