<svg width="297" height="231" viewBox="0 0 297 231" fill="none" xmlns="http://www.w3.org/2000/svg">
<path d="M222.641 94.7449C216.241 138.946 185.886 164.416 142.04 140.344C122.424 129.575 105.087 105.668 113.262 98.7861C121.616 91.7539 144.344 102.984 158.536 132.663C169.961 156.557 138.871 180.464 107.089 140.598C84.8839 112.746 75.0652 102.532 50.1188 101.673C29.0396 100.946 16.3425 118.314 5.8094 127.181M5.8094 127.181C7.54955 122.613 6.17477 115.082 6.17477 115.082M5.8094 127.181C10.607 126.245 17.7931 128.884 17.7931 128.884" stroke="#EBE6E1" stroke-width="2" stroke-linecap="round"/>
<path d="M112.238 39H110.102L113.654 22.2H115.814H121.838H123.974L120.422 39H118.286L121.43 24.096H115.382L112.238 39ZM124.581 32.88C124.645 32.56 124.717 32.248 124.797 31.944C124.893 31.64 124.997 31.336 125.109 31.032C125.333 30.472 125.621 29.88 125.973 29.256C126.325 28.632 126.749 28.096 127.245 27.648C127.773 27.184 128.325 26.848 128.901 26.64C129.493 26.432 130.093 26.328 130.701 26.328C130.909 26.328 131.133 26.344 131.373 26.376C131.629 26.408 131.877 26.472 132.117 26.568C132.373 26.664 132.621 26.8 132.861 26.976C133.117 27.136 133.349 27.36 133.557 27.648C133.733 27.888 133.869 28.144 133.965 28.416C134.077 28.672 134.157 28.936 134.205 29.208C134.253 29.464 134.285 29.712 134.301 29.952C134.317 30.176 134.325 30.384 134.325 30.576C134.325 31.264 134.261 31.96 134.133 32.664C134.005 33.368 133.805 34.08 133.533 34.8C133.309 35.392 133.029 35.976 132.693 36.552C132.357 37.128 131.949 37.648 131.469 38.112C131.005 38.544 130.501 38.88 129.957 39.12C129.413 39.36 128.781 39.48 128.061 39.48C127.277 39.48 126.653 39.336 126.189 39.048C125.741 38.776 125.389 38.472 125.133 38.136C124.957 37.896 124.813 37.648 124.701 37.392C124.605 37.12 124.533 36.856 124.485 36.6C124.437 36.328 124.405 36.064 124.389 35.808C124.373 35.552 124.365 35.312 124.365 35.088C124.365 34.336 124.437 33.6 124.581 32.88ZM126.693 32.904C126.549 33.704 126.477 34.504 126.477 35.304C126.477 35.88 126.541 36.344 126.669 36.696C126.797 37.048 126.949 37.32 127.125 37.512C127.317 37.704 127.517 37.832 127.725 37.896C127.933 37.96 128.125 37.992 128.301 37.992C128.669 37.992 129.053 37.888 129.453 37.68C129.869 37.472 130.269 37.064 130.653 36.456C130.893 36.088 131.109 35.656 131.301 35.16C131.493 34.664 131.661 34.144 131.805 33.6C131.949 33.04 132.053 32.48 132.117 31.92C132.197 31.36 132.237 30.832 132.237 30.336C132.237 29.872 132.181 29.48 132.069 29.16C131.973 28.84 131.837 28.584 131.661 28.392C131.501 28.184 131.309 28.04 131.085 27.96C130.861 27.864 130.637 27.816 130.413 27.816C129.821 27.816 129.333 27.984 128.949 28.32C128.581 28.656 128.285 28.992 128.061 29.328C127.741 29.84 127.461 30.408 127.221 31.032C126.997 31.656 126.821 32.28 126.693 32.904ZM137.507 39H135.491L138.059 26.808H140.075H144.803L144.491 28.296H139.763L137.507 39ZM152.005 32.904C152.085 32.52 152.141 32.136 152.173 31.752C152.221 31.352 152.245 30.952 152.245 30.552C152.245 29.976 152.197 29.52 152.101 29.184C152.005 28.848 151.885 28.592 151.741 28.416C151.613 28.24 151.429 28.096 151.189 27.984C150.965 27.872 150.709 27.816 150.421 27.816C150.165 27.816 149.821 27.904 149.389 28.08C148.973 28.256 148.549 28.672 148.117 29.328C147.877 29.696 147.653 30.144 147.445 30.672C147.253 31.184 147.085 31.728 146.941 32.304C146.813 32.864 146.709 33.416 146.629 33.96C146.565 34.504 146.533 34.992 146.533 35.424C146.533 35.696 146.557 35.976 146.605 36.264C146.669 36.552 146.765 36.816 146.893 37.056C147.005 37.264 147.181 37.472 147.421 37.68C147.661 37.888 147.973 37.992 148.357 37.992C148.501 37.992 148.669 37.976 148.861 37.944C149.053 37.912 149.261 37.84 149.485 37.728C149.709 37.6 149.933 37.424 150.157 37.2C150.397 36.96 150.629 36.648 150.853 36.264C151.125 35.8 151.357 35.272 151.549 34.68C151.741 34.088 151.893 33.496 152.005 32.904ZM142.669 43.44L146.197 26.808H148.117L147.853 28.056H147.901C147.981 27.928 148.093 27.784 148.237 27.624C148.381 27.448 148.533 27.296 148.693 27.168C148.949 26.944 149.269 26.752 149.653 26.592C150.053 26.416 150.525 26.328 151.069 26.328C151.837 26.328 152.429 26.496 152.845 26.832C153.261 27.152 153.581 27.504 153.805 27.888C153.933 28.128 154.053 28.472 154.165 28.92C154.293 29.352 154.357 29.944 154.357 30.696C154.357 31.208 154.317 31.76 154.237 32.352C154.157 32.944 154.029 33.544 153.853 34.152C153.677 34.76 153.453 35.36 153.181 35.952C152.909 36.528 152.581 37.056 152.197 37.536C151.189 38.832 149.917 39.48 148.381 39.48C148.045 39.48 147.717 39.432 147.397 39.336C147.077 39.24 146.773 39.064 146.485 38.808C146.357 38.696 146.237 38.576 146.125 38.448C146.013 38.304 145.917 38.144 145.837 37.968L144.685 43.44H142.669ZM155.135 41.664C155.407 41.872 155.703 41.976 156.023 41.976C156.215 41.976 156.383 41.936 156.527 41.856C156.671 41.776 156.807 41.664 156.935 41.52C157.063 41.376 157.207 41.16 157.367 40.872C157.527 40.6 157.655 40.336 157.751 40.08L158.183 39L156.743 26.808H159.047L159.839 36.192L164.087 26.808H166.103L159.551 40.44C159.359 40.856 159.183 41.216 159.023 41.52C158.863 41.824 158.687 42.096 158.495 42.336C158.111 42.816 157.695 43.136 157.247 43.296C156.799 43.456 156.319 43.536 155.807 43.536C155.503 43.536 155.159 43.488 154.775 43.392L155.135 41.664ZM167.571 35.256C167.523 35.48 167.499 35.728 167.499 36C167.499 36.24 167.523 36.48 167.571 36.72C167.635 36.944 167.731 37.152 167.859 37.344C168.003 37.536 168.187 37.696 168.411 37.824C168.651 37.936 168.947 37.992 169.299 37.992C169.779 37.992 170.171 37.888 170.475 37.68C170.795 37.472 171.043 37.272 171.219 37.08C171.459 36.808 171.643 36.496 171.771 36.144C171.899 35.776 171.963 35.424 171.963 35.088C171.963 34.752 171.907 34.472 171.795 34.248C171.699 34.024 171.587 33.856 171.459 33.744C171.331 33.632 171.155 33.552 170.931 33.504C170.723 33.44 170.507 33.408 170.283 33.408H168.963L169.275 31.92H170.427C170.619 31.92 170.819 31.896 171.027 31.848C171.235 31.8 171.427 31.72 171.603 31.608C171.715 31.544 171.835 31.456 171.963 31.344C172.107 31.232 172.235 31.096 172.347 30.936C172.475 30.76 172.579 30.56 172.659 30.336C172.739 30.096 172.779 29.824 172.779 29.52C172.779 29.184 172.731 28.92 172.635 28.728C172.555 28.52 172.459 28.36 172.347 28.248C172.171 28.056 171.987 27.936 171.795 27.888C171.603 27.84 171.427 27.816 171.267 27.816C170.947 27.816 170.643 27.872 170.355 27.984C170.083 28.096 169.819 28.304 169.563 28.608C169.371 28.832 169.211 29.08 169.083 29.352C168.971 29.624 168.891 29.896 168.843 30.168H166.899C166.963 29.8 167.059 29.472 167.187 29.184C167.315 28.88 167.451 28.624 167.595 28.416C167.739 28.192 167.875 28.008 168.003 27.864C168.147 27.704 168.259 27.584 168.339 27.504C168.883 26.992 169.435 26.672 169.995 26.544C170.555 26.4 171.123 26.328 171.699 26.328C172.115 26.328 172.547 26.384 172.995 26.496C173.459 26.592 173.875 26.856 174.243 27.288C174.435 27.528 174.587 27.816 174.699 28.152C174.827 28.488 174.891 28.848 174.891 29.232C174.891 29.904 174.755 30.456 174.483 30.888C174.211 31.32 173.931 31.648 173.643 31.872C173.419 32.048 173.187 32.192 172.947 32.304C172.723 32.4 172.523 32.472 172.347 32.52L172.323 32.64C172.547 32.672 172.755 32.744 172.947 32.856C173.139 32.952 173.299 33.064 173.427 33.192C173.859 33.624 174.075 34.224 174.075 34.992C174.075 35.648 173.907 36.304 173.571 36.96C173.235 37.616 172.739 38.168 172.083 38.616C171.555 38.984 171.035 39.216 170.523 39.312C170.011 39.424 169.507 39.48 169.011 39.48C168.643 39.48 168.235 39.432 167.787 39.336C167.339 39.24 166.923 39.032 166.539 38.712C166.219 38.44 165.963 38.096 165.771 37.68C165.579 37.264 165.483 36.8 165.483 36.288C165.483 36.064 165.499 35.872 165.531 35.712C165.563 35.536 165.595 35.384 165.627 35.256H167.571ZM185.108 26.808H185.276H187.292L184.724 39H182.708L184.436 30.864L184.844 29.448H184.82L184.1 30.672L178.268 39H178.076H176.084L178.652 26.808H180.668L178.964 34.968L178.556 36.36H178.58L179.3 35.136L185.108 26.808ZM188.909 28.296L189.221 26.808H192.413H194.405H197.669L197.357 28.296H194.141L191.885 39H189.869L192.125 28.296H188.909ZM206.011 35.472C205.883 35.856 205.699 36.28 205.459 36.744C205.235 37.208 204.939 37.632 204.571 38.016C204.139 38.48 203.619 38.84 203.011 39.096C202.419 39.352 201.723 39.48 200.923 39.48C200.027 39.48 199.331 39.312 198.835 38.976C198.355 38.624 197.987 38.232 197.731 37.8C197.587 37.544 197.451 37.208 197.323 36.792C197.211 36.376 197.155 35.832 197.155 35.16C197.155 34.488 197.211 33.816 197.323 33.144C197.451 32.472 197.627 31.824 197.851 31.2C198.075 30.56 198.339 29.968 198.643 29.424C198.963 28.88 199.307 28.408 199.675 28.008C200.235 27.4 200.835 26.968 201.475 26.712C202.115 26.456 202.819 26.328 203.587 26.328C203.891 26.328 204.195 26.36 204.499 26.424C204.803 26.488 205.099 26.616 205.387 26.808C205.739 27.032 206.011 27.296 206.203 27.6C206.411 27.888 206.563 28.192 206.659 28.512C206.771 28.832 206.843 29.152 206.875 29.472C206.907 29.792 206.923 30.08 206.923 30.336C206.923 30.944 206.875 31.52 206.779 32.064C206.699 32.608 206.619 33.048 206.539 33.384H199.411C199.331 33.736 199.283 34.04 199.267 34.296C199.267 34.552 199.267 34.816 199.267 35.088C199.267 35.36 199.275 35.664 199.291 36C199.323 36.336 199.411 36.648 199.555 36.936C199.715 37.256 199.931 37.512 200.203 37.704C200.475 37.896 200.827 37.992 201.259 37.992C201.675 37.992 202.051 37.904 202.387 37.728C202.723 37.536 203.035 37.264 203.323 36.912C203.515 36.688 203.667 36.456 203.779 36.216C203.891 35.976 203.987 35.728 204.067 35.472H206.011ZM204.763 31.896C204.827 31.544 204.867 31.224 204.883 30.936C204.899 30.648 204.907 30.4 204.907 30.192C204.907 29.904 204.875 29.6 204.811 29.28C204.763 28.96 204.643 28.672 204.451 28.416C204.307 28.24 204.123 28.096 203.899 27.984C203.691 27.872 203.443 27.816 203.155 27.816C202.851 27.816 202.515 27.888 202.147 28.032C201.795 28.16 201.451 28.424 201.115 28.824C200.811 29.176 200.531 29.648 200.275 30.24C200.035 30.816 199.859 31.368 199.747 31.896H204.763ZM217.407 34.656C217.311 35.104 217.151 35.608 216.927 36.168C216.719 36.712 216.447 37.208 216.111 37.656C215.567 38.36 214.967 38.84 214.311 39.096C213.655 39.352 212.983 39.48 212.295 39.48C212.055 39.48 211.791 39.456 211.503 39.408C211.215 39.376 210.927 39.296 210.639 39.168C210.351 39.04 210.071 38.864 209.799 38.64C209.543 38.416 209.311 38.12 209.103 37.752C208.975 37.528 208.847 37.208 208.719 36.792C208.607 36.36 208.551 35.768 208.551 35.016C208.551 34.36 208.607 33.696 208.719 33.024C208.847 32.352 209.023 31.704 209.247 31.08C209.471 30.456 209.735 29.872 210.039 29.328C210.359 28.784 210.711 28.312 211.095 27.912C211.703 27.272 212.319 26.848 212.943 26.64C213.567 26.432 214.231 26.328 214.935 26.328C215.367 26.328 215.807 26.392 216.255 26.52C216.703 26.632 217.111 26.896 217.479 27.312C217.687 27.552 217.839 27.816 217.935 28.104C218.047 28.376 218.127 28.664 218.175 28.968C218.223 29.272 218.239 29.568 218.223 29.856C218.223 30.128 218.207 30.384 218.175 30.624H216.231C216.263 30.384 216.271 30.056 216.255 29.64C216.255 29.224 216.159 28.856 215.967 28.536C215.839 28.312 215.663 28.136 215.439 28.008C215.215 27.88 214.943 27.816 214.623 27.816C214.303 27.816 213.935 27.904 213.519 28.08C213.103 28.24 212.687 28.616 212.271 29.208C211.999 29.592 211.759 30.04 211.551 30.552C211.359 31.064 211.199 31.592 211.071 32.136C210.943 32.68 210.839 33.224 210.759 33.768C210.695 34.296 210.663 34.768 210.663 35.184C210.663 35.488 210.679 35.8 210.711 36.12C210.759 36.44 210.847 36.736 210.975 37.008C211.295 37.664 211.815 37.992 212.535 37.992C213.031 37.992 213.447 37.872 213.783 37.632C214.119 37.376 214.407 37.064 214.647 36.696C214.871 36.36 215.047 36.016 215.175 35.664C215.303 35.296 215.399 34.96 215.463 34.656H217.407ZM223.511 26.808L222.503 31.632H224.735C225.039 31.632 225.391 31.664 225.791 31.728C226.191 31.792 226.559 31.96 226.895 32.232C227.167 32.456 227.383 32.768 227.543 33.168C227.719 33.552 227.807 34.008 227.807 34.536C227.807 35.224 227.671 35.88 227.399 36.504C227.127 37.128 226.735 37.648 226.223 38.064C225.679 38.496 225.135 38.76 224.591 38.856C224.063 38.952 223.663 39 223.391 39H220.943H218.927L221.495 26.808H223.511ZM221.255 37.512H222.911C223.375 37.512 223.751 37.448 224.039 37.32C224.327 37.176 224.535 37.056 224.663 36.96C224.887 36.784 225.111 36.52 225.335 36.168C225.575 35.816 225.695 35.352 225.695 34.776C225.695 34.552 225.671 34.336 225.623 34.128C225.591 33.92 225.495 33.728 225.335 33.552C225.143 33.328 224.935 33.2 224.711 33.168C224.487 33.136 224.247 33.12 223.991 33.12H222.191L221.255 37.512ZM242.498 26.808C242.994 26.808 243.394 26.888 243.698 27.048C244.002 27.192 244.226 27.344 244.37 27.504C244.546 27.696 244.698 27.944 244.826 28.248C244.954 28.552 245.018 28.912 245.018 29.328C245.018 29.808 244.938 30.24 244.778 30.624C244.618 30.992 244.402 31.312 244.13 31.584C243.906 31.808 243.642 32 243.338 32.16C243.034 32.32 242.706 32.44 242.354 32.52L242.33 32.664C242.538 32.696 242.73 32.76 242.906 32.856C243.082 32.936 243.234 33.032 243.362 33.144C243.714 33.448 243.938 33.776 244.034 34.128C244.13 34.48 244.178 34.784 244.178 35.04C244.178 35.696 244.05 36.288 243.794 36.816C243.538 37.344 243.202 37.768 242.786 38.088C242.258 38.52 241.698 38.784 241.106 38.88C240.53 38.96 240.026 39 239.594 39H237.29H235.274L237.842 26.808H239.858H242.498ZM238.802 31.896H240.506C240.618 31.896 240.834 31.88 241.154 31.848C241.474 31.8 241.786 31.664 242.09 31.44C242.33 31.264 242.53 31.024 242.69 30.72C242.85 30.416 242.93 30.072 242.93 29.688C242.93 29.4 242.882 29.168 242.786 28.992C242.69 28.8 242.578 28.656 242.45 28.56C242.274 28.432 242.074 28.36 241.85 28.344C241.642 28.312 241.466 28.296 241.322 28.296H239.546L238.802 31.896ZM237.602 37.512H239.474C239.714 37.512 239.994 37.48 240.314 37.416C240.634 37.352 240.954 37.184 241.274 36.912C241.45 36.768 241.626 36.552 241.802 36.264C241.978 35.96 242.066 35.552 242.066 35.04C242.066 34.672 242.018 34.384 241.922 34.176C241.826 33.968 241.714 33.816 241.586 33.72C241.394 33.56 241.17 33.464 240.914 33.432C240.658 33.4 240.442 33.384 240.266 33.384H238.466L237.602 37.512ZM255.883 30.144H255.811L255.667 31.392L254.059 39H252.043L254.611 26.808H256.603H257.203L258.235 36.12L263.155 26.808H263.731H265.747L263.179 39H261.163L262.771 31.392L263.131 30.144H263.059L258.427 39H256.795L255.883 30.144ZM275.417 26.808H275.585H277.601L275.033 39H273.017L274.745 30.864L275.153 29.448H275.129L274.409 30.672L268.577 39H268.385H266.393L268.961 26.808H270.977L269.273 34.968L268.865 36.36H268.889L269.609 35.136L275.417 26.808ZM286.61 32.904C286.69 32.52 286.746 32.136 286.778 31.752C286.826 31.352 286.85 30.952 286.85 30.552C286.85 29.976 286.802 29.52 286.706 29.184C286.61 28.848 286.49 28.592 286.346 28.416C286.218 28.24 286.034 28.096 285.794 27.984C285.57 27.872 285.314 27.816 285.026 27.816C284.77 27.816 284.426 27.904 283.994 28.08C283.578 28.256 283.154 28.672 282.722 29.328C282.482 29.696 282.258 30.144 282.05 30.672C281.858 31.184 281.69 31.728 281.546 32.304C281.418 32.864 281.314 33.416 281.234 33.96C281.17 34.504 281.138 34.992 281.138 35.424C281.138 35.696 281.162 35.976 281.21 36.264C281.274 36.552 281.37 36.816 281.498 37.056C281.61 37.264 281.786 37.472 282.026 37.68C282.266 37.888 282.578 37.992 282.962 37.992C283.106 37.992 283.274 37.976 283.466 37.944C283.658 37.912 283.866 37.84 284.09 37.728C284.314 37.6 284.538 37.424 284.762 37.2C285.002 36.96 285.234 36.648 285.458 36.264C285.73 35.8 285.962 35.272 286.154 34.68C286.346 34.088 286.498 33.496 286.61 32.904ZM277.274 43.44L280.802 26.808H282.722L282.458 28.056H282.506C282.586 27.928 282.698 27.784 282.842 27.624C282.986 27.448 283.138 27.296 283.298 27.168C283.554 26.944 283.874 26.752 284.258 26.592C284.658 26.416 285.13 26.328 285.674 26.328C286.442 26.328 287.034 26.496 287.45 26.832C287.866 27.152 288.186 27.504 288.41 27.888C288.538 28.128 288.658 28.472 288.77 28.92C288.898 29.352 288.962 29.944 288.962 30.696C288.962 31.208 288.922 31.76 288.842 32.352C288.762 32.944 288.634 33.544 288.458 34.152C288.282 34.76 288.058 35.36 287.786 35.952C287.514 36.528 287.186 37.056 286.802 37.536C285.794 38.832 284.522 39.48 282.986 39.48C282.65 39.48 282.322 39.432 282.002 39.336C281.682 39.24 281.378 39.064 281.09 38.808C280.962 38.696 280.842 38.576 280.73 38.448C280.618 38.304 280.522 38.144 280.442 37.968L279.29 43.44H277.274ZM111.264 50.808H113.496L108.096 56.496L111.144 63H108.912L106.344 57.216L105.12 63H103.104L105.672 50.808H107.688L106.632 55.872L111.264 50.808ZM113.322 56.88C113.386 56.56 113.458 56.248 113.538 55.944C113.634 55.64 113.738 55.336 113.85 55.032C114.074 54.472 114.362 53.88 114.714 53.256C115.066 52.632 115.49 52.096 115.986 51.648C116.514 51.184 117.066 50.848 117.642 50.64C118.234 50.432 118.834 50.328 119.442 50.328C119.65 50.328 119.874 50.344 120.114 50.376C120.37 50.408 120.618 50.472 120.858 50.568C121.114 50.664 121.362 50.8 121.602 50.976C121.858 51.136 122.09 51.36 122.298 51.648C122.474 51.888 122.61 52.144 122.706 52.416C122.818 52.672 122.898 52.936 122.946 53.208C122.994 53.464 123.026 53.712 123.042 53.952C123.058 54.176 123.066 54.384 123.066 54.576C123.066 55.264 123.002 55.96 122.874 56.664C122.746 57.368 122.546 58.08 122.274 58.8C122.05 59.392 121.77 59.976 121.434 60.552C121.098 61.128 120.69 61.648 120.21 62.112C119.746 62.544 119.242 62.88 118.698 63.12C118.154 63.36 117.522 63.48 116.802 63.48C116.018 63.48 115.394 63.336 114.93 63.048C114.482 62.776 114.13 62.472 113.874 62.136C113.698 61.896 113.554 61.648 113.442 61.392C113.346 61.12 113.274 60.856 113.226 60.6C113.178 60.328 113.146 60.064 113.13 59.808C113.114 59.552 113.106 59.312 113.106 59.088C113.106 58.336 113.178 57.6 113.322 56.88ZM115.434 56.904C115.29 57.704 115.218 58.504 115.218 59.304C115.218 59.88 115.282 60.344 115.41 60.696C115.538 61.048 115.69 61.32 115.866 61.512C116.058 61.704 116.258 61.832 116.466 61.896C116.674 61.96 116.866 61.992 117.042 61.992C117.41 61.992 117.794 61.888 118.194 61.68C118.61 61.472 119.01 61.064 119.394 60.456C119.634 60.088 119.85 59.656 120.042 59.16C120.234 58.664 120.402 58.144 120.546 57.6C120.69 57.04 120.794 56.48 120.858 55.92C120.938 55.36 120.978 54.832 120.978 54.336C120.978 53.872 120.922 53.48 120.81 53.16C120.714 52.84 120.578 52.584 120.402 52.392C120.242 52.184 120.05 52.04 119.826 51.96C119.602 51.864 119.378 51.816 119.154 51.816C118.562 51.816 118.074 51.984 117.69 52.32C117.322 52.656 117.026 52.992 116.802 53.328C116.482 53.84 116.202 54.408 115.962 55.032C115.738 55.656 115.562 56.28 115.434 56.904ZM128.073 54.144H128.001L127.857 55.392L126.249 63H124.233L126.801 50.808H128.793H129.393L130.425 60.12L135.345 50.808H135.921H137.937L135.369 63H133.353L134.961 55.392L135.321 54.144H135.249L130.617 63H128.985L128.073 54.144ZM147.606 50.808H147.774H149.79L147.222 63H145.206L146.934 54.864L147.342 53.448H147.318L146.598 54.672L140.766 63H140.574H138.582L141.15 50.808H143.166L141.462 58.968L141.054 60.36H141.078L141.798 59.136L147.606 50.808ZM158.607 50.808H160.839L155.439 56.496L158.487 63H156.255L153.687 57.216L152.463 63H150.447L153.015 50.808H155.031L153.975 55.872L158.607 50.808ZM169.446 58.656C169.35 59.104 169.19 59.608 168.966 60.168C168.758 60.712 168.486 61.208 168.15 61.656C167.606 62.36 167.006 62.84 166.35 63.096C165.694 63.352 165.022 63.48 164.334 63.48C164.094 63.48 163.83 63.456 163.542 63.408C163.254 63.376 162.966 63.296 162.678 63.168C162.39 63.04 162.11 62.864 161.838 62.64C161.582 62.416 161.35 62.12 161.142 61.752C161.014 61.528 160.886 61.208 160.758 60.792C160.646 60.36 160.59 59.768 160.59 59.016C160.59 58.36 160.646 57.696 160.758 57.024C160.886 56.352 161.062 55.704 161.286 55.08C161.51 54.456 161.774 53.872 162.078 53.328C162.398 52.784 162.75 52.312 163.134 51.912C163.742 51.272 164.358 50.848 164.982 50.64C165.606 50.432 166.27 50.328 166.974 50.328C167.406 50.328 167.846 50.392 168.294 50.52C168.742 50.632 169.15 50.896 169.518 51.312C169.726 51.552 169.878 51.816 169.974 52.104C170.086 52.376 170.166 52.664 170.214 52.968C170.262 53.272 170.278 53.568 170.262 53.856C170.262 54.128 170.246 54.384 170.214 54.624H168.27C168.302 54.384 168.31 54.056 168.294 53.64C168.294 53.224 168.198 52.856 168.006 52.536C167.878 52.312 167.702 52.136 167.478 52.008C167.254 51.88 166.982 51.816 166.662 51.816C166.342 51.816 165.974 51.904 165.558 52.08C165.142 52.24 164.726 52.616 164.31 53.208C164.038 53.592 163.798 54.04 163.59 54.552C163.398 55.064 163.238 55.592 163.11 56.136C162.982 56.68 162.878 57.224 162.798 57.768C162.734 58.296 162.702 58.768 162.702 59.184C162.702 59.488 162.718 59.8 162.75 60.12C162.798 60.44 162.886 60.736 163.014 61.008C163.334 61.664 163.854 61.992 164.574 61.992C165.07 61.992 165.486 61.872 165.822 61.632C166.158 61.376 166.446 61.064 166.686 60.696C166.91 60.36 167.086 60.016 167.214 59.664C167.342 59.296 167.438 58.96 167.502 58.656H169.446ZM171.71 56.88C171.774 56.56 171.846 56.248 171.926 55.944C172.022 55.64 172.126 55.336 172.238 55.032C172.462 54.472 172.75 53.88 173.102 53.256C173.454 52.632 173.878 52.096 174.374 51.648C174.902 51.184 175.454 50.848 176.03 50.64C176.622 50.432 177.222 50.328 177.83 50.328C178.038 50.328 178.262 50.344 178.502 50.376C178.758 50.408 179.006 50.472 179.246 50.568C179.502 50.664 179.75 50.8 179.99 50.976C180.246 51.136 180.478 51.36 180.686 51.648C180.862 51.888 180.998 52.144 181.094 52.416C181.206 52.672 181.286 52.936 181.334 53.208C181.382 53.464 181.414 53.712 181.43 53.952C181.446 54.176 181.454 54.384 181.454 54.576C181.454 55.264 181.39 55.96 181.262 56.664C181.134 57.368 180.934 58.08 180.662 58.8C180.438 59.392 180.158 59.976 179.822 60.552C179.486 61.128 179.078 61.648 178.598 62.112C178.134 62.544 177.63 62.88 177.086 63.12C176.542 63.36 175.91 63.48 175.19 63.48C174.406 63.48 173.782 63.336 173.318 63.048C172.87 62.776 172.518 62.472 172.262 62.136C172.086 61.896 171.942 61.648 171.83 61.392C171.734 61.12 171.662 60.856 171.614 60.6C171.566 60.328 171.534 60.064 171.518 59.808C171.502 59.552 171.494 59.312 171.494 59.088C171.494 58.336 171.566 57.6 171.71 56.88ZM173.822 56.904C173.678 57.704 173.606 58.504 173.606 59.304C173.606 59.88 173.67 60.344 173.798 60.696C173.926 61.048 174.078 61.32 174.254 61.512C174.446 61.704 174.646 61.832 174.854 61.896C175.062 61.96 175.254 61.992 175.43 61.992C175.798 61.992 176.182 61.888 176.582 61.68C176.998 61.472 177.398 61.064 177.782 60.456C178.022 60.088 178.238 59.656 178.43 59.16C178.622 58.664 178.79 58.144 178.934 57.6C179.078 57.04 179.182 56.48 179.246 55.92C179.326 55.36 179.366 54.832 179.366 54.336C179.366 53.872 179.31 53.48 179.198 53.16C179.102 52.84 178.966 52.584 178.79 52.392C178.63 52.184 178.438 52.04 178.214 51.96C177.99 51.864 177.766 51.816 177.542 51.816C176.95 51.816 176.462 51.984 176.078 52.32C175.71 52.656 175.414 52.992 175.19 53.328C174.87 53.84 174.59 54.408 174.35 55.032C174.126 55.656 173.95 56.28 173.822 56.904ZM189.844 50.808C190.34 50.808 190.74 50.888 191.044 51.048C191.348 51.192 191.572 51.344 191.716 51.504C191.892 51.696 192.044 51.944 192.172 52.248C192.3 52.552 192.364 52.912 192.364 53.328C192.364 53.808 192.284 54.24 192.124 54.624C191.964 54.992 191.748 55.312 191.476 55.584C191.252 55.808 190.988 56 190.684 56.16C190.38 56.32 190.052 56.44 189.7 56.52L189.676 56.664C189.884 56.696 190.076 56.76 190.252 56.856C190.428 56.936 190.58 57.032 190.708 57.144C191.06 57.448 191.284 57.776 191.38 58.128C191.476 58.48 191.524 58.784 191.524 59.04C191.524 59.696 191.396 60.288 191.14 60.816C190.884 61.344 190.548 61.768 190.132 62.088C189.604 62.52 189.044 62.784 188.452 62.88C187.876 62.96 187.372 63 186.94 63H184.636H182.62L185.188 50.808H187.204H189.844ZM186.148 55.896H187.852C187.964 55.896 188.18 55.88 188.5 55.848C188.82 55.8 189.132 55.664 189.436 55.44C189.676 55.264 189.876 55.024 190.036 54.72C190.196 54.416 190.276 54.072 190.276 53.688C190.276 53.4 190.228 53.168 190.132 52.992C190.036 52.8 189.924 52.656 189.796 52.56C189.62 52.432 189.42 52.36 189.196 52.344C188.988 52.312 188.812 52.296 188.668 52.296H186.892L186.148 55.896ZM184.948 61.512H186.82C187.06 61.512 187.34 61.48 187.66 61.416C187.98 61.352 188.3 61.184 188.62 60.912C188.796 60.768 188.972 60.552 189.148 60.264C189.324 59.96 189.412 59.552 189.412 59.04C189.412 58.672 189.364 58.384 189.268 58.176C189.172 57.968 189.06 57.816 188.932 57.72C188.74 57.56 188.516 57.464 188.26 57.432C188.004 57.4 187.788 57.384 187.612 57.384H185.812L184.948 61.512ZM206.013 61.032H205.509C205.301 61.032 205.045 61.024 204.741 61.008C204.437 60.976 204.117 60.92 203.781 60.84C203.445 60.744 203.101 60.608 202.749 60.432C202.413 60.256 202.093 60.008 201.789 59.688C201.421 59.32 201.125 58.856 200.901 58.296C200.693 57.72 200.589 57.032 200.589 56.232C200.589 55.176 200.749 54.168 201.069 53.208C201.389 52.232 201.821 51.368 202.365 50.616C203.277 49.368 204.421 48.528 205.797 48.096C206.197 47.968 206.629 47.872 207.093 47.808C207.557 47.744 207.957 47.712 208.293 47.712H208.797L209.349 45.168H211.485L210.933 47.712H211.437C212.381 47.712 213.157 47.856 213.765 48.144C214.373 48.432 214.837 48.736 215.157 49.056C215.429 49.328 215.645 49.624 215.805 49.944C215.965 50.264 216.085 50.584 216.165 50.904C216.245 51.224 216.293 51.528 216.309 51.816C216.341 52.104 216.357 52.352 216.357 52.56C216.357 53.472 216.221 54.416 215.949 55.392C215.677 56.352 215.221 57.264 214.581 58.128C213.669 59.376 212.525 60.216 211.149 60.648C210.749 60.776 210.325 60.872 209.877 60.936C209.429 61 209.021 61.032 208.653 61.032H208.149L207.621 63.552H205.485L206.013 61.032ZM208.437 49.488H208.149C207.797 49.488 207.429 49.512 207.045 49.56C206.661 49.608 206.261 49.744 205.845 49.968C205.189 50.304 204.685 50.736 204.333 51.264C203.981 51.792 203.693 52.336 203.469 52.896C203.277 53.376 203.117 53.888 202.989 54.432C202.877 54.96 202.821 55.512 202.821 56.088C202.821 56.296 202.829 56.528 202.845 56.784C202.877 57.024 202.933 57.264 203.013 57.504C203.109 57.744 203.229 57.976 203.373 58.2C203.533 58.424 203.741 58.616 203.997 58.776C204.317 59 204.669 59.136 205.053 59.184C205.437 59.232 205.781 59.256 206.085 59.256H206.373L208.437 49.488ZM208.797 59.256C209.117 59.256 209.469 59.232 209.853 59.184C210.253 59.136 210.669 59 211.101 58.776C211.773 58.44 212.285 58.016 212.637 57.504C212.989 56.976 213.277 56.432 213.501 55.872C213.693 55.376 213.845 54.872 213.957 54.36C214.069 53.848 214.125 53.288 214.125 52.68C214.125 52.472 214.109 52.248 214.077 52.008C214.061 51.752 214.013 51.504 213.933 51.264C213.853 51.024 213.733 50.792 213.573 50.568C213.413 50.344 213.205 50.144 212.949 49.968C212.629 49.744 212.285 49.608 211.917 49.56C211.549 49.512 211.197 49.488 210.861 49.488H210.573L208.509 59.256H208.797ZM218.792 54.408C218.888 53.992 219.024 53.576 219.2 53.16C219.376 52.728 219.6 52.344 219.872 52.008C220.384 51.352 220.968 50.912 221.624 50.688C222.28 50.448 222.992 50.328 223.76 50.328C223.92 50.328 224.104 50.336 224.312 50.352C224.536 50.368 224.76 50.408 224.984 50.472C225.208 50.536 225.432 50.624 225.656 50.736C225.88 50.832 226.08 50.976 226.256 51.168C226.48 51.408 226.656 51.696 226.784 52.032C226.912 52.368 226.976 52.72 226.976 53.088C226.976 53.264 226.96 53.496 226.928 53.784C226.896 54.056 226.864 54.272 226.832 54.432L225.56 60.48C225.512 60.688 225.48 60.824 225.464 60.888C225.448 60.952 225.44 61.016 225.44 61.08C225.44 61.256 225.496 61.384 225.608 61.464C225.72 61.544 225.92 61.552 226.208 61.488L225.896 63C225.8 63.016 225.648 63.032 225.44 63.048C225.248 63.08 225.056 63.096 224.864 63.096C224.72 63.096 224.552 63.072 224.36 63.024C224.168 62.992 223.992 62.912 223.832 62.784C223.656 62.624 223.552 62.472 223.52 62.328C223.504 62.168 223.504 62.048 223.52 61.968C223.104 62.432 222.6 62.8 222.008 63.072C221.432 63.344 220.76 63.48 219.992 63.48C219.736 63.48 219.464 63.448 219.176 63.384C218.904 63.32 218.632 63.192 218.36 63C217.992 62.744 217.712 62.424 217.52 62.04C217.328 61.64 217.232 61.136 217.232 60.528C217.232 60.384 217.256 60.136 217.304 59.784C217.352 59.432 217.464 59.048 217.64 58.632C217.768 58.344 217.96 58.048 218.216 57.744C218.472 57.424 218.816 57.136 219.248 56.88C219.696 56.624 220.144 56.448 220.592 56.352C221.04 56.256 221.472 56.176 221.888 56.112C222.176 56.064 222.416 56.032 222.608 56.016C222.8 55.984 222.968 55.96 223.112 55.944C223.256 55.912 223.376 55.888 223.472 55.872C223.584 55.856 223.688 55.832 223.784 55.8C224.088 55.72 224.296 55.624 224.408 55.512C224.52 55.384 224.608 55.224 224.672 55.032C224.704 54.936 224.736 54.816 224.768 54.672C224.8 54.512 224.832 54.352 224.864 54.192C224.896 54.016 224.92 53.856 224.936 53.712C224.952 53.552 224.96 53.416 224.96 53.304C224.96 53.16 224.936 53 224.888 52.824C224.856 52.648 224.776 52.472 224.648 52.296C224.456 52.056 224.248 51.92 224.024 51.888C223.8 51.84 223.6 51.816 223.424 51.816C223.184 51.816 222.936 51.84 222.68 51.888C222.424 51.936 222.16 52.072 221.888 52.296C221.52 52.584 221.248 52.928 221.072 53.328C220.912 53.728 220.808 54.088 220.76 54.408H218.792ZM224.24 57.072C224.032 57.12 223.848 57.16 223.688 57.192C223.544 57.208 223.384 57.232 223.208 57.264C222.776 57.328 222.4 57.376 222.08 57.408C221.776 57.44 221.512 57.496 221.288 57.576C220.92 57.688 220.6 57.856 220.328 58.08C220.056 58.304 219.84 58.56 219.68 58.848C219.44 59.312 219.32 59.824 219.32 60.384C219.32 60.944 219.448 61.352 219.704 61.608C219.976 61.864 220.296 61.992 220.664 61.992C221.08 61.992 221.48 61.896 221.864 61.704C222.264 61.512 222.6 61.256 222.872 60.936C223.128 60.632 223.336 60.288 223.496 59.904C223.656 59.504 223.776 59.144 223.856 58.824L224.24 57.072ZM230.315 63H228.299L230.867 50.808H232.883L231.827 55.824H236.003L237.059 50.808H239.075L236.507 63H234.491L235.691 57.312H231.515L230.315 63ZM249.102 59.472C248.974 59.856 248.79 60.28 248.55 60.744C248.326 61.208 248.03 61.632 247.662 62.016C247.23 62.48 246.71 62.84 246.102 63.096C245.51 63.352 244.814 63.48 244.014 63.48C243.118 63.48 242.422 63.312 241.926 62.976C241.446 62.624 241.078 62.232 240.822 61.8C240.678 61.544 240.542 61.208 240.414 60.792C240.302 60.376 240.246 59.832 240.246 59.16C240.246 58.488 240.302 57.816 240.414 57.144C240.542 56.472 240.718 55.824 240.942 55.2C241.166 54.56 241.43 53.968 241.734 53.424C242.054 52.88 242.398 52.408 242.766 52.008C243.326 51.4 243.926 50.968 244.566 50.712C245.206 50.456 245.91 50.328 246.678 50.328C246.982 50.328 247.286 50.36 247.59 50.424C247.894 50.488 248.19 50.616 248.478 50.808C248.83 51.032 249.102 51.296 249.294 51.6C249.502 51.888 249.654 52.192 249.75 52.512C249.862 52.832 249.934 53.152 249.966 53.472C249.998 53.792 250.014 54.08 250.014 54.336C250.014 54.944 249.966 55.52 249.87 56.064C249.79 56.608 249.71 57.048 249.63 57.384H242.502C242.422 57.736 242.374 58.04 242.358 58.296C242.358 58.552 242.358 58.816 242.358 59.088C242.358 59.36 242.366 59.664 242.382 60C242.414 60.336 242.502 60.648 242.646 60.936C242.806 61.256 243.022 61.512 243.294 61.704C243.566 61.896 243.918 61.992 244.35 61.992C244.766 61.992 245.142 61.904 245.478 61.728C245.814 61.536 246.126 61.264 246.414 60.912C246.606 60.688 246.758 60.456 246.87 60.216C246.982 59.976 247.078 59.728 247.158 59.472H249.102ZM247.854 55.896C247.918 55.544 247.958 55.224 247.974 54.936C247.99 54.648 247.998 54.4 247.998 54.192C247.998 53.904 247.966 53.6 247.902 53.28C247.854 52.96 247.734 52.672 247.542 52.416C247.398 52.24 247.214 52.096 246.99 51.984C246.782 51.872 246.534 51.816 246.246 51.816C245.942 51.816 245.606 51.888 245.238 52.032C244.886 52.16 244.542 52.424 244.206 52.824C243.902 53.176 243.622 53.648 243.366 54.24C243.126 54.816 242.95 55.368 242.838 55.896H247.854ZM259.467 56.904C259.547 56.52 259.603 56.136 259.635 55.752C259.683 55.352 259.707 54.952 259.707 54.552C259.707 53.976 259.659 53.52 259.563 53.184C259.467 52.848 259.347 52.592 259.203 52.416C259.075 52.24 258.891 52.096 258.651 51.984C258.427 51.872 258.171 51.816 257.883 51.816C257.627 51.816 257.283 51.904 256.851 52.08C256.435 52.256 256.011 52.672 255.579 53.328C255.339 53.696 255.115 54.144 254.907 54.672C254.715 55.184 254.547 55.728 254.403 56.304C254.275 56.864 254.171 57.416 254.091 57.96C254.027 58.504 253.995 58.992 253.995 59.424C253.995 59.696 254.019 59.976 254.067 60.264C254.131 60.552 254.227 60.816 254.355 61.056C254.467 61.264 254.643 61.472 254.883 61.68C255.123 61.888 255.435 61.992 255.819 61.992C255.963 61.992 256.131 61.976 256.323 61.944C256.515 61.912 256.723 61.84 256.947 61.728C257.171 61.6 257.395 61.424 257.619 61.2C257.859 60.96 258.091 60.648 258.315 60.264C258.587 59.8 258.819 59.272 259.011 58.68C259.203 58.088 259.355 57.496 259.467 56.904ZM250.131 67.44L253.659 50.808H255.579L255.315 52.056H255.363C255.443 51.928 255.555 51.784 255.699 51.624C255.843 51.448 255.995 51.296 256.155 51.168C256.411 50.944 256.731 50.752 257.115 50.592C257.515 50.416 257.987 50.328 258.531 50.328C259.299 50.328 259.891 50.496 260.307 50.832C260.723 51.152 261.043 51.504 261.267 51.888C261.395 52.128 261.515 52.472 261.627 52.92C261.755 53.352 261.819 53.944 261.819 54.696C261.819 55.208 261.779 55.76 261.699 56.352C261.619 56.944 261.491 57.544 261.315 58.152C261.139 58.76 260.915 59.36 260.643 59.952C260.371 60.528 260.043 61.056 259.659 61.536C258.651 62.832 257.379 63.48 255.843 63.48C255.507 63.48 255.179 63.432 254.859 63.336C254.539 63.24 254.235 63.064 253.947 62.808C253.819 62.696 253.699 62.576 253.587 62.448C253.475 62.304 253.379 62.144 253.299 61.968L252.147 67.44H250.131ZM263.747 56.88C263.811 56.56 263.883 56.248 263.963 55.944C264.059 55.64 264.163 55.336 264.275 55.032C264.499 54.472 264.787 53.88 265.139 53.256C265.491 52.632 265.915 52.096 266.411 51.648C266.939 51.184 267.491 50.848 268.067 50.64C268.659 50.432 269.259 50.328 269.867 50.328C270.075 50.328 270.299 50.344 270.539 50.376C270.795 50.408 271.043 50.472 271.283 50.568C271.539 50.664 271.787 50.8 272.027 50.976C272.283 51.136 272.515 51.36 272.723 51.648C272.899 51.888 273.035 52.144 273.131 52.416C273.243 52.672 273.323 52.936 273.371 53.208C273.419 53.464 273.451 53.712 273.467 53.952C273.483 54.176 273.491 54.384 273.491 54.576C273.491 55.264 273.427 55.96 273.299 56.664C273.171 57.368 272.971 58.08 272.699 58.8C272.475 59.392 272.195 59.976 271.859 60.552C271.523 61.128 271.115 61.648 270.635 62.112C270.171 62.544 269.667 62.88 269.123 63.12C268.579 63.36 267.947 63.48 267.227 63.48C266.443 63.48 265.819 63.336 265.355 63.048C264.907 62.776 264.555 62.472 264.299 62.136C264.123 61.896 263.979 61.648 263.867 61.392C263.771 61.12 263.699 60.856 263.651 60.6C263.603 60.328 263.571 60.064 263.555 59.808C263.539 59.552 263.531 59.312 263.531 59.088C263.531 58.336 263.603 57.6 263.747 56.88ZM265.859 56.904C265.715 57.704 265.643 58.504 265.643 59.304C265.643 59.88 265.707 60.344 265.835 60.696C265.963 61.048 266.115 61.32 266.291 61.512C266.483 61.704 266.683 61.832 266.891 61.896C267.099 61.96 267.291 61.992 267.467 61.992C267.835 61.992 268.219 61.888 268.619 61.68C269.035 61.472 269.435 61.064 269.819 60.456C270.059 60.088 270.275 59.656 270.467 59.16C270.659 58.664 270.827 58.144 270.971 57.6C271.115 57.04 271.219 56.48 271.283 55.92C271.363 55.36 271.403 54.832 271.403 54.336C271.403 53.872 271.347 53.48 271.235 53.16C271.139 52.84 271.003 52.584 270.827 52.392C270.667 52.184 270.475 52.04 270.251 51.96C270.027 51.864 269.803 51.816 269.579 51.816C268.987 51.816 268.499 51.984 268.115 52.32C267.747 52.656 267.451 52.992 267.227 53.328C266.907 53.84 266.627 54.408 266.387 55.032C266.163 55.656 265.987 56.28 265.859 56.904ZM276.673 63H274.657L277.225 50.808H279.241L278.185 55.824H282.361L283.417 50.808H285.433L282.865 63H280.849L282.049 57.312H277.873L276.673 63ZM287.685 54.408C287.781 53.992 287.917 53.576 288.093 53.16C288.269 52.728 288.493 52.344 288.765 52.008C289.277 51.352 289.861 50.912 290.517 50.688C291.173 50.448 291.885 50.328 292.653 50.328C292.813 50.328 292.997 50.336 293.205 50.352C293.429 50.368 293.653 50.408 293.877 50.472C294.101 50.536 294.325 50.624 294.549 50.736C294.773 50.832 294.973 50.976 295.149 51.168C295.373 51.408 295.549 51.696 295.677 52.032C295.805 52.368 295.869 52.72 295.869 53.088C295.869 53.264 295.853 53.496 295.821 53.784C295.789 54.056 295.757 54.272 295.725 54.432L294.453 60.48C294.405 60.688 294.373 60.824 294.357 60.888C294.341 60.952 294.333 61.016 294.333 61.08C294.333 61.256 294.389 61.384 294.501 61.464C294.613 61.544 294.813 61.552 295.101 61.488L294.789 63C294.693 63.016 294.541 63.032 294.333 63.048C294.141 63.08 293.949 63.096 293.757 63.096C293.613 63.096 293.445 63.072 293.253 63.024C293.061 62.992 292.885 62.912 292.725 62.784C292.549 62.624 292.445 62.472 292.413 62.328C292.397 62.168 292.397 62.048 292.413 61.968C291.997 62.432 291.493 62.8 290.901 63.072C290.325 63.344 289.653 63.48 288.885 63.48C288.629 63.48 288.357 63.448 288.069 63.384C287.797 63.32 287.525 63.192 287.253 63C286.885 62.744 286.605 62.424 286.413 62.04C286.221 61.64 286.125 61.136 286.125 60.528C286.125 60.384 286.149 60.136 286.197 59.784C286.245 59.432 286.357 59.048 286.533 58.632C286.661 58.344 286.853 58.048 287.109 57.744C287.365 57.424 287.709 57.136 288.141 56.88C288.589 56.624 289.037 56.448 289.485 56.352C289.933 56.256 290.365 56.176 290.781 56.112C291.069 56.064 291.309 56.032 291.501 56.016C291.693 55.984 291.861 55.96 292.005 55.944C292.149 55.912 292.269 55.888 292.365 55.872C292.477 55.856 292.581 55.832 292.677 55.8C292.981 55.72 293.189 55.624 293.301 55.512C293.413 55.384 293.501 55.224 293.565 55.032C293.597 54.936 293.629 54.816 293.661 54.672C293.693 54.512 293.725 54.352 293.757 54.192C293.789 54.016 293.813 53.856 293.829 53.712C293.845 53.552 293.853 53.416 293.853 53.304C293.853 53.16 293.829 53 293.781 52.824C293.749 52.648 293.669 52.472 293.541 52.296C293.349 52.056 293.141 51.92 292.917 51.888C292.693 51.84 292.493 51.816 292.317 51.816C292.077 51.816 291.829 51.84 291.573 51.888C291.317 51.936 291.053 52.072 290.781 52.296C290.413 52.584 290.141 52.928 289.965 53.328C289.805 53.728 289.701 54.088 289.653 54.408H287.685ZM293.133 57.072C292.925 57.12 292.741 57.16 292.581 57.192C292.437 57.208 292.277 57.232 292.101 57.264C291.669 57.328 291.293 57.376 290.973 57.408C290.669 57.44 290.405 57.496 290.181 57.576C289.813 57.688 289.493 57.856 289.221 58.08C288.949 58.304 288.733 58.56 288.573 58.848C288.333 59.312 288.213 59.824 288.213 60.384C288.213 60.944 288.341 61.352 288.597 61.608C288.869 61.864 289.189 61.992 289.557 61.992C289.973 61.992 290.373 61.896 290.757 61.704C291.157 61.512 291.493 61.256 291.765 60.936C292.021 60.632 292.229 60.288 292.389 59.904C292.549 59.504 292.669 59.144 292.749 58.824L293.133 57.072Z" fill="#EBE6E1"/>
</svg>
