<svg width="571" height="725" viewBox="0 0 571 725" fill="none" xmlns="http://www.w3.org/2000/svg">
<path d="M61.5673 218.689L65.405 207.582C67.3069 202.077 65.1596 198.419 60.1956 196.704L54.8383 194.853C50.4149 193.325 48.178 194.863 46.8447 196.493C46.7831 194.601 45.9029 192.371 41.8235 190.962L38.5797 189.841C33.7139 188.16 30.7908 189.296 28.838 194.948L25.0003 206.056L61.5673 218.689ZM33.1416 198.415C33.9057 196.204 35.0621 195.723 37.4704 196.555L40.3703 197.557C42.7786 198.389 43.5882 199.549 42.841 201.712L41.8221 204.66L32.1397 201.315L33.1416 198.415ZM48.1 203.528C48.8981 201.218 50.2359 200.69 52.7916 201.573L57.215 203.102C59.82 204.002 60.4821 205.111 59.684 207.421L58.6312 210.468L47.0811 206.477L48.1 203.528Z" fill="#EBE6E1"/>
<path d="M72.5275 189.777L61.6599 179.584L76.3987 181.656L79.3747 175.414L58.1125 172.766L44.1834 159.329L41.2521 165.478L51.235 174.384L38.0299 172.237L34.9867 178.621L54.1006 180.82L69.5962 195.926L72.5275 189.777Z" fill="#EBE6E1"/>
<path d="M68.4791 138.136C62.9696 134.687 58.1904 135.069 54.5483 140.887L53.9965 141.769C50.4372 147.455 52.0379 151.954 57.6796 155.485L73.503 165.391C79.321 169.033 84.0066 168.408 87.566 162.722L88.1178 161.841C91.6219 156.243 90.1645 151.711 84.3465 148.069L68.4791 138.136ZM80.6933 154.003C83.1615 155.548 83.8162 157.246 82.685 159.053C81.5261 160.904 79.7126 161.057 77.2443 159.512L61.421 149.607C58.6442 147.868 58.2816 146.292 59.3852 144.529C60.4613 142.81 62.0932 142.359 64.87 144.097L80.6933 154.003Z" fill="#EBE6E1"/>
<path d="M91.0205 145.066L100.199 152.488L104.221 147.514L99.8538 143.983L107.897 134.036L112.264 137.567L116.285 132.594L107.107 125.172L105.145 127.598L79.8727 107.164L68.2986 121.478C86.535 136.223 90.2206 139.605 92.1648 143.651L91.0205 145.066ZM96.3825 138.435C94.2963 135.143 91.0417 131.642 76.9702 120.264L80.1743 116.301L100.796 132.976L96.3825 138.435Z" fill="#EBE6E1"/>
<path d="M125.626 115.315L134.517 107.631C138.924 103.822 138.901 99.581 135.467 95.6074L131.76 91.319C128.7 87.7782 125.994 87.9866 124.023 88.7279C124.918 87.0603 125.275 84.69 122.453 81.4245L120.209 78.8279C116.843 74.9329 113.744 74.4492 109.22 78.3595L100.328 86.0439L125.626 115.315ZM111.204 83.5178C112.974 81.9877 114.216 82.1519 115.882 84.0797L117.888 86.4009C119.554 88.3287 119.673 89.7383 117.942 91.2344L115.581 93.2745L108.883 85.5239L111.204 83.5178ZM121.58 95.4441C123.429 93.846 124.851 94.0602 126.619 96.106L129.679 99.6469C131.481 101.732 131.498 103.024 129.649 104.622L127.21 106.73L119.219 97.4842L121.58 95.4441Z" fill="#EBE6E1"/>
<path d="M169.584 82.9705L175.647 79.3288L158.062 65.8096L155.1 46.5395L149.305 50.0205L152.196 68.3632L143.332 53.6086L137.448 57.1432L157.371 90.3075L163.255 86.7729L153.722 70.904L169.584 82.9705Z" fill="#EBE6E1"/>
<path d="M186.517 42.628C183.829 36.7096 179.634 34.3884 173.384 37.2263L172.438 37.6563C166.33 40.4298 165.179 45.0643 167.931 51.1247L175.649 68.1224C178.487 74.3722 182.738 76.4396 188.846 73.6661L189.793 73.2361C195.806 70.5056 197.095 65.9228 194.257 59.673L186.517 42.628ZM187.934 62.6013C189.138 65.2528 188.745 67.03 186.804 67.9115C184.816 68.8145 183.219 67.9402 182.015 65.2888L174.297 48.2911C172.942 45.3082 173.511 43.7936 175.405 42.9336C177.252 42.0951 178.861 42.6208 180.215 45.6037L187.934 62.6013Z" fill="#EBE6E1"/>
<path d="M217.068 42.8396C216.552 37.5618 216.182 34.1961 215.777 30.8953C216.882 35.0703 217.875 38.5185 219.477 43.7925L224.465 60.2115L230.237 58.4582L218.991 21.4407L210.284 24.0858L211.752 38.0417C212.271 42.6122 212.629 45.2209 213.077 48.128C211.833 45.4627 210.629 43.111 208.518 39.0242L201.975 26.6101L193.119 29.3006L204.364 66.3181L209.987 64.61L204.999 48.191C203.397 42.917 202.354 39.4839 200.95 35.3996C202.464 38.4177 203.899 41.3513 206.626 46.3923L215.46 62.9474L218.943 61.8893L217.068 42.8396Z" fill="#EBE6E1"/>
<path d="M250.809 54.806L257.378 53.7345L251.15 15.5511L244.427 16.6477L242.267 33.1223C241.644 37.7023 241.464 40.4715 241.215 43.1464C240.959 40.6065 240.643 38.0237 239.572 31.4545L237.345 17.8029L230.776 18.8744L237.004 57.0578L243.727 55.9612L245.887 39.4866C246.544 34.7956 246.769 31.6504 246.991 29.1378C247.128 31.5918 247.545 34.7905 248.583 41.1544L250.809 54.806Z" fill="#EBE6E1"/>
<path d="M280.321 52.2745L287.386 51.9743L278.405 31.6932L285.017 13.3521L278.263 13.639L272.032 31.1312L271.301 13.9347L264.444 14.226L266.085 52.8791L272.943 52.5878L272.158 34.0925L280.321 52.2745Z" fill="#EBE6E1"/>
<path d="M302.013 47.2136C299.783 47.0585 299.106 45.5519 299.297 42.8025L300.621 23.7645C300.812 21.0151 301.688 19.6686 303.918 19.8238C306.201 19.9825 306.878 21.4891 306.69 24.1866L306.387 28.5441L313.079 29.0095L313.404 24.3408C313.851 17.9084 311.596 14.3633 304.748 13.8871L303.503 13.8005C297.123 13.3567 294.117 16.8486 293.688 23.0216L292.32 42.6822C291.902 48.6996 294.381 52.7814 300.969 53.2397L302.214 53.3263C308.854 53.7881 311.654 49.5 312.029 44.1051L312.491 37.4651L305.799 36.9997L305.363 43.2765C305.179 45.9221 304.296 47.3724 302.013 47.2136Z" fill="#EBE6E1"/>
<path d="M334.384 17.8586L327.616 16.4333L319.643 54.2909L330.838 56.6485C336.588 57.8594 339.515 54.8092 340.469 50.2806L341.969 43.1568C342.923 38.6282 341.525 34.6671 335.724 33.4455L331.297 32.5131L334.384 17.8586ZM327.568 50.2207L330.14 38.0086L332.684 38.5444C334.974 39.0266 335.44 40.347 334.893 42.9421L333.875 47.776C333.35 50.2693 332.3 51.2173 330.214 50.778L327.568 50.2207ZM356.518 22.5202L349.751 21.0949L341.778 58.9525L348.545 60.3777L356.518 22.5202Z" fill="#EBE6E1"/>
<path d="M386.858 70.3767L389.178 71.4301C395.049 74.0961 398.401 72.2486 400.916 66.709L406.313 54.8248C409.086 48.717 407.591 45.4684 402.194 43.0174L399.779 41.921L401.22 38.7487L394.922 35.8892L393.482 39.0615L391.067 37.965C385.67 35.514 382.24 36.5267 379.467 42.6345L374.07 54.5186C371.555 60.0583 372.37 63.7977 378.241 66.4637L380.561 67.5172L378.497 72.0625L384.794 74.922L386.858 70.3767ZM382.99 62.167L381.854 61.651C379.723 60.6835 379.791 58.7727 380.651 56.8788L385.704 45.7522C386.628 43.7162 387.94 42.713 390.024 43.659L391.16 44.175L382.99 62.167ZM397.457 47.0345L398.594 47.5505C400.677 48.4964 400.785 50.1447 399.861 52.1806L394.808 63.3072C393.948 65.2011 392.554 66.5099 390.424 65.5424L389.287 65.0264L397.457 47.0345Z" fill="#EBE6E1"/>
<path d="M419.42 68.6295C422.157 65.4345 424.027 63.231 425.389 61.4461C424.335 63.4242 423.209 65.9093 421.492 69.9263L418.074 78.0319L413.667 75.2728L419.42 68.6295ZM412.994 90.0665L418.636 93.5982L433.302 57.1359L425.986 52.5557L399.948 81.8993L405.105 85.1276L409.81 79.6686L415.805 83.421L412.994 90.0665Z" fill="#EBE6E1"/>
<path d="M422.659 96.4876L428.069 100.797L438.566 87.6188L443.569 91.604L433.071 104.782L438.481 109.091L462.586 78.8307L457.177 74.5215L447.619 86.5199L442.616 82.5347L452.174 70.5363L446.765 66.2272L422.659 96.4876Z" fill="#EBE6E1"/>
<path d="M471.521 86.9031L444.264 114.359L456.553 126.559L460.913 122.167L453.421 114.73L460.968 107.128L467.021 113.136L471.38 108.745L465.328 102.737L472.069 95.9464L479.339 103.164L483.589 98.8829L471.521 86.9031Z" fill="#EBE6E1"/>
<path d="M479.261 129.197C482.725 133.418 486.582 134.019 491.124 130.292L496.028 126.267C500.812 122.341 500.671 118.891 497.108 114.55L490.082 105.988L460.176 130.532L464.563 135.878L476.622 125.982L479.261 129.197ZM490.208 114.831L491.759 116.721C493.309 118.61 493.081 119.807 490.669 121.786L487.855 124.095C485.323 126.173 484.185 126.098 482.634 124.209L481.084 122.32L490.208 114.831Z" fill="#EBE6E1"/>
<path d="M511.234 151.833C516.693 148.303 518.371 143.812 514.644 138.048L514.079 137.175C510.437 131.542 505.683 131.086 500.094 134.7L484.418 144.837C478.654 148.564 477.235 153.073 480.877 158.706L481.442 159.579C485.028 165.125 489.75 165.725 495.514 161.997L511.234 151.833ZM491.687 156.174C489.242 157.756 487.426 157.629 486.269 155.839C485.083 154.005 485.712 152.297 488.158 150.716L503.834 140.579C506.585 138.801 508.167 139.14 509.296 140.887C510.397 142.59 510.114 144.259 507.363 146.038L491.687 156.174Z" fill="#EBE6E1"/>
<path d="M490.741 173.859L493.787 180.069L508.913 172.65L511.73 178.392L496.603 185.811L499.648 192.021L534.384 174.985L531.338 168.775L517.565 175.53L514.749 169.788L528.522 163.033L525.476 156.823L490.741 173.859Z" fill="#EBE6E1"/>
<path d="M525.628 199.531C529.758 198.732 532.593 198.169 534.77 197.619C532.714 198.513 530.287 199.758 526.444 201.835L518.726 206.056L516.991 201.154L525.628 199.531ZM507.263 212.32L509.484 218.595L543.647 199.166L540.767 191.029L502.127 197.81L504.157 203.545L511.237 202.198L513.597 208.865L507.263 212.32Z" fill="#EBE6E1"/>
<path d="M527.65 241.504C528.132 245.164 531.056 247.454 534.768 246.965C538.48 246.476 540.711 243.507 540.229 239.846C539.747 236.186 536.816 233.845 533.104 234.334C529.392 234.823 527.167 237.843 527.65 241.504Z" fill="#EBE6E1"/>
<path d="M519 266.393V278.145C519 283.969 522.224 286.725 527.476 286.725H533.144C537.824 286.725 539.436 284.541 540.164 282.565C540.84 284.333 542.4 286.153 546.716 286.153H550.148C555.296 286.153 557.688 284.125 557.688 278.145V266.393H519ZM552.488 276.273C552.488 278.613 551.552 279.445 549.004 279.445H545.936C543.388 279.445 542.244 278.613 542.244 276.325V273.205H552.488V276.273ZM536.68 276.325C536.68 278.769 535.588 279.705 532.884 279.705H528.204C525.448 279.705 524.46 278.873 524.46 276.429V273.205H536.68V276.325Z" fill="#EBE6E1"/>
<path d="M519 296.807L533.196 301.331L519 305.803V312.719L539.332 305.959L557.688 312.095V305.283L544.844 301.539L557.688 297.795V290.723L539.488 296.963L519 289.995V296.807Z" fill="#EBE6E1"/>
<path d="M547.756 337.05C554.256 337.05 558.104 334.19 558.104 327.326V326.286C558.104 319.578 554.36 316.614 547.704 316.614H529.036C522.172 316.614 518.532 319.63 518.532 326.338V327.378C518.532 333.982 522.172 337.05 529.036 337.05H547.756ZM528.984 330.082C526.072 330.082 524.616 328.99 524.616 326.858C524.616 324.674 526.072 323.582 528.984 323.582H547.652C550.928 323.582 552.072 324.726 552.072 326.806C552.072 328.834 550.928 330.082 547.652 330.082H528.984Z" fill="#EBE6E1"/>
<path d="M525.188 341.348H513.384V347.744H519V360.536H513.384V366.932H525.188V363.812H557.688V345.404C534.236 345.404 529.244 345.092 525.188 343.168V341.348ZM525.188 349.876C528.88 351.124 533.612 351.8 551.708 351.8V356.896H525.188V349.876Z" fill="#EBE6E1"/>
<path d="M519 384.399V396.151C519 401.975 522.224 404.731 527.476 404.731H533.144C537.824 404.731 539.436 402.547 540.164 400.571C540.84 402.339 542.4 404.159 546.716 404.159H550.148C555.296 404.159 557.688 402.131 557.688 396.151V384.399H519ZM552.488 394.279C552.488 396.619 551.552 397.451 549.004 397.451H545.936C543.388 397.451 542.244 396.619 542.244 394.331V391.211H552.488V394.279ZM536.68 394.331C536.68 396.775 535.588 397.711 532.884 397.711H528.204C525.448 397.711 524.46 396.879 524.46 394.435V391.211H536.68V394.331Z" fill="#EBE6E1"/>
<path d="M519 436.983V444.055L539.644 435.943L557.688 443.327V436.567L540.476 429.599H557.688V422.735H519V429.599H537.512L519 436.983Z" fill="#EBE6E1"/>
<path d="M547.756 467.763C554.256 467.763 558.104 464.903 558.104 458.039V456.999C558.104 450.291 554.36 447.327 547.704 447.327H529.036C522.172 447.327 518.532 450.343 518.532 457.051V458.091C518.532 464.695 522.172 467.763 529.036 467.763H547.756ZM528.984 460.795C526.072 460.795 524.616 459.703 524.616 457.571C524.616 455.387 526.072 454.295 528.984 454.295H547.652C550.928 454.295 552.072 455.439 552.072 457.519C552.072 459.547 550.928 460.795 547.652 460.795H528.984Z" fill="#EBE6E1"/>
<path d="M537.772 492.105C542.972 493.145 546.3 493.769 549.576 494.341C545.26 494.185 541.672 494.133 536.16 494.133H519V500.165H557.688V491.065L543.908 488.413C539.384 487.581 536.784 487.165 533.872 486.749C536.784 486.333 539.384 485.865 543.908 485.033L557.688 482.381V473.125H519V479.001H536.16C541.672 479.001 545.26 479.001 549.576 478.845C546.248 479.417 543.024 479.937 537.408 481.081L519 484.721V488.361L537.772 492.105Z" fill="#EBE6E1"/>
<path d="M519 521.375V528.031H557.688V521.219L541.776 516.435C537.356 515.083 534.652 514.459 532.052 513.783C534.6 513.939 537.2 514.043 543.856 514.043H557.688V507.387H519V514.199L534.912 518.983C539.436 520.387 542.504 521.115 544.948 521.739C542.504 521.479 539.28 521.375 532.832 521.375H519Z" fill="#EBE6E1"/>
<path d="M519 547.726V554.798L539.644 546.686L557.688 554.07V547.31L540.476 540.342H557.688V533.478H519V540.342H537.512L519 547.726Z" fill="#EBE6E1"/>
<path d="M524.616 568.419C524.616 566.183 526.072 565.403 528.828 565.403H547.912C550.668 565.403 552.072 566.183 552.072 568.419C552.072 570.707 550.616 571.487 547.912 571.487H543.544V578.195H548.224C554.672 578.195 558.052 575.699 558.052 568.835V567.587C558.052 561.191 554.36 558.435 548.172 558.435H528.464C522.432 558.435 518.532 561.191 518.532 567.795V569.043C518.532 575.699 523.004 578.195 528.412 578.195H535.068V571.487H528.776C526.124 571.487 524.616 570.707 524.616 568.419Z" fill="#EBE6E1"/>
<path d="M557.688 591.612V584.696H519V596.136C519 602.012 522.588 604.248 527.216 604.248H534.496C539.124 604.248 542.712 602.064 542.712 596.136V591.612H557.688ZM524.616 591.612H537.096V594.212C537.096 596.552 535.9 597.28 533.248 597.28H528.308C525.76 597.28 524.616 596.448 524.616 594.316V591.612ZM557.688 614.232V607.316H519V614.232H557.688Z" fill="#EBE6E1"/>
<path d="M523.472 649.749V652.297C523.472 658.745 526.54 661.033 532.624 661.033H545.676C552.384 661.033 554.724 658.329 554.724 652.401V649.749H558.208V642.833H554.724V640.181C554.724 634.253 552.384 631.549 545.676 631.549H532.624C526.54 631.549 523.472 633.837 523.472 640.285V642.833H518.48V649.749H523.472ZM529.348 642.833V641.585C529.348 639.245 531.116 638.517 533.196 638.517H545.416C547.652 638.517 549.108 639.297 549.108 641.585V642.833H529.348ZM549.108 649.749V650.997C549.108 653.285 547.652 654.065 545.416 654.065H533.196C531.116 654.065 529.348 653.337 529.348 650.997V649.749H549.108Z" fill="#EBE6E1"/>
<path d="M540.58 676.028C544.74 676.652 547.6 677.068 549.836 677.276C547.6 677.432 544.896 677.796 540.58 678.472L531.896 679.876V674.676L540.58 676.028ZM519 681.956V688.612L557.688 681.696V673.064L519 666.564V672.648L526.124 673.74V680.812L519 681.956Z" fill="#EBE6E1"/>
<path d="M519 692.472V699.388H535.848V705.784H519V712.7H557.688V705.784H542.348V699.388H557.688V692.472H519Z" fill="#EBE6E1"/>
<path d="M557.688 718.083H519V735.399H525.188V724.843H535.9V733.371H542.088V724.843H551.656V735.087H557.688V718.083Z" fill="#EBE6E1"/>
<path d="M52 719.316V707.564C52 701.74 48.776 698.984 43.524 698.984H37.856C33.176 698.984 31.564 701.168 30.836 703.144C30.16 701.376 28.6 699.556 24.284 699.556H20.852C15.704 699.556 13.312 701.584 13.312 707.564L13.312 719.316H52ZM18.512 709.436C18.512 707.096 19.448 706.264 21.996 706.264H25.064C27.612 706.264 28.756 707.096 28.756 709.384V712.504H18.512V709.436ZM34.32 709.384C34.32 706.94 35.412 706.004 38.116 706.004H42.796C45.552 706.004 46.54 706.836 46.54 709.28V712.504H34.32V709.384Z" fill="#EBE6E1"/>
<path d="M52 666.732V659.66L31.356 667.772L13.312 660.388V667.148L30.524 674.116H13.312V680.98H52V674.116H33.488L52 666.732Z" fill="#EBE6E1"/>
<path d="M23.244 635.952C16.744 635.952 12.896 638.812 12.896 645.676V646.716C12.896 653.424 16.64 656.388 23.296 656.388H41.964C48.828 656.388 52.468 653.372 52.468 646.664V645.624C52.468 639.02 48.828 635.952 41.964 635.952H23.244ZM42.016 642.92C44.928 642.92 46.384 644.012 46.384 646.144C46.384 648.328 44.928 649.42 42.016 649.42H23.348C20.072 649.42 18.928 648.276 18.928 646.196C18.928 644.168 20.072 642.92 23.348 642.92H42.016Z" fill="#EBE6E1"/>
<path d="M33.228 611.61C28.028 610.57 24.7 609.946 21.424 609.374C25.74 609.53 29.328 609.582 34.84 609.582H52V603.55H13.312V612.65L27.092 615.302C31.616 616.134 34.216 616.55 37.128 616.966C34.216 617.382 31.616 617.85 27.092 618.682L13.312 621.334V630.59H52V624.714H34.84C29.328 624.714 25.74 624.714 21.424 624.87C24.752 624.298 27.976 623.778 33.592 622.634L52 618.994V615.354L33.228 611.61Z" fill="#EBE6E1"/>
<path d="M52 582.34V575.684H13.312V582.496L29.224 587.28C33.644 588.632 36.348 589.256 38.948 589.932C36.4 589.776 33.8 589.672 27.144 589.672H13.312V596.328H52V589.516L36.088 584.732C31.564 583.328 28.496 582.6 26.052 581.976C28.496 582.236 31.72 582.34 38.168 582.34H52Z" fill="#EBE6E1"/>
<path d="M52 555.988V548.916L31.356 557.028L13.312 549.644V556.404L30.524 563.372H13.312V570.236H52V563.372H33.488L52 555.988Z" fill="#EBE6E1"/>
<path d="M46.384 535.297C46.384 537.533 44.928 538.313 42.172 538.313H23.088C20.332 538.313 18.928 537.533 18.928 535.297C18.928 533.009 20.384 532.229 23.088 532.229H27.456V525.521H22.776C16.328 525.521 12.948 528.017 12.948 534.881V536.129C12.948 542.525 16.64 545.281 22.828 545.281H42.536C48.568 545.281 52.468 542.525 52.468 535.921V534.673C52.468 528.017 47.996 525.521 42.588 525.521H35.932V532.229H42.224C44.876 532.229 46.384 533.009 46.384 535.297Z" fill="#EBE6E1"/>
<path d="M13.312 512.103V519.019H52V507.579C52 501.703 48.412 499.467 43.784 499.467H36.504C31.876 499.467 28.288 501.651 28.288 507.579V512.103H13.312ZM46.384 512.103H33.904V509.503C33.904 507.163 35.1 506.435 37.752 506.435H42.692C45.24 506.435 46.384 507.267 46.384 509.399V512.103ZM13.312 489.483V496.399H52V489.483H13.312Z" fill="#EBE6E1"/>
<path d="M47.528 453.967V451.419C47.528 444.971 44.46 442.683 38.376 442.683H25.324C18.616 442.683 16.276 445.387 16.276 451.315V453.967H12.792L12.792 460.883H16.276V463.535C16.276 469.463 18.616 472.167 25.324 472.167H38.376C44.46 472.167 47.528 469.879 47.528 463.431V460.883H52.52V453.967H47.528ZM41.652 460.883V462.131C41.652 464.471 39.884 465.199 37.804 465.199H25.584C23.348 465.199 21.892 464.419 21.892 462.131V460.883H41.652ZM21.892 453.967V452.719C21.892 450.431 23.348 449.651 25.584 449.651H37.804C39.884 449.651 41.652 450.379 41.652 452.719V453.967H21.892Z" fill="#EBE6E1"/>
<path d="M30.42 427.689C26.26 427.065 23.4 426.649 21.164 426.441C23.4 426.285 26.104 425.921 30.42 425.245L39.104 423.841V429.041L30.42 427.689ZM52 421.761V415.105L13.312 422.021L13.312 430.653L52 437.153V431.069L44.876 429.977V422.905L52 421.761Z" fill="#EBE6E1"/>
<path d="M52 411.244V404.328H35.152V397.932H52V391.016H13.312V397.932H28.652V404.328H13.312V411.244H52Z" fill="#EBE6E1"/>
<path d="M13.312 385.632H52V368.316H45.812V378.872H35.1V370.344H28.912V378.872H19.344V368.628H13.312L13.312 385.632Z" fill="#EBE6E1"/>
<path d="M36.4 351.79C36.4 346.33 33.8 343.418 27.924 343.418H21.58C15.392 343.418 13.312 346.174 13.312 351.79L13.312 362.866H52V355.95H36.4V351.79ZM18.824 355.95V353.506C18.824 351.062 19.76 350.282 22.88 350.282H26.52C29.796 350.282 30.628 351.062 30.628 353.506V355.95H18.824Z" fill="#EBE6E1"/>
<path d="M23.244 318.243C16.744 318.243 12.896 321.103 12.896 327.967V329.007C12.896 335.715 16.64 338.679 23.296 338.679H41.964C48.828 338.679 52.468 335.663 52.468 328.955V327.915C52.468 321.311 48.828 318.243 41.964 318.243H23.244ZM42.016 325.211C44.928 325.211 46.384 326.303 46.384 328.435C46.384 330.619 44.928 331.711 42.016 331.711H23.348C20.072 331.711 18.928 330.567 18.928 328.487C18.928 326.459 20.072 325.211 23.348 325.211H42.016Z" fill="#EBE6E1"/>
<path d="M52 313.209V306.293H35.152V299.897H52V292.981H13.312V299.897H28.652V306.293H13.312V313.209H52Z" fill="#EBE6E1"/>
<path d="M30.42 278.82C26.26 278.196 23.4 277.78 21.164 277.572C23.4 277.416 26.104 277.052 30.42 276.376L39.104 274.972V280.172L30.42 278.82ZM52 272.892V266.236L13.312 273.152L13.312 281.784L52 288.284V282.2L44.876 281.108V274.036L52 272.892Z" fill="#EBE6E1"/>
<path d="M41.236 240.485C41.236 236.793 38.636 234.141 34.892 234.141C31.148 234.141 28.548 236.793 28.548 240.485C28.548 244.177 31.148 246.881 34.892 246.881C38.636 246.881 41.236 244.177 41.236 240.485Z" fill="#EBE6E1"/>
</svg>
