<svg width="343" height="230" viewBox="0 0 343 230" fill="none" xmlns="http://www.w3.org/2000/svg">
<path fill-rule="evenodd" clip-rule="evenodd" d="M320.016 0H310.984C310.726 3.90902 307.474 7 303.5 7C299.526 7 296.274 3.90902 296.016 0H286.984C286.726 3.90902 283.474 7 279.5 7C275.526 7 272.274 3.90902 272.016 0H262.984C262.726 3.90902 259.474 7 255.5 7C251.526 7 248.274 3.90902 248.016 0H238.984C238.726 3.90902 235.474 7 231.5 7C227.526 7 224.274 3.90902 224.016 0H214.984C214.726 3.90902 211.474 7 207.5 7C203.526 7 200.274 3.90902 200.016 0H190.984C190.726 3.90902 187.474 7 183.5 7C179.526 7 176.274 3.90902 176.016 0H166.984C166.726 3.90902 163.474 7 159.5 7C155.526 7 152.274 3.90902 152.016 0H142.984C142.726 3.90902 139.474 7 135.5 7C131.526 7 128.274 3.90902 128.016 0H118.984C118.726 3.90902 115.474 7 111.5 7C107.526 7 104.274 3.90902 104.016 0H94.9836C94.7263 3.90902 91.4741 7 87.5 7C83.5259 7 80.2737 3.90902 80.0164 0H70.9836C70.7263 3.90902 67.4741 7 63.5 7C59.5259 7 56.2737 3.90902 56.0164 0H46.9836C46.7263 3.90902 43.4741 7 39.5 7C35.5259 7 32.2737 3.90902 32.0164 0H22.9836C22.7263 3.90902 19.4741 7 15.5 7C11.5259 7 8.27369 3.90902 8.0164 0H0V8.0164C3.90902 8.27369 7 11.5259 7 15.5C7 19.4741 3.90902 22.7263 0 22.9836V33.0164C3.90902 33.2737 7 36.5259 7 40.5C7 44.4741 3.90902 47.7263 0 47.9836V58.0164C3.90902 58.2737 7 61.5259 7 65.5C7 69.4741 3.90902 72.7263 0 72.9836V83.0164C3.90902 83.2737 7 86.5259 7 90.5C7 94.4741 3.90902 97.7263 0 97.9836V108.016C3.90902 108.274 7 111.526 7 115.5C7 119.474 3.90902 122.726 0 122.984V133.016C3.90902 133.274 7 136.526 7 140.5C7 144.474 3.90902 147.726 0 147.984V158.016C3.90902 158.274 7 161.526 7 165.5C7 169.474 3.90902 172.726 0 172.984V183.016C3.90902 183.274 7 186.526 7 190.5C7 194.474 3.90902 197.726 0 197.984V208.016C3.90902 208.274 7 211.526 7 215.5C7 219.474 3.90902 222.726 0 222.984V230H8.0164C8.00552 229.835 8 229.668 8 229.5C8 225.358 11.3579 222 15.5 222C19.6421 222 23 225.358 23 229.5C23 229.668 22.9945 229.835 22.9836 230H32.0164C32.0055 229.835 32 229.668 32 229.5C32 225.358 35.3579 222 39.5 222C43.6421 222 47 225.358 47 229.5C47 229.668 46.9945 229.835 46.9836 230H56.0164C56.0055 229.835 56 229.668 56 229.5C56 225.358 59.3579 222 63.5 222C67.6421 222 71 225.358 71 229.5C71 229.668 70.9945 229.835 70.9836 230H80.0164C80.0055 229.835 80 229.668 80 229.5C80 225.358 83.3579 222 87.5 222C91.6421 222 95 225.358 95 229.5C95 229.668 94.9945 229.835 94.9836 230H104.016C104.006 229.835 104 229.668 104 229.5C104 225.358 107.358 222 111.5 222C115.642 222 119 225.358 119 229.5C119 229.668 118.994 229.835 118.984 230H128.016C128.006 229.835 128 229.668 128 229.5C128 225.358 131.358 222 135.5 222C139.642 222 143 225.358 143 229.5C143 229.668 142.994 229.835 142.984 230H152.016C152.006 229.835 152 229.668 152 229.5C152 225.358 155.358 222 159.5 222C163.642 222 167 225.358 167 229.5C167 229.668 166.994 229.835 166.984 230H176.016C176.006 229.835 176 229.668 176 229.5C176 225.358 179.358 222 183.5 222C187.642 222 191 225.358 191 229.5C191 229.668 190.994 229.835 190.984 230H200.016C200.006 229.835 200 229.668 200 229.5C200 225.358 203.358 222 207.5 222C211.642 222 215 225.358 215 229.5C215 229.668 214.994 229.835 214.984 230H224.016C224.006 229.835 224 229.668 224 229.5C224 225.358 227.358 222 231.5 222C235.642 222 239 225.358 239 229.5C239 229.668 238.994 229.835 238.984 230H248.016C248.006 229.835 248 229.668 248 229.5C248 225.358 251.358 222 255.5 222C259.642 222 263 225.358 263 229.5C263 229.668 262.994 229.835 262.984 230H272.016C272.006 229.835 272 229.668 272 229.5C272 225.358 275.358 222 279.5 222C283.642 222 287 225.358 287 229.5C287 229.531 287 229.562 286.999 229.593C286.999 229.661 286.997 229.728 286.994 229.795C286.992 229.864 286.988 229.932 286.984 230H296.016C296.014 229.968 296.012 229.936 296.011 229.905C296.009 229.869 296.007 229.834 296.006 229.798C296.002 229.699 296 229.6 296 229.5C296 225.358 299.358 222 303.5 222C307.642 222 311 225.358 311 229.5C311 229.608 310.998 229.715 310.993 229.821C310.991 229.881 310.988 229.941 310.984 230H320.016C320.006 229.835 320 229.668 320 229.5C320 225.358 323.358 222 327.5 222C331.642 222 335 225.358 335 229.5C335 229.668 334.994 229.835 334.984 230H343V220.984C339.091 220.726 336 217.474 336 213.5C336 209.526 339.091 206.274 343 206.016V195.984C339.091 195.726 336 192.474 336 188.5C336 184.526 339.091 181.274 343 181.016V170.984C339.091 170.726 336 167.474 336 163.5C336 159.526 339.091 156.274 343 156.016V145.984C339.091 145.726 336 142.474 336 138.5C336 134.526 339.091 131.274 343 131.016V120.984C339.091 120.726 336 117.474 336 113.5C336 109.526 339.091 106.274 343 106.016V95.9836C339.091 95.7263 336 92.4741 336 88.5C336 84.5259 339.091 81.2737 343 81.0164V70.9836C339.091 70.7263 336 67.4741 336 63.5C336 59.5259 339.091 56.2737 343 56.0164V45.9836C339.091 45.7263 336 42.4741 336 38.5C336 34.5259 339.091 31.2737 343 31.0164V20.9836C339.091 20.7263 336 17.4741 336 13.5C336 9.52588 339.091 6.27369 343 6.0164V0H334.984C334.726 3.90902 331.474 7 327.5 7C323.526 7 320.274 3.90902 320.016 0Z" fill="#0A0A0A"/>
</svg>
