<svg width="1340" height="184" viewBox="0 0 1340 184" fill="none" xmlns="http://www.w3.org/2000/svg">
<path fill-rule="evenodd" clip-rule="evenodd" d="M1300 13C1307.18 13 1313 7.1797 1313 0H1340V16C1332.82 16 1327 21.8203 1327 29C1327 36.1797 1332.82 42 1340 42V58C1332.82 58 1327 63.8203 1327 71C1327 78.1797 1332.82 84 1340 84V100C1332.82 100 1327 105.82 1327 113C1327 120.18 1332.82 126 1340 126V142C1332.82 142 1327 147.82 1327 155C1327 162.18 1332.82 168 1340 168V184H1313C1313 176.82 1307.18 171 1300 171C1292.82 171 1287 176.82 1287 184H1271C1271 176.82 1265.18 171 1258 171C1250.82 171 1245 176.82 1245 184H1229C1229 176.82 1223.18 171 1216 171C1208.82 171 1203 176.82 1203 184H1187C1187 176.82 1181.18 171 1174 171C1166.82 171 1161 176.82 1161 184H1145C1145 176.82 1139.18 171 1132 171C1124.82 171 1119 176.82 1119 184H1103C1103 176.82 1097.18 171 1090 171C1082.82 171 1077 176.82 1077 184H1061C1061 176.82 1055.18 171 1048 171C1040.82 171 1035 176.82 1035 184H1019C1019 176.82 1013.18 171 1006 171C998.82 171 993 176.82 993 184H977C977 176.82 971.18 171 964 171C956.82 171 951 176.82 951 184H935C935 176.82 929.18 171 922 171C914.82 171 909 176.82 909 184H893C893 176.82 887.18 171 880 171C872.82 171 867 176.82 867 184H851C851 176.82 845.18 171 838 171C830.82 171 825 176.82 825 184H809C809 176.82 803.18 171 796 171C788.82 171 783 176.82 783 184H767C767 176.82 761.18 171 754 171C746.82 171 741 176.82 741 184H725C725 176.82 719.18 171 712 171C704.82 171 699 176.82 699 184H683C683 176.82 677.18 171 670 171C662.82 171 657 176.82 657 184H641C641 176.82 635.18 171 628 171C620.82 171 615 176.82 615 184H599C599 176.82 593.18 171 586 171C578.82 171 573 176.82 573 184H557C557 176.82 551.18 171 544 171C536.82 171 531 176.82 531 184H515C515 176.82 509.18 171 502 171C494.82 171 489 176.82 489 184H473C473 176.82 467.18 171 460 171C452.82 171 447 176.82 447 184H431C431 176.82 425.18 171 418 171C410.82 171 405 176.82 405 184H389C389 176.82 383.18 171 376 171C368.82 171 363 176.82 363 184H347C347 176.82 341.18 171 334 171C326.82 171 321 176.82 321 184H305C305 176.82 299.18 171 292 171C284.82 171 279 176.82 279 184H263C263 176.82 257.18 171 250 171C242.82 171 237 176.82 237 184H221C221 176.82 215.18 171 208 171C200.82 171 195 176.82 195 184H179C179 176.82 173.18 171 166 171C158.82 171 153 176.82 153 184H137C137 176.82 131.18 171 124 171C116.82 171 111 176.82 111 184H95C95 176.82 89.1797 171 82 171C74.8203 171 69 176.82 69 184H53C53 176.82 47.1797 171 40 171C32.8203 171 27 176.82 27 184H0V168C7.1797 168 13 162.18 13 155C13 147.82 7.1797 142 0 142V126C7.1797 126 13 120.18 13 113C13 105.82 7.1797 100 0 100V84C7.1797 84 13 78.1797 13 71C13 63.8203 7.1797 58 0 58V42C7.1797 42 13 36.1797 13 29C13 21.8203 7.1797 16 0 16V0H27C27 7.1797 32.8203 13 40 13C47.1797 13 53 7.1797 53 0H69C69 7.1797 74.8203 13 82 13C89.1797 13 95 7.1797 95 0H111C111 7.1797 116.82 13 124 13C131.18 13 137 7.1797 137 0H153C153 7.1797 158.82 13 166 13C173.18 13 179 7.1797 179 0H195C195 7.1797 200.82 13 208 13C215.18 13 221 7.1797 221 0H237C237 7.1797 242.82 13 250 13C257.18 13 263 7.1797 263 0H279C279 7.1797 284.82 13 292 13C299.18 13 305 7.1797 305 0H321C321 7.1797 326.82 13 334 13C341.18 13 347 7.1797 347 0H363C363 7.1797 368.82 13 376 13C383.18 13 389 7.1797 389 0H405C405 7.1797 410.82 13 418 13C425.18 13 431 7.1797 431 0H447C447 7.1797 452.82 13 460 13C467.18 13 473 7.1797 473 0H489C489 7.1797 494.82 13 502 13C509.18 13 515 7.1797 515 0H531C531 7.1797 536.82 13 544 13C551.18 13 557 7.1797 557 0H573C573 7.1797 578.82 13 586 13C593.18 13 599 7.1797 599 0H615C615 7.1797 620.82 13 628 13C635.18 13 641 7.1797 641 0H657C657 7.1797 662.82 13 670 13C677.18 13 683 7.1797 683 0H699C699 7.1797 704.82 13 712 13C719.18 13 725 7.1797 725 0H741C741 7.1797 746.82 13 754 13C761.18 13 767 7.1797 767 0H783C783 7.1797 788.82 13 796 13C803.18 13 809 7.1797 809 0H825C825 7.1797 830.82 13 838 13C845.18 13 851 7.1797 851 0H867C867 7.1797 872.82 13 880 13C887.18 13 893 7.1797 893 0H909C909 7.1797 914.82 13 922 13C929.18 13 935 7.1797 935 0H951C951 7.1797 956.82 13 964 13C971.18 13 977 7.1797 977 0H993C993 7.1797 998.82 13 1006 13C1013.18 13 1019 7.1797 1019 0H1035C1035 7.1797 1040.82 13 1048 13C1055.18 13 1061 7.1797 1061 0H1077C1077 7.1797 1082.82 13 1090 13C1097.18 13 1103 7.1797 1103 0H1119C1119 7.1797 1124.82 13 1132 13C1139.18 13 1145 7.1797 1145 0H1161C1161 7.1797 1166.82 13 1174 13C1181.18 13 1187 7.1797 1187 0H1203C1203 7.1797 1208.82 13 1216 13C1223.18 13 1229 7.1797 1229 0H1245C1245 7.1797 1250.82 13 1258 13C1265.18 13 1271 7.1797 1271 0H1287C1287 7.1797 1292.82 13 1300 13Z" fill="#0A0A0A"/>
</svg>
