<svg width="337" height="97" fill="none" xmlns="http://www.w3.org/2000/svg"><path d="M205.757 12.288h4.99l-.31 1.183h-3.665l-1.72 6.35h-1.303l2.008-7.533zm12.725 3.249c0-1.237-.791-2.162-2.137-2.162-1.741 0-2.959 1.657-2.959 3.195 0 1.248.801 2.164 2.147 2.164 1.742 0 2.949-1.658 2.949-3.197zm-6.475 1.11c0-2.283 1.859-4.488 4.466-4.488 2.03 0 3.387 1.43 3.387 3.303 0 2.281-1.859 4.488-4.476 4.488-2.02 0-3.377-1.432-3.377-3.304zm13.74-.442c1.368 0 2.233-.581 2.233-1.582 0-.71-.534-1.13-1.506-1.13h-1.336l-.715 2.712h1.324zm-1.613-3.917h2.383c1.688 0 2.842.71 2.842 2.227 0 1.82-1.55 2.863-3.686 2.863h-1.571l-.652 2.443h-1.335l2.019-7.533zm14.05 3.249c0-1.237-.801-2.162-2.137-2.162-1.752 0-2.959 1.657-2.959 3.195 0 1.248.79 2.164 2.137 2.164 1.741 0 2.959-1.658 2.959-3.197zm-6.475 1.11c0-2.283 1.86-4.488 4.466-4.488 2.02 0 3.387 1.43 3.387 3.303 0 2.281-1.859 4.488-4.476 4.488-2.02 0-3.377-1.432-3.377-3.304zm15.066 1.99l1.388-5.165h-2.639l-.331 1.183c-.448 1.593-1.132 3.079-1.902 3.982h3.484zm-5.631 0h.684c.897-1.033 1.666-2.4 2.361-4.982l.374-1.366h5.235l-1.709 6.348h.94l-.919 2.798h-1.122l.428-1.614h-5.289l-.556 1.614h-1.164l.737-2.798zm17.372-6.349h1.346l1.314 3.562 3.227-3.562h1.517l-2.019 7.533h-1.346l1.453-5.402-3.323 3.55h-.043l-1.389-3.529-1.442 5.38h-1.314l2.019-7.532zm11.068 0h5.524l-.321 1.183h-4.209l-.524 1.97h3.729l-.32 1.172h-3.729l-.545 2.024h4.274l-.321 1.184h-5.588l2.03-7.533zm11.872 4.531c-.598.29-1.517.602-2.276.602-1.25 0-1.923-.678-1.923-1.744 0-.225.032-.484.107-.753l.705-2.636h1.315l-.684 2.561a1.725 1.725 0 00-.064.495c0 .581.352.893 1.1.893.684 0 1.41-.269 2.03-.602l.898-3.347h1.303l-2.009 7.533h-1.303l.801-3.003zm7.521-3.304h-2.404l.331-1.227h6.111l-.331 1.227h-2.382l-1.71 6.306h-1.314l1.699-6.306zm13.783-1.227h1.314l-2.008 7.533h-1.315l2.009-7.533zm-5.759 6.349c1.314 0 2.169-.484 2.169-1.485 0-.624-.513-1.033-1.4-1.033h-1.485l-.694 2.518h1.41zm-1.004-6.349h1.293l-.705 2.701h1.314c1.645 0 2.628.828 2.628 2.034 0 1.807-1.474 2.798-3.611 2.798h-2.938l2.019-7.533zM99.759 17.782c.17.01.342.123.78.289-.876.363-1.517.617-2.148.889-7.885 3.402-15.78 6.784-23.655 10.233l9.691-12.282c5.118.278 10.225.579 15.332.871zM70.356 36.4a50.144 50.144 0 004.947-1.767c1.944-.804 3.793-1.85 5.758-2.576a1224.393 1224.393 0 0119.328-6.95c4.466-1.57 8.986-3.008 13.462-4.56.609-.209 1.539-.099 1.667-1.113.011-.078.289-.132.449-.178 1.806-.51 3.611-1.011 5.406-1.524 1.442-.411 2.906-.812 4.402-.363.865.262 1.517-.029 2.244-.531-.802-.627-1.507-1.28-2.308-1.794a60.01 60.01 0 00-3.932-2.32c-1.528-.822-2.97-1.732-4.861-1.82-4.797-.222-9.595-.075-14.392-.567-4.092-.417-8.195-.596-12.308-.757l4.647-5.896L83.99 5.396 85.559.82 79 7.778l-1.25 1.33c-2.211-.067-4.423-.133-6.635-.21-.256-.01-.566-.075-.737-.235-.502-.472-.908-.241-1.303.113-.652.583-1.24 1.262-1.956 1.748-.747.502-.737 1.164-.438 1.744.353.655.866 1.514 1.464 1.673.834.218 1.432.55 1.977 1.147.32.362.662.71 1.004 1.058L56.648 31.534a.637.637 0 00-.086-.095c-.448-.447-.94-.562-1.591-.45-1.293.221-2.618.47-3.91.407-7.608-.37-15.205-.826-22.812-1.262-.17-.01-.331-.122-.77-.288.877-.363 1.507-.618 2.138-.889 8.462-3.65 16.945-7.273 25.375-10.984 1.303-.575 2.457-.674 3.793-.25.801.253 1.741.413 2.532.242 1.25-.267 2.425-.843 3.633-1.305.363-.138.705-.334 1.346-.643-.449-.273-.727-.442-1.069-.652.438-.303.684-.472 1.037-.718-1.592-1.268-3.11-2.481-4.637-3.684a.602.602 0 00-.417-.105c-1.186.2-2.404.32-3.547.66a51.613 51.613 0 00-4.957 1.766c-1.945.805-3.794 1.85-5.76 2.577a1273.335 1273.335 0 01-19.316 6.95c-4.477 1.569-8.986 3.008-13.463 4.56-.609.209-1.538.099-1.666 1.113-.011.078-.3.132-.46.178-1.795.51-3.6 1.01-5.406 1.524-1.442.411-2.896.812-4.391.362-.866-.26-1.517.029-2.244.532.79.627 1.507 1.278 2.308 1.793a53.86 53.86 0 003.932 2.32c1.527.823 2.97 1.732 4.861 1.82 4.786.223 9.584.076 14.392.567 5.641.578 11.336.698 17.009.948 4.113.182 8.227.29 12.34.424L21.39 80.175l1.891.58-1.496 3.624-5.609 8.91h7.981l44.617-56.542a13.41 13.41 0 001.582-.348zm157.379 2.053c-5.481 4.481-10.962 8.935-16.421 13.475-.844.702-1.624.916-2.554.63a3.504 3.504 0 00-.598-.129l8.024-14.48c4.124-.29 8.259-.542 12.393-.804.118-.007.246.088.545.21-.566.449-.983.766-1.389 1.098zm10.599.029c.395-.27 1.026-.253 1.047-1.275 0-.079.193-.16.299-.223 1.186-.687 2.372-1.366 3.548-2.058.95-.553 3.846-2.397 3.846-2.397s-2.96-2.042-3.921-2.625c-1.101-.666-2.137-1.426-3.43-1.323-3.259.259-6.507.887-9.797.88-3.868-.01-7.736.443-11.603.763-3.27.27-6.529.641-9.798.954-.171.017-.385-.017-.513-.159-.374-.419-4.882.325-5.128.717-.406.646-2.276 1.578-2.725 2.133-.47.574-1.987 2.43-1.731 2.974.278.619 8.024-.447 8.452-.348.406.094.737.262 1.036.537l-13.312 20.283 2.243 1.468-18.248 32.826.416 1.324 1.314-1.624-2.104 5.484h5.384l21.668-39.136c.684.644 1.357 1.282 2.041 1.912.075.069.192.097.278.061.79-.319 1.613-.558 2.361-1.012a30.105 30.105 0 003.237-2.255c1.261-.995 2.436-2.221 3.718-3.141a826.603 826.603 0 0112.608-8.853c2.927-2.01 5.887-3.894 8.814-5.887zm25.716 5.404c-1.816 2.93-3.579 5.91-5.567 8.726-1.185 1.672-2.735 3.08-4.145 4.578a382.044 382.044 0 01-4.765 4.945c-.481.49-1.058.886-1.549 1.361-1.069 1.036-2.062 2.157-3.184 3.145-4.114 3.679-8.227 7.352-12.415 10.955-1.122.965-2.458 1.667-4.018 2.69.096-.816.075-1.344.246-1.814l.417-1.23c.758-2.26 1.549-4.502 2.863-6.55 1.464-2.265 2.554-4.77 4.316-6.862.77-.904 1.293-2.01 2.02-2.953 1.667-2.18 3.226-4.431 5.481-6.131 1.549-1.159 2.863-2.633 4.284-3.965.299-.268.577-.589.919-.782 1.4-.782 2.767-1.512 3.526-3.118.299-.636 1.229-.988 1.891-1.45 2.297-1.62 4.819-2.548 7.65-2.98a25.55 25.55 0 012.767-.28c-.299.726-.449 1.263-.737 1.715zm72.941 1.913c-.043-.16-.459-.377-.47-.354-.619.687-1.378-.029-2.03.217-.94.343-1.87.636-2.82.184a2.566 2.566 0 01-.342-.194c-.214-.136-.641.042-.973.094-.705.113-1.41.316-2.115.344-1.186.052-2.383-.056-3.558-.005-1.912.095-3.825.236-5.737.4-1.176.104-2.34.392-3.515.42-1.699.046-3.377.084-5.011.682-.588.217-1.272.184-1.924.27-.021-.787.203-1.329.556-1.782.192-.268.438-.499.694-.73.673-.597 1.336-1.228 1.87-1.94 1.4-1.822 2.746-3.696 4.092-5.556.193-.274.47-.599.47-.886-.021-.48-.117-1.06-.406-1.384-.224-.23-.822-.166-1.239-.142-.15.01-.299.076-.491.16-.139.066-.289.147-.492.221.118-.404.214-.786.31-1.153l.598-2.307c-.844-.65-1.431-.166-1.923.395-.32.377-.491.88-.694 1.342a5.068 5.068 0 01-.15.33c-1.87 4.257-4.22 8.208-7.586 11.491-.481.47-.972.988-1.261 1.583-.331.644-.822.874-1.442 1.044-2.009.547-3.996 1.201-6.037 1.659-2.607.583-5.256 1.017-8.194 1.572.566-.73 1.057-1.36 1.517-1.95.384-.494.737-.956 1.1-1.417 1.582-2.054 3.131-4.125 4.723-6.18.854-1.1 1.827-2.118 2.596-3.281 1.143-1.743 2.19-3.56 3.195-5.397.363-.664.544-1.46.662-2.223.182-1.22.192-2.463.374-3.687.128-.81-.15-1.328-.855-1.625-.438-.188-.887-.222-1.239-.038a1.086 1.086 0 00-.513.57c-.385.9-.972.98-1.774.768-.63-.156-1.111.117-1.453.626-1.218 1.776-2.404 3.556-3.622 5.331-.983 1.432-1.955 2.878-2.981 4.286-1.389 1.903-2.863 3.74-4.23 5.665-2.052 2.892-3.996 5.873-6.08 8.746-.545.73-1.367 1.436-2.201 1.713-1.271.425-2.682.382-3.996.693-1.688.4-3.419.485-5.096 1.116a9.517 9.517 0 01-1.806.462c.492-.755.973-1.508 1.475-2.242.096-.146.203-.297.31-.443 2.361-3.367 3.301-7.159 4.327-10.977a1.485 1.485 0 000-.683c-.492-1.635-.353-3.26-.086-4.922.289-1.84.032-2.142-1.624-2.943-.139-.075-.256-.203-.438-.353.16-.424.331-.834.46-1.158-.492-1.187-1.614-1.504-2.404-2.186-.62-.532-1.24-.89-1.913-1.102-.673-.226-1.399-.297-2.19-.254-7.148.372-19.681 11.133-20.375 12.21-.694 1.065-1.496 1.894-2.596 2.38-1.165.517-1.667 1.3-1.357 2.505-.78.283-1.464.532-2.201.805.278.335.438.537.684.834l-3.761 1.803c-1.079.952-1.207.895-2.319 2.83l-5.449 6.345c.118.446.289.772.257 1.082-.128 1.87-1.881 3.029-2.191 4.828-.01.038-.085.075-.138.085-.78.136-.866.81-1.112 1.384-.619 1.413-1.282 2.807-1.901 4.22-.161.363-.321.762-.31 1.14.043 1.13-.171 2.161-.759 3.131-.502.83-.523 1.63.47 2.105-.876 1.648-.673 4.163.588 5.161 1.346 1.06 2.425 2.224 3.344 2.981.331.274.641.495.94.641.791.386 1.571.998 3.088 1.286.171.037.342.1.502.14 1.592.401 3.045.104 4.477-.672 2.735-1.484 5.278-3.226 7.821-4.997 3.579-2.473 6.656-5.491 9.861-8.36 2.34-2.085 4.68-4.219 6.561-6.776a26.707 26.707 0 011.613-1.95l.011-.019-.022.062c.022 0 .043-.005.064-.01 1.806-.414 3.622-.815 5.439-1.224.886-.203 1.773-.41 2.66-.612.481-.113.972-.221 1.453-.33.588-.127 1.186-.198 2.105-.344-1.485 2.03-2.757 3.759-4.135 5.628a2.405 2.405 0 00-.075-.297l-2.062 2.435c.011 0 .011.004.022.004.042.114.085.222.128.33-.203.104-.481.146-.609.311a1261.67 1261.67 0 00-7.137 9.64c-.492.674-.738 1.625-1.368 2.096-.673.495-1.656.565-2.607.847.171.434.321.839.492 1.234.299.679.331 1.38-.203 1.907-1.55 1.526-1.539 3.834-2.853 5.483-.534.673-.898 1.483-1.304 2.293-.085.175-.171.353-.267.527.823.679 1.646 1.357 2.597.617.683-.523 1.218-1.064 2.19-.979.331.028.833-.377 1.079-.716.652-.91 1.218-1.893 1.806-2.85.299-.479.555-.989.886-1.435a226.12 226.12 0 011.656-2.2l3.056-1.526v1.668l19.681-27.54a6.088 6.088 0 012.606-.77c.492-.032.973-.319 1.454-.432 1.26-.301 2.532-.584 3.792-.848a120.732 120.732 0 013.815-.748c.427-.076.854-.062 1.357-.09-.107 1.012-.599 1.577-1.283 2.039-.416.273-.79.617-1.132.985-1.549 1.624-2.489 3.706-4.178 5.283-1.549 1.432-2.735 3.278-4.006 5.002-.94 1.261-1.763 2.614-2.596 3.946-1.09 1.71-2.319 3.363-3.152 5.195-1.005 2.214-1.753 4.54-2.565 6.838v.01c-.096.254-.181.512-.277.767a2.734 2.734 0 00-.15.829c-.032 1.013.748 1.526 1.539.923.555-.428.94-1.103 1.303-1.724.406-.678.631-1.455 1.047-2.129.855-1.398 1.752-2.774 2.618-4.158.363-.565.716-1.135 1.068-1.704.599-.98 1.282-1.852 2.169-2.577-.427 1.38-.972 2.68-1.528 3.966-.513 1.148-.31 1.521.919 1.686.182.023.363.023.812.042l2.009-2.317 3.109-3.598 1.806-2.096c-.674.155-1.347.212-2.052.042-.181-1.63.641-2.778 1.4-3.983 1.667-2.638 2.97-5.496 5.032-7.89.534-.63.866-1.44 1.357-2.114.962-1.346 1.977-2.66 2.97-3.979.064-.085.193-.123.278-.197.887-.82 1.987-1.017 3.13-1.126 2.351-.221 4.723-.415 7.074-.683.523-.057 1.057-.306 1.538-.565a17.207 17.207 0 001.966-1.229c.438-.307 1.154-.702 1.154-1.07.021-1.375.972-1.355 1.859-1.45.897-.094 1.805-.038 2.692-.155 1.678-.226 3.334-.585 5.022-.782 3.066-.358 6.154-.627 9.231-.984.598-.075 1.186-.363 1.742-.613.138-.066.256-.409.213-.573z" fill="#EBE6E1"/><path d="M87.632 53.204c-.46.496-1.037 1.029-1.657 1.222-1.282.392-2.628.562-4.017.68 3.152-4.788 7.575-8.362 11.496-12.373.129.085.257.17.374.254-.096.277-.17.575-.32.833-.695 1.237-1.357 2.49-2.137 3.679-.256.389-.78.73-1.25.85-1.282.328-1.528.706-.93 1.804.14.263.289.525.321.582-.695.927-1.229 1.753-1.88 2.47zm4.626 6.217c.855-1.57 2.062-2.639 4.081-2.656 1.955-.018 2.084-.055 4.028-.122.267-.01.064-.329.331-.26 0 0 3.59-3.717 2.084-3.711-1.272.009-3.708-.135-4.894.427-.342.167-.812.1-1.218.144-.128-.827.364-1.03.887-1.172l2.393-6.988c-.032.005-.053.006-.074.013.064-.402.128-.794.203-1.182.416-2.448.833-4.696 1.698-6.856 1.026-2.54 1.966-5.103 2.896-7.67.192-.524.374-1.147-.353-1.524-.63-.321-1.239-.398-1.795.15-2.425 2.374-5.299 4.282-7.564 6.808-.139.158-.31.301-.47.444-1.037.926-2.094 1.82-3.099 2.78-.502.483-.95.701-1.72.605l-4.23 3.081c.544-.057 1.164.019 2.019.022-.439.465-.652.715-.887.94a1686.14 1686.14 0 01-6.934 6.619c-.663.62-1.4 1.165-2.062 1.78-.844.787-1.656 1.619-2.48 2.42-.8.773-1.591 1.552-2.435 2.285-.31.264-.727.56-1.1.57-2.052.043-4.114-.003-6.165-.016 0-.011.01-.016.01-.026l-.042.028-.097.12c.032-.028.064-.05.097-.073-.043.554-.097 1.103-.118 1.662-.053 1.87-1.004 2.607-3.12 2.165l-2.585 3.107c.213.06.416.168.63.312.545.367 1.068.763 1.838.258 0-.358.01-.748.01-1.242l4.018-1.052c-.396 1.126-1.015 1.656-1.71 2.166-.545.395-.993.924-1.474 1.4-.342.34-.641.721-.994 1.04-1.506 1.364-3.045 2.682-4.509 4.082-1.036.988-1.955 2.098-2.96 3.127-.523.537-1.121 1.001-1.666 1.517-1.998 1.921-3.996 3.853-6.004 5.79a5.817 5.817 0 00-.513.598c-.396.553-.748 1.14-1.186 1.658-.994 1.181-2.062 2.312-3.045 3.499-.118.132-.14.346-.171.645l-6.09 6 15.898.245.801-1.334c.834-.218 1.485-.737 1.934-1.597.427-.785.983-1.506 1.517-2.233.823-1.11 1.688-2.193 2.5-3.309 1.657-2.275 3.27-4.576 4.947-6.84.406-.549 1.026-.947 1.464-1.48a694.565 694.565 0 006.656-8.34c.524-.662.79-1.541 1.4-2.086 1.805-1.587 2.938-3.584 4.113-5.568.364-.608.898-1.356 1.528-1.554 1.87-.605 3.846-.914 5.983-.752-1.047 1.395-1.976 2.678-2.97 3.923-.652.81-.673 1.326.128 1.978.235.192.534.311.898.513-2.693 3.821-5.396 7.549-6.154 12.31l3.333.673c-.085.325-.117.584-.214.82-.502 1.277-.865 2.565-.886 3.96-.011 1.295-.14 2.637-.524 3.867-.545 1.727-.385 2.626 1.154 3.65 1.197-1.395 1.57-2.23 1.987-3.668.876-2.96 1.41-5.997 2.554-8.9 1.88-4.694 3.793-9.359 6.282-13.793.77-1.377 1.442-2.809 2.212-4.197zm90.508-5.511l-23.089 5.714c2.799-5.172 5.588-10.345 8.409-15.517l14.68 9.802zm-3.761 19.618c-8.868 1.756-17.715 3.658-26.465 6.112.107-1.17-3.098.243-3.43.389-.203.092-.48.21-.801.35a1469.846 1469.846 0 008.985-16.35c1.069-.267 2.148-.533 3.227-.799-1.218.914-2.468 1.91-2.244 1.924.374.024 32.865-8.499 32.865-8.499l-4.113.013c.416-.104.94-.02 1.26-.312 2.02-1.85 6.86-6.38 6.86-6.38s-13.708-9.137-21.283-14.195c3.344-3.426 7.244-7.572 7.244-7.572s-3.708 1.728-4.445 1.937c-.962.275.139-1.851.139-1.851.684-1.227-3.248.176-3.408.249-1.56.695-3.954 1.702-4.958 3.485a.427.427 0 01-.053.095c-1.357-.904-2.703-1.809-4.06-2.714-.855-.57-2.287-.111-3.558.486-.812.384-1.571.825-2.062 1.089-.16.08-.385 1.564-1.464 2.342-1.314.947-3.462 1.229-3.088 1.48 3.088 2.06 6.165 4.12 9.253 6.18-.769 1.38-1.549 2.76-2.319 4.14-2.254.351-5.641.925-6.485.946-1.71.045-7.148 1.027-8.782 1.624-.438.16-.919.183-1.411.218l6.689-9.956c.203-.273.48-.597.47-.887-.022-.478-.107-1.058-.406-1.383-.214-.233-.812-.164-1.229-.142-.267.017-.524.199-.983.382.342-1.315.62-2.39.908-3.464-.844-.649-1.442-.166-1.923.397-.32.376-.502.883-.705 1.343-1.891 4.385-4.274 8.453-7.725 11.82-.481.473-.972.99-1.271 1.581-.321.649-.812.877-1.432 1.048-2.009.545-4.007 1.2-6.037 1.655-2.617.585-5.256 1.018-8.205 1.574 1.036-1.33 1.838-2.343 2.618-3.366 1.581-2.054 3.141-4.124 4.733-6.178.854-1.103 1.827-2.122 2.596-3.282 1.143-1.746 2.19-3.561 3.195-5.398.352-.665.545-1.461.662-2.224.182-1.217.192-2.463.374-3.686.118-.813-.16-1.331-.855-1.627-.705-.302-1.431-.204-1.752.535-.385.898-.983.979-1.784.768-.631-.16-1.101.113-1.453.625-1.208 1.775-2.404 3.556-3.612 5.33-.983 1.434-1.955 2.879-2.981 4.284-1.399 1.905-2.874 3.742-4.241 5.664-2.052 2.896-3.996 5.877-6.079 8.749-.535.729-1.582 1.601-1.582 1.601l-8.793 1.083-5.171 7.044s7.928-1.478 8.846-1.626c-1.485 2.03-3.792 5.044-5.16 6.91-.021-.103-.053-.2-.075-.297 0 0-2.404 2.92-2.521 3.084-2.394 3.202-4.776 6.41-7.137 9.636-.503.676-.748 1.626-1.379 2.098-.662.495-1.645.563-2.607.847.171.433.32.837.492 1.236.299.676.342 1.376-.193 1.905-1.549 1.524-1.549 3.834-2.863 5.483-.64.82-1.036 1.843-1.57 2.821.833.678 1.645 1.354 2.607.615.673-.524 1.218-1.063 2.18-.979.341.029.832-.375 1.078-.717.652-.909 1.218-1.893 1.817-2.85.288-.477.544-.989.886-1.432a319.262 319.262 0 013.633-4.795c.128.99.224 1.926-.032 2.352-.449.756-.897 1.514-1.336 2.275l20.974-28.639c1.036-.854 2.222-1.458 3.75-1.563.502-.034.972-.318 1.464-.432 1.26-.301 2.521-.586 3.792-.848 1.261-.267 4.445-.523 5.716-.75 0 0-2.628 2.57-2.97 2.935-1.549 1.626-2.478 3.708-4.177 5.284-1.549 1.433-2.735 3.276-4.007 5-.929 1.262-1.752 2.616-2.596 3.947-1.079 1.713-2.308 3.363-3.141 5.194-1.122 2.463-1.923 5.069-2.853 7.617a2.742 2.742 0 00-.139.83c-.032 1.012-1.026 3.771-.235 3.169.545-.426 2.703-3.35 3.066-3.971.406-.677.641-1.457 1.047-2.128 1.208-1.968 2.49-3.89 3.697-5.864.588-.979 1.272-1.849 2.169-2.577-.427 1.382-.972 2.68-1.538 3.965-.503 1.15-.31 1.524.918 1.689.182.023.374.023.823.04l1.998-2.315 3.109-3.6 1.817-2.094c-.161.035-.31.062-.46.086l13.067-19.448c2.821-.599 16.283-3.136 16.283-3.136l-1.304-.378 1.133-.594 2.233-.489c-2.671 4.762-5.353 9.523-8.024 14.285-.171.138-.342.276-.502.418-.972.874-1.229 1.511-.684 1.693-2.618 4.65-5.225 9.3-7.842 13.95-.93 1.655-6.261 9.037-6.261 9.037l4.979-2.385-.428 1.036 6.421-2.352c1.037-.143 2.137-.593 2.949-.793 2.682-.666 5.375-1.334 8.056-2.002l16.123-4.004c2.051-.51 4.295-1.621 5.994-3.153 1.271-1.155 1.154-1.836-.513-1.503z" fill="#EBE6E1"/></svg>